<mxfile host="Electron" modified="2024-01-17T21:44:48.263Z" agent="Mozilla/5.0 (Windows NT 10.0; Win64; x64) AppleWebKit/537.36 (KHTML, like Gecko) draw.io/22.0.2 Chrome/114.0.5735.289 Electron/25.8.4 Safari/537.36" etag="PA0PV5QabudDffn3GF9l" version="22.0.2" type="device">
  <diagram name="第 1 页" id="kre7Ufi4gVb9zJIDTQLO">
    <mxGraphModel dx="1418" dy="828" grid="1" gridSize="10" guides="1" tooltips="1" connect="1" arrows="1" fold="1" page="1" pageScale="1" pageWidth="827" pageHeight="1169" math="0" shadow="0">
      <root>
        <mxCell id="0" />
        <mxCell id="1" parent="0" />
        <mxCell id="Y49pG0PhkSJmo9Slld95-38" value="" style="verticalLabelPosition=middle;verticalAlign=middle;html=1;shape=mxgraph.basic.acute_triangle;dx=0.5;fontFamily=Helvetica;fontSize=11;fontColor=default;horizontal=1;labelPosition=center;align=center;fillColor=#000000;" parent="1" vertex="1">
          <mxGeometry x="287.49" y="49.38" width="25" height="30" as="geometry" />
        </mxCell>
        <mxCell id="Y49pG0PhkSJmo9Slld95-225" value="1" style="verticalLabelPosition=middle;verticalAlign=middle;html=1;shape=mxgraph.basic.acute_triangle;dx=0.5;fontFamily=Helvetica;fontSize=11;fontColor=#FFFFFF;horizontal=1;labelPosition=center;align=center;fillColor=#000000;" parent="1" vertex="1">
          <mxGeometry x="28" y="1610" width="25" height="30" as="geometry" />
        </mxCell>
        <mxCell id="Y49pG0PhkSJmo9Slld95-140" value="1" style="verticalLabelPosition=middle;verticalAlign=middle;html=1;shape=mxgraph.basic.acute_triangle;dx=0.5;fontFamily=Helvetica;fontSize=11;fontColor=#FFFFFF;horizontal=1;labelPosition=center;align=center;fillColor=#000000;" parent="1" vertex="1">
          <mxGeometry x="48" y="1290" width="25" height="30" as="geometry" />
        </mxCell>
        <mxCell id="Y49pG0PhkSJmo9Slld95-5" value="" style="ellipse;whiteSpace=wrap;html=1;aspect=fixed;fillColor=#000000;" parent="1" vertex="1">
          <mxGeometry x="292.49" y="45.38" width="15" height="15" as="geometry" />
        </mxCell>
        <mxCell id="rvQk6iIPXBQ3tCGbkrqs-1" value="&lt;font color=&quot;#ffffff&quot;&gt;N&lt;/font&gt;" style="ellipse;whiteSpace=wrap;html=1;aspect=fixed;strokeColor=none;fillColor=#FF0000;" parent="1" vertex="1">
          <mxGeometry x="320" y="120" width="40" height="40" as="geometry" />
        </mxCell>
        <mxCell id="rvQk6iIPXBQ3tCGbkrqs-3" value="&lt;font color=&quot;#ffffff&quot;&gt;N&lt;/font&gt;" style="ellipse;whiteSpace=wrap;html=1;aspect=fixed;strokeColor=none;fillColor=#000000;" parent="1" vertex="1">
          <mxGeometry x="480" y="120" width="40" height="40" as="geometry" />
        </mxCell>
        <mxCell id="rvQk6iIPXBQ3tCGbkrqs-5" value="&lt;font style=&quot;font-size: 16px;&quot;&gt;情况1：直接修改节点颜色为黑色&lt;/font&gt;" style="text;html=1;align=center;verticalAlign=middle;resizable=0;points=[];autosize=1;strokeColor=none;fillColor=none;" parent="1" vertex="1">
          <mxGeometry x="80" y="90" width="260" height="30" as="geometry" />
        </mxCell>
        <mxCell id="rvQk6iIPXBQ3tCGbkrqs-6" value="" style="endArrow=none;dashed=1;html=1;strokeWidth=2;rounded=0;strokeColor=#E6D0DE;" parent="1" edge="1">
          <mxGeometry width="50" height="50" relative="1" as="geometry">
            <mxPoint x="80" y="260" as="sourcePoint" />
            <mxPoint x="760" y="260" as="targetPoint" />
          </mxGeometry>
        </mxCell>
        <mxCell id="Y49pG0PhkSJmo9Slld95-50" style="edgeStyle=none;shape=connector;rounded=0;orthogonalLoop=1;jettySize=auto;html=1;exitX=0.5;exitY=1;exitDx=0;exitDy=0;entryX=0.5;entryY=0;entryDx=0;entryDy=0;labelBackgroundColor=default;strokeColor=default;align=center;verticalAlign=middle;fontFamily=Helvetica;fontSize=11;fontColor=default;endArrow=classic;" parent="1" source="rvQk6iIPXBQ3tCGbkrqs-7" target="rvQk6iIPXBQ3tCGbkrqs-8" edge="1">
          <mxGeometry relative="1" as="geometry" />
        </mxCell>
        <mxCell id="rvQk6iIPXBQ3tCGbkrqs-7" value="&lt;font color=&quot;#ffffff&quot;&gt;P&lt;/font&gt;" style="ellipse;whiteSpace=wrap;html=1;aspect=fixed;strokeColor=none;fillColor=#000000;" parent="1" vertex="1">
          <mxGeometry x="400" y="320" width="40" height="40" as="geometry" />
        </mxCell>
        <mxCell id="rvQk6iIPXBQ3tCGbkrqs-8" value="&lt;font color=&quot;#ffffff&quot;&gt;N&lt;/font&gt;" style="ellipse;whiteSpace=wrap;html=1;aspect=fixed;strokeColor=none;fillColor=#FF0000;" parent="1" vertex="1">
          <mxGeometry x="360" y="400" width="40" height="40" as="geometry" />
        </mxCell>
        <mxCell id="rvQk6iIPXBQ3tCGbkrqs-11" value="&lt;font style=&quot;font-size: 16px;&quot;&gt;情况2：不需要调整&lt;/font&gt;" style="text;html=1;align=center;verticalAlign=middle;resizable=0;points=[];autosize=1;strokeColor=none;fillColor=none;" parent="1" vertex="1">
          <mxGeometry x="80" y="290" width="160" height="30" as="geometry" />
        </mxCell>
        <mxCell id="rvQk6iIPXBQ3tCGbkrqs-12" value="" style="endArrow=none;dashed=1;html=1;strokeWidth=2;rounded=0;strokeColor=#E6D0DE;" parent="1" edge="1">
          <mxGeometry width="50" height="50" relative="1" as="geometry">
            <mxPoint x="80" y="540" as="sourcePoint" />
            <mxPoint x="760" y="540" as="targetPoint" />
          </mxGeometry>
        </mxCell>
        <mxCell id="Y49pG0PhkSJmo9Slld95-69" style="edgeStyle=none;shape=connector;rounded=0;orthogonalLoop=1;jettySize=auto;html=1;exitX=0.5;exitY=1;exitDx=0;exitDy=0;entryX=0.5;entryY=0;entryDx=0;entryDy=0;labelBackgroundColor=default;strokeColor=default;align=center;verticalAlign=middle;fontFamily=Helvetica;fontSize=11;fontColor=default;endArrow=classic;" parent="1" source="rvQk6iIPXBQ3tCGbkrqs-14" target="rvQk6iIPXBQ3tCGbkrqs-15" edge="1">
          <mxGeometry relative="1" as="geometry" />
        </mxCell>
        <mxCell id="Y49pG0PhkSJmo9Slld95-70" style="edgeStyle=none;shape=connector;rounded=0;orthogonalLoop=1;jettySize=auto;html=1;exitX=0.5;exitY=1;exitDx=0;exitDy=0;entryX=0.5;entryY=0;entryDx=0;entryDy=0;labelBackgroundColor=default;strokeColor=default;align=center;verticalAlign=middle;fontFamily=Helvetica;fontSize=11;fontColor=default;endArrow=classic;" parent="1" source="rvQk6iIPXBQ3tCGbkrqs-14" target="rvQk6iIPXBQ3tCGbkrqs-16" edge="1">
          <mxGeometry relative="1" as="geometry" />
        </mxCell>
        <mxCell id="rvQk6iIPXBQ3tCGbkrqs-14" value="&lt;font color=&quot;#ffffff&quot;&gt;G&lt;/font&gt;" style="ellipse;whiteSpace=wrap;html=1;aspect=fixed;strokeColor=none;fillColor=#000000;" parent="1" vertex="1">
          <mxGeometry x="160" y="640" width="40" height="40" as="geometry" />
        </mxCell>
        <mxCell id="Y49pG0PhkSJmo9Slld95-80" style="edgeStyle=none;shape=connector;rounded=0;orthogonalLoop=1;jettySize=auto;html=1;exitX=0.5;exitY=1;exitDx=0;exitDy=0;entryX=0.5;entryY=0;entryDx=0;entryDy=0;labelBackgroundColor=default;strokeColor=default;align=center;verticalAlign=middle;fontFamily=Helvetica;fontSize=11;fontColor=default;endArrow=classic;" parent="1" source="rvQk6iIPXBQ3tCGbkrqs-15" target="rvQk6iIPXBQ3tCGbkrqs-17" edge="1">
          <mxGeometry relative="1" as="geometry" />
        </mxCell>
        <mxCell id="rvQk6iIPXBQ3tCGbkrqs-15" value="&lt;font color=&quot;#ffffff&quot;&gt;P&lt;/font&gt;" style="ellipse;whiteSpace=wrap;html=1;aspect=fixed;strokeColor=none;fillColor=#FF0000;" parent="1" vertex="1">
          <mxGeometry x="120" y="720" width="40" height="40" as="geometry" />
        </mxCell>
        <mxCell id="rvQk6iIPXBQ3tCGbkrqs-16" value="&lt;font color=&quot;#ffffff&quot;&gt;U&lt;/font&gt;" style="ellipse;whiteSpace=wrap;html=1;aspect=fixed;strokeColor=none;fillColor=#FF0000;" parent="1" vertex="1">
          <mxGeometry x="200" y="720" width="40" height="40" as="geometry" />
        </mxCell>
        <mxCell id="rvQk6iIPXBQ3tCGbkrqs-17" value="&lt;font color=&quot;#ffffff&quot;&gt;N&lt;/font&gt;" style="ellipse;whiteSpace=wrap;html=1;aspect=fixed;strokeColor=none;fillColor=#FF0000;" parent="1" vertex="1">
          <mxGeometry x="80" y="800" width="40" height="40" as="geometry" />
        </mxCell>
        <mxCell id="rvQk6iIPXBQ3tCGbkrqs-36" value="&lt;font style=&quot;font-size: 16px;&quot;&gt;情况3：父节点、叔叔节点改为黑色，爷爷节点改为红色，N = G继续类似改动，&lt;br&gt;直到根节点。若最后根节点修改成了红色，需要再次修改为黑色。&lt;br&gt;&lt;/font&gt;" style="text;html=1;align=center;verticalAlign=middle;resizable=0;points=[];autosize=1;strokeColor=none;fillColor=none;" parent="1" vertex="1">
          <mxGeometry x="80" y="570" width="590" height="50" as="geometry" />
        </mxCell>
        <mxCell id="rvQk6iIPXBQ3tCGbkrqs-38" value="" style="endArrow=none;dashed=1;html=1;strokeWidth=2;rounded=0;strokeColor=#E6D0DE;" parent="1" edge="1">
          <mxGeometry width="50" height="50" relative="1" as="geometry">
            <mxPoint x="80.25" y="940" as="sourcePoint" />
            <mxPoint x="760.25" y="940" as="targetPoint" />
          </mxGeometry>
        </mxCell>
        <mxCell id="Y49pG0PhkSJmo9Slld95-130" style="edgeStyle=none;shape=connector;rounded=0;orthogonalLoop=1;jettySize=auto;html=1;exitX=0.5;exitY=1;exitDx=0;exitDy=0;entryX=0.5;entryY=0;entryDx=0;entryDy=0;labelBackgroundColor=default;strokeColor=default;align=center;verticalAlign=middle;fontFamily=Helvetica;fontSize=11;fontColor=default;endArrow=classic;" parent="1" source="rvQk6iIPXBQ3tCGbkrqs-40" target="rvQk6iIPXBQ3tCGbkrqs-41" edge="1">
          <mxGeometry relative="1" as="geometry" />
        </mxCell>
        <mxCell id="Y49pG0PhkSJmo9Slld95-131" style="edgeStyle=none;shape=connector;rounded=0;orthogonalLoop=1;jettySize=auto;html=1;exitX=0.5;exitY=1;exitDx=0;exitDy=0;entryX=0.5;entryY=0;entryDx=0;entryDy=0;labelBackgroundColor=default;strokeColor=default;align=center;verticalAlign=middle;fontFamily=Helvetica;fontSize=11;fontColor=default;endArrow=classic;" parent="1" source="rvQk6iIPXBQ3tCGbkrqs-40" target="rvQk6iIPXBQ3tCGbkrqs-43" edge="1">
          <mxGeometry relative="1" as="geometry" />
        </mxCell>
        <mxCell id="rvQk6iIPXBQ3tCGbkrqs-40" value="&lt;font color=&quot;#ffffff&quot;&gt;G&lt;/font&gt;" style="ellipse;whiteSpace=wrap;html=1;aspect=fixed;strokeColor=none;fillColor=#000000;" parent="1" vertex="1">
          <mxGeometry x="160.25" y="1040" width="40" height="40" as="geometry" />
        </mxCell>
        <mxCell id="Y49pG0PhkSJmo9Slld95-137" style="edgeStyle=none;shape=connector;rounded=0;orthogonalLoop=1;jettySize=auto;html=1;exitX=0.5;exitY=1;exitDx=0;exitDy=0;entryX=0.5;entryY=0;entryDx=0;entryDy=0;labelBackgroundColor=default;strokeColor=default;align=center;verticalAlign=middle;fontFamily=Helvetica;fontSize=11;fontColor=default;endArrow=classic;" parent="1" source="rvQk6iIPXBQ3tCGbkrqs-41" target="rvQk6iIPXBQ3tCGbkrqs-45" edge="1">
          <mxGeometry relative="1" as="geometry" />
        </mxCell>
        <mxCell id="Y49pG0PhkSJmo9Slld95-158" style="edgeStyle=none;shape=connector;rounded=0;orthogonalLoop=1;jettySize=auto;html=1;exitX=0.5;exitY=1;exitDx=0;exitDy=0;entryX=0.5;entryY=0;entryDx=0;entryDy=0;labelBackgroundColor=default;strokeColor=default;align=center;verticalAlign=middle;fontFamily=Helvetica;fontSize=11;fontColor=default;endArrow=classic;" parent="1" source="rvQk6iIPXBQ3tCGbkrqs-41" target="Y49pG0PhkSJmo9Slld95-157" edge="1">
          <mxGeometry relative="1" as="geometry" />
        </mxCell>
        <mxCell id="rvQk6iIPXBQ3tCGbkrqs-41" value="&lt;font color=&quot;#ffffff&quot;&gt;P&lt;/font&gt;" style="ellipse;whiteSpace=wrap;html=1;aspect=fixed;strokeColor=none;fillColor=#FF0000;" parent="1" vertex="1">
          <mxGeometry x="120.25" y="1120" width="40" height="40" as="geometry" />
        </mxCell>
        <mxCell id="rvQk6iIPXBQ3tCGbkrqs-43" value="&lt;font color=&quot;#ffffff&quot;&gt;U&lt;/font&gt;" style="ellipse;whiteSpace=wrap;html=1;aspect=fixed;strokeColor=none;fillColor=#000000;" parent="1" vertex="1">
          <mxGeometry x="200.25" y="1120" width="40" height="40" as="geometry" />
        </mxCell>
        <mxCell id="Y49pG0PhkSJmo9Slld95-153" style="edgeStyle=none;shape=connector;rounded=0;orthogonalLoop=1;jettySize=auto;html=1;exitX=0.5;exitY=1;exitDx=0;exitDy=0;entryX=0.5;entryY=0;entryDx=0;entryDy=0;labelBackgroundColor=default;strokeColor=default;align=center;verticalAlign=middle;fontFamily=Helvetica;fontSize=11;fontColor=default;endArrow=classic;" parent="1" source="rvQk6iIPXBQ3tCGbkrqs-45" target="Y49pG0PhkSJmo9Slld95-141" edge="1">
          <mxGeometry relative="1" as="geometry" />
        </mxCell>
        <mxCell id="Y49pG0PhkSJmo9Slld95-155" style="edgeStyle=none;shape=connector;rounded=0;orthogonalLoop=1;jettySize=auto;html=1;exitX=0.5;exitY=1;exitDx=0;exitDy=0;entryX=0.5;entryY=0;entryDx=0;entryDy=0;labelBackgroundColor=default;strokeColor=default;align=center;verticalAlign=middle;fontFamily=Helvetica;fontSize=11;fontColor=default;endArrow=classic;" parent="1" source="rvQk6iIPXBQ3tCGbkrqs-45" target="Y49pG0PhkSJmo9Slld95-150" edge="1">
          <mxGeometry relative="1" as="geometry" />
        </mxCell>
        <mxCell id="rvQk6iIPXBQ3tCGbkrqs-45" value="&lt;font color=&quot;#ffffff&quot;&gt;N&lt;/font&gt;" style="ellipse;whiteSpace=wrap;html=1;aspect=fixed;strokeColor=none;fillColor=#FF0000;" parent="1" vertex="1">
          <mxGeometry x="80.25" y="1200" width="40" height="40" as="geometry" />
        </mxCell>
        <mxCell id="rvQk6iIPXBQ3tCGbkrqs-63" value="&lt;font style=&quot;font-size: 16px;&quot;&gt;情况4-1(LL)：父节点是爷爷的左子节点，插入节点也是父节点的左子节点。&lt;br&gt;父节点、爷爷节点颜色互换，爷爷节点右旋。&lt;br&gt;&lt;/font&gt;" style="text;html=1;align=center;verticalAlign=middle;resizable=0;points=[];autosize=1;strokeColor=none;fillColor=none;" parent="1" vertex="1">
          <mxGeometry x="80.25" y="970" width="560" height="50" as="geometry" />
        </mxCell>
        <mxCell id="rvQk6iIPXBQ3tCGbkrqs-64" value="" style="endArrow=none;dashed=1;html=1;strokeWidth=2;rounded=0;strokeColor=#E6D0DE;" parent="1" edge="1">
          <mxGeometry width="50" height="50" relative="1" as="geometry">
            <mxPoint x="80" y="1340" as="sourcePoint" />
            <mxPoint x="760" y="1340" as="targetPoint" />
          </mxGeometry>
        </mxCell>
        <mxCell id="rvQk6iIPXBQ3tCGbkrqs-109" value="&lt;font style=&quot;font-size: 16px;&quot;&gt;情况4-2(LR)：父节点是爷爷的左子节点，插入节点是父节点的右子节点。&lt;br&gt;父节点左旋，再按照LL的情况处理即可。&lt;br&gt;&lt;/font&gt;" style="text;html=1;align=center;verticalAlign=middle;resizable=0;points=[];autosize=1;strokeColor=none;fillColor=none;" parent="1" vertex="1">
          <mxGeometry x="80" y="1370" width="540" height="50" as="geometry" />
        </mxCell>
        <mxCell id="rvQk6iIPXBQ3tCGbkrqs-110" value="" style="endArrow=none;dashed=1;html=1;strokeWidth=2;rounded=0;strokeColor=#E6D0DE;" parent="1" edge="1">
          <mxGeometry width="50" height="50" relative="1" as="geometry">
            <mxPoint x="81" y="1740" as="sourcePoint" />
            <mxPoint x="761" y="1740" as="targetPoint" />
          </mxGeometry>
        </mxCell>
        <mxCell id="Y49pG0PhkSJmo9Slld95-320" style="edgeStyle=none;shape=connector;rounded=0;orthogonalLoop=1;jettySize=auto;html=1;exitX=0.5;exitY=1;exitDx=0;exitDy=0;entryX=0.5;entryY=0;entryDx=0;entryDy=0;labelBackgroundColor=default;strokeColor=default;align=center;verticalAlign=middle;fontFamily=Helvetica;fontSize=11;fontColor=default;endArrow=classic;" parent="1" source="rvQk6iIPXBQ3tCGbkrqs-112" target="rvQk6iIPXBQ3tCGbkrqs-113" edge="1">
          <mxGeometry relative="1" as="geometry" />
        </mxCell>
        <mxCell id="Y49pG0PhkSJmo9Slld95-321" style="edgeStyle=none;shape=connector;rounded=0;orthogonalLoop=1;jettySize=auto;html=1;exitX=0.5;exitY=1;exitDx=0;exitDy=0;entryX=0.5;entryY=0;entryDx=0;entryDy=0;labelBackgroundColor=default;strokeColor=default;align=center;verticalAlign=middle;fontFamily=Helvetica;fontSize=11;fontColor=default;endArrow=classic;" parent="1" source="rvQk6iIPXBQ3tCGbkrqs-112" target="rvQk6iIPXBQ3tCGbkrqs-115" edge="1">
          <mxGeometry relative="1" as="geometry" />
        </mxCell>
        <mxCell id="rvQk6iIPXBQ3tCGbkrqs-112" value="&lt;font color=&quot;#ffffff&quot;&gt;G&lt;/font&gt;" style="ellipse;whiteSpace=wrap;html=1;aspect=fixed;strokeColor=none;fillColor=#000000;" parent="1" vertex="1">
          <mxGeometry x="120" y="1840" width="40" height="40" as="geometry" />
        </mxCell>
        <mxCell id="rvQk6iIPXBQ3tCGbkrqs-113" value="&lt;font color=&quot;#ffffff&quot;&gt;U&lt;/font&gt;" style="ellipse;whiteSpace=wrap;html=1;aspect=fixed;strokeColor=none;fillColor=#000000;" parent="1" vertex="1">
          <mxGeometry x="80" y="1920" width="40" height="40" as="geometry" />
        </mxCell>
        <mxCell id="Y49pG0PhkSJmo9Slld95-322" style="edgeStyle=none;shape=connector;rounded=0;orthogonalLoop=1;jettySize=auto;html=1;exitX=0.5;exitY=1;exitDx=0;exitDy=0;entryX=0.5;entryY=0;entryDx=0;entryDy=0;labelBackgroundColor=default;strokeColor=default;align=center;verticalAlign=middle;fontFamily=Helvetica;fontSize=11;fontColor=default;endArrow=classic;" parent="1" source="rvQk6iIPXBQ3tCGbkrqs-115" target="rvQk6iIPXBQ3tCGbkrqs-117" edge="1">
          <mxGeometry relative="1" as="geometry" />
        </mxCell>
        <mxCell id="Y49pG0PhkSJmo9Slld95-325" style="edgeStyle=none;shape=connector;rounded=0;orthogonalLoop=1;jettySize=auto;html=1;exitX=0.5;exitY=1;exitDx=0;exitDy=0;entryX=0.5;entryY=0;entryDx=0;entryDy=0;labelBackgroundColor=default;strokeColor=default;align=center;verticalAlign=middle;fontFamily=Helvetica;fontSize=11;fontColor=default;endArrow=classic;" parent="1" source="rvQk6iIPXBQ3tCGbkrqs-115" target="Y49pG0PhkSJmo9Slld95-324" edge="1">
          <mxGeometry relative="1" as="geometry" />
        </mxCell>
        <mxCell id="rvQk6iIPXBQ3tCGbkrqs-115" value="&lt;font color=&quot;#ffffff&quot;&gt;P&lt;/font&gt;" style="ellipse;whiteSpace=wrap;html=1;aspect=fixed;strokeColor=none;fillColor=#FF0000;" parent="1" vertex="1">
          <mxGeometry x="160" y="1920" width="40" height="40" as="geometry" />
        </mxCell>
        <mxCell id="Y49pG0PhkSJmo9Slld95-330" style="edgeStyle=none;shape=connector;rounded=0;orthogonalLoop=1;jettySize=auto;html=1;exitX=0.5;exitY=1;exitDx=0;exitDy=0;entryX=0.5;entryY=0;entryDx=0;entryDy=0;labelBackgroundColor=default;strokeColor=default;align=center;verticalAlign=middle;fontFamily=Helvetica;fontSize=11;fontColor=default;endArrow=classic;" parent="1" source="rvQk6iIPXBQ3tCGbkrqs-117" target="Y49pG0PhkSJmo9Slld95-327" edge="1">
          <mxGeometry relative="1" as="geometry" />
        </mxCell>
        <mxCell id="Y49pG0PhkSJmo9Slld95-331" style="edgeStyle=none;shape=connector;rounded=0;orthogonalLoop=1;jettySize=auto;html=1;exitX=0.5;exitY=1;exitDx=0;exitDy=0;entryX=0.5;entryY=0;entryDx=0;entryDy=0;labelBackgroundColor=default;strokeColor=default;align=center;verticalAlign=middle;fontFamily=Helvetica;fontSize=11;fontColor=default;endArrow=classic;" parent="1" source="rvQk6iIPXBQ3tCGbkrqs-117" target="Y49pG0PhkSJmo9Slld95-329" edge="1">
          <mxGeometry relative="1" as="geometry" />
        </mxCell>
        <mxCell id="rvQk6iIPXBQ3tCGbkrqs-117" value="&lt;font color=&quot;#ffffff&quot;&gt;N&lt;/font&gt;" style="ellipse;whiteSpace=wrap;html=1;aspect=fixed;strokeColor=none;fillColor=#FF0000;" parent="1" vertex="1">
          <mxGeometry x="200" y="2000" width="40" height="40" as="geometry" />
        </mxCell>
        <mxCell id="rvQk6iIPXBQ3tCGbkrqs-136" value="&lt;font style=&quot;font-size: 16px;&quot;&gt;情况4-3(RR)：父节点是爷爷的右子节点，插入节点也是父节点的右子节点。&lt;br&gt;父节点、爷爷节点颜色互换，爷爷节点左旋。&lt;br&gt;&lt;/font&gt;" style="text;html=1;align=center;verticalAlign=middle;resizable=0;points=[];autosize=1;strokeColor=none;fillColor=none;" parent="1" vertex="1">
          <mxGeometry x="80.25" y="1770" width="560" height="50" as="geometry" />
        </mxCell>
        <mxCell id="rvQk6iIPXBQ3tCGbkrqs-137" value="" style="endArrow=none;dashed=1;html=1;strokeWidth=2;rounded=0;strokeColor=#E6D0DE;" parent="1" edge="1">
          <mxGeometry width="50" height="50" relative="1" as="geometry">
            <mxPoint x="81" y="2140" as="sourcePoint" />
            <mxPoint x="761" y="2140" as="targetPoint" />
          </mxGeometry>
        </mxCell>
        <mxCell id="rvQk6iIPXBQ3tCGbkrqs-170" value="&lt;font style=&quot;font-size: 16px;&quot;&gt;情况4-4(RL)：父节点是爷爷的右子节点，插入节点是父节点的左子节点。&lt;br&gt;父节点右旋，再按照RR的情况处理即可。&lt;br&gt;&lt;/font&gt;" style="text;html=1;align=center;verticalAlign=middle;resizable=0;points=[];autosize=1;strokeColor=none;fillColor=none;" parent="1" vertex="1">
          <mxGeometry x="80" y="2170" width="540" height="50" as="geometry" />
        </mxCell>
        <mxCell id="Y49pG0PhkSJmo9Slld95-1" value="&lt;font style=&quot;font-size: 13px;&quot;&gt;说明：N - 插入节点，P - N的父节点，G - N的爷爷节点，U - N的叔叔节点。&lt;/font&gt;" style="text;html=1;align=center;verticalAlign=middle;resizable=0;points=[];autosize=1;strokeColor=none;fillColor=none;" parent="1" vertex="1">
          <mxGeometry x="80" y="10" width="460" height="30" as="geometry" />
        </mxCell>
        <mxCell id="Y49pG0PhkSJmo9Slld95-14" value="：NULL节点（黑色）" style="text;html=1;align=center;verticalAlign=middle;resizable=0;points=[];autosize=1;strokeColor=none;fillColor=none;" parent="1" vertex="1">
          <mxGeometry x="120" y="50.13" width="140" height="30" as="geometry" />
        </mxCell>
        <mxCell id="Y49pG0PhkSJmo9Slld95-15" value="：黑色非NULL节点，意味着其下还有NULL节点，这里不再画出" style="text;html=1;align=center;verticalAlign=middle;resizable=0;points=[];autosize=1;strokeColor=none;fillColor=none;" parent="1" vertex="1">
          <mxGeometry x="320" y="49.38" width="360" height="30" as="geometry" />
        </mxCell>
        <mxCell id="Y49pG0PhkSJmo9Slld95-33" value="&lt;div style=&quot;&quot;&gt;&lt;br&gt;&lt;/div&gt;" style="verticalLabelPosition=middle;verticalAlign=middle;html=1;shape=mxgraph.basic.acute_triangle;dx=0.5;fontFamily=Helvetica;fontSize=11;fontColor=#FFFFFF;horizontal=1;labelPosition=center;align=center;fillColor=#000000;" parent="1" vertex="1">
          <mxGeometry x="87.5" y="49.38" width="25" height="30" as="geometry" />
        </mxCell>
        <mxCell id="Y49pG0PhkSJmo9Slld95-51" value="&lt;div style=&quot;&quot;&gt;1&lt;/div&gt;" style="verticalLabelPosition=middle;verticalAlign=middle;html=1;shape=mxgraph.basic.acute_triangle;dx=0.5;fontFamily=Helvetica;fontSize=11;fontColor=#FFFFFF;horizontal=1;labelPosition=center;align=center;fillColor=#000000;" parent="1" vertex="1">
          <mxGeometry x="287.5" y="210" width="25" height="30" as="geometry" />
        </mxCell>
        <mxCell id="Y49pG0PhkSJmo9Slld95-52" value="&lt;div style=&quot;&quot;&gt;2&lt;/div&gt;" style="verticalLabelPosition=middle;verticalAlign=middle;html=1;shape=mxgraph.basic.acute_triangle;dx=0.5;fontFamily=Helvetica;fontSize=11;fontColor=#FFFFFF;horizontal=1;labelPosition=center;align=center;fillColor=#000000;" parent="1" vertex="1">
          <mxGeometry x="369" y="210" width="25" height="30" as="geometry" />
        </mxCell>
        <mxCell id="Y49pG0PhkSJmo9Slld95-53" value="&lt;div style=&quot;&quot;&gt;1&lt;/div&gt;" style="verticalLabelPosition=middle;verticalAlign=middle;html=1;shape=mxgraph.basic.acute_triangle;dx=0.5;fontFamily=Helvetica;fontSize=11;fontColor=#FFFFFF;horizontal=1;labelPosition=center;align=center;fillColor=#000000;" parent="1" vertex="1">
          <mxGeometry x="447.5" y="210" width="25" height="30" as="geometry" />
        </mxCell>
        <mxCell id="Y49pG0PhkSJmo9Slld95-55" value="&lt;div style=&quot;&quot;&gt;2&lt;/div&gt;" style="verticalLabelPosition=middle;verticalAlign=middle;html=1;shape=mxgraph.basic.acute_triangle;dx=0.5;fontFamily=Helvetica;fontSize=11;fontColor=#FFFFFF;horizontal=1;labelPosition=center;align=center;fillColor=#000000;" parent="1" vertex="1">
          <mxGeometry x="527.5" y="210" width="25" height="30" as="geometry" />
        </mxCell>
        <mxCell id="Y49pG0PhkSJmo9Slld95-56" style="edgeStyle=none;shape=connector;rounded=0;orthogonalLoop=1;jettySize=auto;html=1;exitX=0.5;exitY=1;exitDx=0;exitDy=0;entryX=0;entryY=0;entryDx=12.5;entryDy=0;entryPerimeter=0;labelBackgroundColor=default;strokeColor=default;align=center;verticalAlign=middle;fontFamily=Helvetica;fontSize=11;fontColor=default;endArrow=classic;" parent="1" source="rvQk6iIPXBQ3tCGbkrqs-1" target="Y49pG0PhkSJmo9Slld95-51" edge="1">
          <mxGeometry relative="1" as="geometry" />
        </mxCell>
        <mxCell id="Y49pG0PhkSJmo9Slld95-57" style="edgeStyle=none;shape=connector;rounded=0;orthogonalLoop=1;jettySize=auto;html=1;exitX=0.5;exitY=1;exitDx=0;exitDy=0;entryX=0;entryY=0;entryDx=12.5;entryDy=0;entryPerimeter=0;labelBackgroundColor=default;strokeColor=default;align=center;verticalAlign=middle;fontFamily=Helvetica;fontSize=11;fontColor=default;endArrow=classic;" parent="1" source="rvQk6iIPXBQ3tCGbkrqs-1" target="Y49pG0PhkSJmo9Slld95-52" edge="1">
          <mxGeometry relative="1" as="geometry" />
        </mxCell>
        <mxCell id="Y49pG0PhkSJmo9Slld95-58" style="edgeStyle=none;shape=connector;rounded=0;orthogonalLoop=1;jettySize=auto;html=1;exitX=0.5;exitY=1;exitDx=0;exitDy=0;entryX=0;entryY=0;entryDx=12.5;entryDy=0;entryPerimeter=0;labelBackgroundColor=default;strokeColor=default;align=center;verticalAlign=middle;fontFamily=Helvetica;fontSize=11;fontColor=default;endArrow=classic;" parent="1" source="rvQk6iIPXBQ3tCGbkrqs-3" target="Y49pG0PhkSJmo9Slld95-53" edge="1">
          <mxGeometry relative="1" as="geometry" />
        </mxCell>
        <mxCell id="Y49pG0PhkSJmo9Slld95-59" style="edgeStyle=none;shape=connector;rounded=0;orthogonalLoop=1;jettySize=auto;html=1;exitX=0.5;exitY=1;exitDx=0;exitDy=0;entryX=0;entryY=0;entryDx=12.5;entryDy=0;entryPerimeter=0;labelBackgroundColor=default;strokeColor=default;align=center;verticalAlign=middle;fontFamily=Helvetica;fontSize=11;fontColor=default;endArrow=classic;" parent="1" source="rvQk6iIPXBQ3tCGbkrqs-3" target="Y49pG0PhkSJmo9Slld95-55" edge="1">
          <mxGeometry relative="1" as="geometry" />
        </mxCell>
        <mxCell id="Y49pG0PhkSJmo9Slld95-60" value="&lt;div style=&quot;&quot;&gt;3&lt;/div&gt;" style="verticalLabelPosition=middle;verticalAlign=middle;html=1;shape=mxgraph.basic.acute_triangle;dx=0.5;fontFamily=Helvetica;fontSize=11;fontColor=#FFFFFF;horizontal=1;labelPosition=center;align=center;fillColor=#000000;" parent="1" vertex="1">
          <mxGeometry x="447.5" y="410" width="25" height="30" as="geometry" />
        </mxCell>
        <mxCell id="Y49pG0PhkSJmo9Slld95-63" style="edgeStyle=none;shape=connector;rounded=0;orthogonalLoop=1;jettySize=auto;html=1;exitX=0.5;exitY=1;exitDx=0;exitDy=0;entryX=0;entryY=0;entryDx=12.5;entryDy=0;entryPerimeter=0;labelBackgroundColor=default;strokeColor=default;align=center;verticalAlign=middle;fontFamily=Helvetica;fontSize=11;fontColor=default;endArrow=classic;" parent="1" source="rvQk6iIPXBQ3tCGbkrqs-7" target="Y49pG0PhkSJmo9Slld95-60" edge="1">
          <mxGeometry relative="1" as="geometry" />
        </mxCell>
        <mxCell id="Y49pG0PhkSJmo9Slld95-64" value="&lt;div style=&quot;&quot;&gt;1&lt;/div&gt;" style="verticalLabelPosition=middle;verticalAlign=middle;html=1;shape=mxgraph.basic.acute_triangle;dx=0.5;fontFamily=Helvetica;fontSize=11;fontColor=#FFFFFF;horizontal=1;labelPosition=center;align=center;fillColor=#000000;" parent="1" vertex="1">
          <mxGeometry x="325" y="490" width="25" height="30" as="geometry" />
        </mxCell>
        <mxCell id="Y49pG0PhkSJmo9Slld95-65" value="&lt;div style=&quot;&quot;&gt;2&lt;/div&gt;" style="verticalLabelPosition=middle;verticalAlign=middle;html=1;shape=mxgraph.basic.acute_triangle;dx=0.5;fontFamily=Helvetica;fontSize=11;fontColor=#FFFFFF;horizontal=1;labelPosition=center;align=center;fillColor=#000000;" parent="1" vertex="1">
          <mxGeometry x="407.5" y="490" width="25" height="30" as="geometry" />
        </mxCell>
        <mxCell id="Y49pG0PhkSJmo9Slld95-66" style="edgeStyle=none;shape=connector;rounded=0;orthogonalLoop=1;jettySize=auto;html=1;exitX=0.5;exitY=1;exitDx=0;exitDy=0;entryX=0;entryY=0;entryDx=12.5;entryDy=0;entryPerimeter=0;labelBackgroundColor=default;strokeColor=default;align=center;verticalAlign=middle;fontFamily=Helvetica;fontSize=11;fontColor=default;endArrow=classic;" parent="1" source="rvQk6iIPXBQ3tCGbkrqs-8" target="Y49pG0PhkSJmo9Slld95-64" edge="1">
          <mxGeometry relative="1" as="geometry" />
        </mxCell>
        <mxCell id="Y49pG0PhkSJmo9Slld95-67" style="edgeStyle=none;shape=connector;rounded=0;orthogonalLoop=1;jettySize=auto;html=1;exitX=0.5;exitY=1;exitDx=0;exitDy=0;entryX=0;entryY=0;entryDx=12.5;entryDy=0;entryPerimeter=0;labelBackgroundColor=default;strokeColor=default;align=center;verticalAlign=middle;fontFamily=Helvetica;fontSize=11;fontColor=default;endArrow=classic;" parent="1" source="rvQk6iIPXBQ3tCGbkrqs-8" target="Y49pG0PhkSJmo9Slld95-65" edge="1">
          <mxGeometry relative="1" as="geometry" />
        </mxCell>
        <mxCell id="Y49pG0PhkSJmo9Slld95-68" value="" style="shape=singleArrow;whiteSpace=wrap;html=1;arrowWidth=0.4;arrowSize=0.4;fillColor=#99FFFF;strokeColor=none;" parent="1" vertex="1">
          <mxGeometry x="400" y="160" width="40" height="40" as="geometry" />
        </mxCell>
        <mxCell id="Y49pG0PhkSJmo9Slld95-77" value="&lt;div style=&quot;&quot;&gt;4&lt;/div&gt;" style="verticalLabelPosition=middle;verticalAlign=middle;html=1;shape=mxgraph.basic.acute_triangle;dx=0.5;fontFamily=Helvetica;fontSize=11;fontColor=#FFFFFF;horizontal=1;labelPosition=center;align=center;fillColor=#000000;" parent="1" vertex="1">
          <mxGeometry x="187" y="810" width="25" height="30" as="geometry" />
        </mxCell>
        <mxCell id="Y49pG0PhkSJmo9Slld95-78" value="&lt;div style=&quot;&quot;&gt;5&lt;/div&gt;" style="verticalLabelPosition=middle;verticalAlign=middle;html=1;shape=mxgraph.basic.acute_triangle;dx=0.5;fontFamily=Helvetica;fontSize=11;fontColor=#FFFFFF;horizontal=1;labelPosition=center;align=center;fillColor=#000000;" parent="1" vertex="1">
          <mxGeometry x="227.5" y="810" width="25" height="30" as="geometry" />
        </mxCell>
        <mxCell id="Y49pG0PhkSJmo9Slld95-79" value="&lt;div style=&quot;&quot;&gt;3&lt;/div&gt;" style="verticalLabelPosition=middle;verticalAlign=middle;html=1;shape=mxgraph.basic.acute_triangle;dx=0.5;fontFamily=Helvetica;fontSize=11;fontColor=#FFFFFF;horizontal=1;labelPosition=center;align=center;fillColor=#000000;" parent="1" vertex="1">
          <mxGeometry x="147.5" y="810" width="25" height="30" as="geometry" />
        </mxCell>
        <mxCell id="Y49pG0PhkSJmo9Slld95-81" style="edgeStyle=none;shape=connector;rounded=0;orthogonalLoop=1;jettySize=auto;html=1;exitX=0.5;exitY=1;exitDx=0;exitDy=0;entryX=0;entryY=0;entryDx=12.5;entryDy=0;entryPerimeter=0;labelBackgroundColor=default;strokeColor=default;align=center;verticalAlign=middle;fontFamily=Helvetica;fontSize=11;fontColor=default;endArrow=classic;" parent="1" source="rvQk6iIPXBQ3tCGbkrqs-15" target="Y49pG0PhkSJmo9Slld95-79" edge="1">
          <mxGeometry relative="1" as="geometry" />
        </mxCell>
        <mxCell id="Y49pG0PhkSJmo9Slld95-82" style="edgeStyle=none;shape=connector;rounded=0;orthogonalLoop=1;jettySize=auto;html=1;exitX=0.5;exitY=1;exitDx=0;exitDy=0;entryX=0;entryY=0;entryDx=12.5;entryDy=0;entryPerimeter=0;labelBackgroundColor=default;strokeColor=default;align=center;verticalAlign=middle;fontFamily=Helvetica;fontSize=11;fontColor=default;endArrow=classic;" parent="1" source="rvQk6iIPXBQ3tCGbkrqs-16" target="Y49pG0PhkSJmo9Slld95-77" edge="1">
          <mxGeometry relative="1" as="geometry" />
        </mxCell>
        <mxCell id="Y49pG0PhkSJmo9Slld95-83" style="edgeStyle=none;shape=connector;rounded=0;orthogonalLoop=1;jettySize=auto;html=1;exitX=0.5;exitY=1;exitDx=0;exitDy=0;entryX=0;entryY=0;entryDx=12.5;entryDy=0;entryPerimeter=0;labelBackgroundColor=default;strokeColor=default;align=center;verticalAlign=middle;fontFamily=Helvetica;fontSize=11;fontColor=default;endArrow=classic;" parent="1" source="rvQk6iIPXBQ3tCGbkrqs-16" target="Y49pG0PhkSJmo9Slld95-78" edge="1">
          <mxGeometry relative="1" as="geometry" />
        </mxCell>
        <mxCell id="Y49pG0PhkSJmo9Slld95-84" value="&lt;div style=&quot;&quot;&gt;1&lt;/div&gt;" style="verticalLabelPosition=middle;verticalAlign=middle;html=1;shape=mxgraph.basic.acute_triangle;dx=0.5;fontFamily=Helvetica;fontSize=11;fontColor=#FFFFFF;horizontal=1;labelPosition=center;align=center;fillColor=#000000;" parent="1" vertex="1">
          <mxGeometry x="47" y="890" width="25" height="30" as="geometry" />
        </mxCell>
        <mxCell id="Y49pG0PhkSJmo9Slld95-85" value="&lt;div style=&quot;&quot;&gt;2&lt;/div&gt;" style="verticalLabelPosition=middle;verticalAlign=middle;html=1;shape=mxgraph.basic.acute_triangle;dx=0.5;fontFamily=Helvetica;fontSize=11;fontColor=#FFFFFF;horizontal=1;labelPosition=center;align=center;fillColor=#000000;" parent="1" vertex="1">
          <mxGeometry x="127.5" y="890" width="25" height="30" as="geometry" />
        </mxCell>
        <mxCell id="Y49pG0PhkSJmo9Slld95-87" style="edgeStyle=none;shape=connector;rounded=0;orthogonalLoop=1;jettySize=auto;html=1;exitX=0.5;exitY=1;exitDx=0;exitDy=0;entryX=0;entryY=0;entryDx=12.5;entryDy=0;entryPerimeter=0;labelBackgroundColor=default;strokeColor=default;align=center;verticalAlign=middle;fontFamily=Helvetica;fontSize=11;fontColor=default;endArrow=classic;" parent="1" source="rvQk6iIPXBQ3tCGbkrqs-17" target="Y49pG0PhkSJmo9Slld95-84" edge="1">
          <mxGeometry relative="1" as="geometry" />
        </mxCell>
        <mxCell id="Y49pG0PhkSJmo9Slld95-88" style="edgeStyle=none;shape=connector;rounded=0;orthogonalLoop=1;jettySize=auto;html=1;exitX=0.5;exitY=1;exitDx=0;exitDy=0;entryX=0;entryY=0;entryDx=12.5;entryDy=0;entryPerimeter=0;labelBackgroundColor=default;strokeColor=default;align=center;verticalAlign=middle;fontFamily=Helvetica;fontSize=11;fontColor=default;endArrow=classic;" parent="1" source="rvQk6iIPXBQ3tCGbkrqs-17" target="Y49pG0PhkSJmo9Slld95-85" edge="1">
          <mxGeometry relative="1" as="geometry" />
        </mxCell>
        <mxCell id="Y49pG0PhkSJmo9Slld95-89" style="edgeStyle=none;shape=connector;rounded=0;orthogonalLoop=1;jettySize=auto;html=1;exitX=0.5;exitY=1;exitDx=0;exitDy=0;entryX=0.5;entryY=0;entryDx=0;entryDy=0;labelBackgroundColor=default;strokeColor=default;align=center;verticalAlign=middle;fontFamily=Helvetica;fontSize=11;fontColor=default;endArrow=classic;" parent="1" source="Y49pG0PhkSJmo9Slld95-91" target="Y49pG0PhkSJmo9Slld95-93" edge="1">
          <mxGeometry relative="1" as="geometry" />
        </mxCell>
        <mxCell id="Y49pG0PhkSJmo9Slld95-90" style="edgeStyle=none;shape=connector;rounded=0;orthogonalLoop=1;jettySize=auto;html=1;exitX=0.5;exitY=1;exitDx=0;exitDy=0;entryX=0.5;entryY=0;entryDx=0;entryDy=0;labelBackgroundColor=default;strokeColor=default;align=center;verticalAlign=middle;fontFamily=Helvetica;fontSize=11;fontColor=default;endArrow=classic;" parent="1" source="Y49pG0PhkSJmo9Slld95-91" target="Y49pG0PhkSJmo9Slld95-94" edge="1">
          <mxGeometry relative="1" as="geometry" />
        </mxCell>
        <mxCell id="Y49pG0PhkSJmo9Slld95-91" value="&lt;font color=&quot;#ffffff&quot;&gt;G&lt;/font&gt;" style="ellipse;whiteSpace=wrap;html=1;aspect=fixed;strokeColor=none;fillColor=#FF0000;" parent="1" vertex="1">
          <mxGeometry x="440" y="640" width="40" height="40" as="geometry" />
        </mxCell>
        <mxCell id="Y49pG0PhkSJmo9Slld95-92" style="edgeStyle=none;shape=connector;rounded=0;orthogonalLoop=1;jettySize=auto;html=1;exitX=0.5;exitY=1;exitDx=0;exitDy=0;entryX=0.5;entryY=0;entryDx=0;entryDy=0;labelBackgroundColor=default;strokeColor=default;align=center;verticalAlign=middle;fontFamily=Helvetica;fontSize=11;fontColor=default;endArrow=classic;" parent="1" source="Y49pG0PhkSJmo9Slld95-93" target="Y49pG0PhkSJmo9Slld95-95" edge="1">
          <mxGeometry relative="1" as="geometry" />
        </mxCell>
        <mxCell id="Y49pG0PhkSJmo9Slld95-93" value="&lt;font color=&quot;#ffffff&quot;&gt;P&lt;/font&gt;" style="ellipse;whiteSpace=wrap;html=1;aspect=fixed;strokeColor=none;fillColor=#000000;" parent="1" vertex="1">
          <mxGeometry x="400" y="720" width="40" height="40" as="geometry" />
        </mxCell>
        <mxCell id="Y49pG0PhkSJmo9Slld95-94" value="&lt;font color=&quot;#ffffff&quot;&gt;U&lt;/font&gt;" style="ellipse;whiteSpace=wrap;html=1;aspect=fixed;strokeColor=none;fillColor=#000000;" parent="1" vertex="1">
          <mxGeometry x="480" y="720" width="40" height="40" as="geometry" />
        </mxCell>
        <mxCell id="Y49pG0PhkSJmo9Slld95-95" value="&lt;font color=&quot;#ffffff&quot;&gt;N&lt;/font&gt;" style="ellipse;whiteSpace=wrap;html=1;aspect=fixed;strokeColor=none;fillColor=#FF0000;" parent="1" vertex="1">
          <mxGeometry x="360" y="800" width="40" height="40" as="geometry" />
        </mxCell>
        <mxCell id="Y49pG0PhkSJmo9Slld95-96" value="&lt;div style=&quot;&quot;&gt;4&lt;/div&gt;" style="verticalLabelPosition=middle;verticalAlign=middle;html=1;shape=mxgraph.basic.acute_triangle;dx=0.5;fontFamily=Helvetica;fontSize=11;fontColor=#FFFFFF;horizontal=1;labelPosition=center;align=center;fillColor=#000000;" parent="1" vertex="1">
          <mxGeometry x="467" y="810" width="25" height="30" as="geometry" />
        </mxCell>
        <mxCell id="Y49pG0PhkSJmo9Slld95-97" value="&lt;div style=&quot;&quot;&gt;5&lt;/div&gt;" style="verticalLabelPosition=middle;verticalAlign=middle;html=1;shape=mxgraph.basic.acute_triangle;dx=0.5;fontFamily=Helvetica;fontSize=11;fontColor=#FFFFFF;horizontal=1;labelPosition=center;align=center;fillColor=#000000;" parent="1" vertex="1">
          <mxGeometry x="507.5" y="810" width="25" height="30" as="geometry" />
        </mxCell>
        <mxCell id="Y49pG0PhkSJmo9Slld95-98" value="&lt;div style=&quot;&quot;&gt;3&lt;/div&gt;" style="verticalLabelPosition=middle;verticalAlign=middle;html=1;shape=mxgraph.basic.acute_triangle;dx=0.5;fontFamily=Helvetica;fontSize=11;fontColor=#FFFFFF;horizontal=1;labelPosition=center;align=center;fillColor=#000000;" parent="1" vertex="1">
          <mxGeometry x="427.5" y="810" width="25" height="30" as="geometry" />
        </mxCell>
        <mxCell id="Y49pG0PhkSJmo9Slld95-99" style="edgeStyle=none;shape=connector;rounded=0;orthogonalLoop=1;jettySize=auto;html=1;exitX=0.5;exitY=1;exitDx=0;exitDy=0;entryX=0;entryY=0;entryDx=12.5;entryDy=0;entryPerimeter=0;labelBackgroundColor=default;strokeColor=default;align=center;verticalAlign=middle;fontFamily=Helvetica;fontSize=11;fontColor=default;endArrow=classic;" parent="1" source="Y49pG0PhkSJmo9Slld95-93" target="Y49pG0PhkSJmo9Slld95-98" edge="1">
          <mxGeometry relative="1" as="geometry" />
        </mxCell>
        <mxCell id="Y49pG0PhkSJmo9Slld95-100" style="edgeStyle=none;shape=connector;rounded=0;orthogonalLoop=1;jettySize=auto;html=1;exitX=0.5;exitY=1;exitDx=0;exitDy=0;entryX=0;entryY=0;entryDx=12.5;entryDy=0;entryPerimeter=0;labelBackgroundColor=default;strokeColor=default;align=center;verticalAlign=middle;fontFamily=Helvetica;fontSize=11;fontColor=default;endArrow=classic;" parent="1" source="Y49pG0PhkSJmo9Slld95-94" target="Y49pG0PhkSJmo9Slld95-96" edge="1">
          <mxGeometry relative="1" as="geometry" />
        </mxCell>
        <mxCell id="Y49pG0PhkSJmo9Slld95-101" style="edgeStyle=none;shape=connector;rounded=0;orthogonalLoop=1;jettySize=auto;html=1;exitX=0.5;exitY=1;exitDx=0;exitDy=0;entryX=0;entryY=0;entryDx=12.5;entryDy=0;entryPerimeter=0;labelBackgroundColor=default;strokeColor=default;align=center;verticalAlign=middle;fontFamily=Helvetica;fontSize=11;fontColor=default;endArrow=classic;" parent="1" source="Y49pG0PhkSJmo9Slld95-94" target="Y49pG0PhkSJmo9Slld95-97" edge="1">
          <mxGeometry relative="1" as="geometry" />
        </mxCell>
        <mxCell id="Y49pG0PhkSJmo9Slld95-102" value="&lt;div style=&quot;&quot;&gt;1&lt;/div&gt;" style="verticalLabelPosition=middle;verticalAlign=middle;html=1;shape=mxgraph.basic.acute_triangle;dx=0.5;fontFamily=Helvetica;fontSize=11;fontColor=#FFFFFF;horizontal=1;labelPosition=center;align=center;fillColor=#000000;" parent="1" vertex="1">
          <mxGeometry x="327" y="890" width="25" height="30" as="geometry" />
        </mxCell>
        <mxCell id="Y49pG0PhkSJmo9Slld95-103" value="&lt;div style=&quot;&quot;&gt;2&lt;/div&gt;" style="verticalLabelPosition=middle;verticalAlign=middle;html=1;shape=mxgraph.basic.acute_triangle;dx=0.5;fontFamily=Helvetica;fontSize=11;fontColor=#FFFFFF;horizontal=1;labelPosition=center;align=center;fillColor=#000000;" parent="1" vertex="1">
          <mxGeometry x="407.5" y="890" width="25" height="30" as="geometry" />
        </mxCell>
        <mxCell id="Y49pG0PhkSJmo9Slld95-104" style="edgeStyle=none;shape=connector;rounded=0;orthogonalLoop=1;jettySize=auto;html=1;exitX=0.5;exitY=1;exitDx=0;exitDy=0;entryX=0;entryY=0;entryDx=12.5;entryDy=0;entryPerimeter=0;labelBackgroundColor=default;strokeColor=default;align=center;verticalAlign=middle;fontFamily=Helvetica;fontSize=11;fontColor=default;endArrow=classic;" parent="1" source="Y49pG0PhkSJmo9Slld95-95" target="Y49pG0PhkSJmo9Slld95-102" edge="1">
          <mxGeometry relative="1" as="geometry" />
        </mxCell>
        <mxCell id="Y49pG0PhkSJmo9Slld95-105" style="edgeStyle=none;shape=connector;rounded=0;orthogonalLoop=1;jettySize=auto;html=1;exitX=0.5;exitY=1;exitDx=0;exitDy=0;entryX=0;entryY=0;entryDx=12.5;entryDy=0;entryPerimeter=0;labelBackgroundColor=default;strokeColor=default;align=center;verticalAlign=middle;fontFamily=Helvetica;fontSize=11;fontColor=default;endArrow=classic;" parent="1" source="Y49pG0PhkSJmo9Slld95-95" target="Y49pG0PhkSJmo9Slld95-103" edge="1">
          <mxGeometry relative="1" as="geometry" />
        </mxCell>
        <mxCell id="Y49pG0PhkSJmo9Slld95-106" style="edgeStyle=none;shape=connector;rounded=0;orthogonalLoop=1;jettySize=auto;html=1;exitX=0.5;exitY=1;exitDx=0;exitDy=0;entryX=0.5;entryY=0;entryDx=0;entryDy=0;labelBackgroundColor=default;strokeColor=default;align=center;verticalAlign=middle;fontFamily=Helvetica;fontSize=11;fontColor=default;endArrow=classic;" parent="1" source="Y49pG0PhkSJmo9Slld95-108" target="Y49pG0PhkSJmo9Slld95-110" edge="1">
          <mxGeometry relative="1" as="geometry" />
        </mxCell>
        <mxCell id="Y49pG0PhkSJmo9Slld95-107" style="edgeStyle=none;shape=connector;rounded=0;orthogonalLoop=1;jettySize=auto;html=1;exitX=0.5;exitY=1;exitDx=0;exitDy=0;entryX=0.5;entryY=0;entryDx=0;entryDy=0;labelBackgroundColor=default;strokeColor=default;align=center;verticalAlign=middle;fontFamily=Helvetica;fontSize=11;fontColor=default;endArrow=classic;" parent="1" source="Y49pG0PhkSJmo9Slld95-108" target="Y49pG0PhkSJmo9Slld95-111" edge="1">
          <mxGeometry relative="1" as="geometry" />
        </mxCell>
        <mxCell id="Y49pG0PhkSJmo9Slld95-108" value="&lt;font color=&quot;#ffffff&quot;&gt;G&lt;/font&gt;" style="ellipse;whiteSpace=wrap;html=1;aspect=fixed;strokeColor=none;fillColor=#000000;" parent="1" vertex="1">
          <mxGeometry x="720.25" y="640" width="40" height="40" as="geometry" />
        </mxCell>
        <mxCell id="Y49pG0PhkSJmo9Slld95-109" style="edgeStyle=none;shape=connector;rounded=0;orthogonalLoop=1;jettySize=auto;html=1;exitX=0.5;exitY=1;exitDx=0;exitDy=0;entryX=0.5;entryY=0;entryDx=0;entryDy=0;labelBackgroundColor=default;strokeColor=default;align=center;verticalAlign=middle;fontFamily=Helvetica;fontSize=11;fontColor=default;endArrow=classic;" parent="1" source="Y49pG0PhkSJmo9Slld95-110" target="Y49pG0PhkSJmo9Slld95-112" edge="1">
          <mxGeometry relative="1" as="geometry" />
        </mxCell>
        <mxCell id="Y49pG0PhkSJmo9Slld95-110" value="&lt;font color=&quot;#ffffff&quot;&gt;P&lt;/font&gt;" style="ellipse;whiteSpace=wrap;html=1;aspect=fixed;strokeColor=none;fillColor=#000000;" parent="1" vertex="1">
          <mxGeometry x="680.25" y="720" width="40" height="40" as="geometry" />
        </mxCell>
        <mxCell id="Y49pG0PhkSJmo9Slld95-111" value="&lt;font color=&quot;#ffffff&quot;&gt;U&lt;/font&gt;" style="ellipse;whiteSpace=wrap;html=1;aspect=fixed;strokeColor=none;fillColor=#000000;" parent="1" vertex="1">
          <mxGeometry x="760.25" y="720" width="40" height="40" as="geometry" />
        </mxCell>
        <mxCell id="Y49pG0PhkSJmo9Slld95-112" value="&lt;font color=&quot;#ffffff&quot;&gt;N&lt;/font&gt;" style="ellipse;whiteSpace=wrap;html=1;aspect=fixed;strokeColor=none;fillColor=#FF0000;" parent="1" vertex="1">
          <mxGeometry x="640.25" y="800" width="40" height="40" as="geometry" />
        </mxCell>
        <mxCell id="Y49pG0PhkSJmo9Slld95-113" value="&lt;div style=&quot;&quot;&gt;4&lt;/div&gt;" style="verticalLabelPosition=middle;verticalAlign=middle;html=1;shape=mxgraph.basic.acute_triangle;dx=0.5;fontFamily=Helvetica;fontSize=11;fontColor=#FFFFFF;horizontal=1;labelPosition=center;align=center;fillColor=#000000;" parent="1" vertex="1">
          <mxGeometry x="747.25" y="810" width="25" height="30" as="geometry" />
        </mxCell>
        <mxCell id="Y49pG0PhkSJmo9Slld95-114" value="&lt;div style=&quot;&quot;&gt;5&lt;/div&gt;" style="verticalLabelPosition=middle;verticalAlign=middle;html=1;shape=mxgraph.basic.acute_triangle;dx=0.5;fontFamily=Helvetica;fontSize=11;fontColor=#FFFFFF;horizontal=1;labelPosition=center;align=center;fillColor=#000000;" parent="1" vertex="1">
          <mxGeometry x="787.75" y="810" width="25" height="30" as="geometry" />
        </mxCell>
        <mxCell id="Y49pG0PhkSJmo9Slld95-115" value="&lt;div style=&quot;&quot;&gt;3&lt;/div&gt;" style="verticalLabelPosition=middle;verticalAlign=middle;html=1;shape=mxgraph.basic.acute_triangle;dx=0.5;fontFamily=Helvetica;fontSize=11;fontColor=#FFFFFF;horizontal=1;labelPosition=center;align=center;fillColor=#000000;" parent="1" vertex="1">
          <mxGeometry x="707.75" y="810" width="25" height="30" as="geometry" />
        </mxCell>
        <mxCell id="Y49pG0PhkSJmo9Slld95-116" style="edgeStyle=none;shape=connector;rounded=0;orthogonalLoop=1;jettySize=auto;html=1;exitX=0.5;exitY=1;exitDx=0;exitDy=0;entryX=0;entryY=0;entryDx=12.5;entryDy=0;entryPerimeter=0;labelBackgroundColor=default;strokeColor=default;align=center;verticalAlign=middle;fontFamily=Helvetica;fontSize=11;fontColor=default;endArrow=classic;" parent="1" source="Y49pG0PhkSJmo9Slld95-110" target="Y49pG0PhkSJmo9Slld95-115" edge="1">
          <mxGeometry relative="1" as="geometry" />
        </mxCell>
        <mxCell id="Y49pG0PhkSJmo9Slld95-117" style="edgeStyle=none;shape=connector;rounded=0;orthogonalLoop=1;jettySize=auto;html=1;exitX=0.5;exitY=1;exitDx=0;exitDy=0;entryX=0;entryY=0;entryDx=12.5;entryDy=0;entryPerimeter=0;labelBackgroundColor=default;strokeColor=default;align=center;verticalAlign=middle;fontFamily=Helvetica;fontSize=11;fontColor=default;endArrow=classic;" parent="1" source="Y49pG0PhkSJmo9Slld95-111" target="Y49pG0PhkSJmo9Slld95-113" edge="1">
          <mxGeometry relative="1" as="geometry" />
        </mxCell>
        <mxCell id="Y49pG0PhkSJmo9Slld95-118" style="edgeStyle=none;shape=connector;rounded=0;orthogonalLoop=1;jettySize=auto;html=1;exitX=0.5;exitY=1;exitDx=0;exitDy=0;entryX=0;entryY=0;entryDx=12.5;entryDy=0;entryPerimeter=0;labelBackgroundColor=default;strokeColor=default;align=center;verticalAlign=middle;fontFamily=Helvetica;fontSize=11;fontColor=default;endArrow=classic;" parent="1" source="Y49pG0PhkSJmo9Slld95-111" target="Y49pG0PhkSJmo9Slld95-114" edge="1">
          <mxGeometry relative="1" as="geometry" />
        </mxCell>
        <mxCell id="Y49pG0PhkSJmo9Slld95-119" value="&lt;div style=&quot;&quot;&gt;1&lt;/div&gt;" style="verticalLabelPosition=middle;verticalAlign=middle;html=1;shape=mxgraph.basic.acute_triangle;dx=0.5;fontFamily=Helvetica;fontSize=11;fontColor=#FFFFFF;horizontal=1;labelPosition=center;align=center;fillColor=#000000;" parent="1" vertex="1">
          <mxGeometry x="607.25" y="890" width="25" height="30" as="geometry" />
        </mxCell>
        <mxCell id="Y49pG0PhkSJmo9Slld95-120" value="&lt;div style=&quot;&quot;&gt;2&lt;/div&gt;" style="verticalLabelPosition=middle;verticalAlign=middle;html=1;shape=mxgraph.basic.acute_triangle;dx=0.5;fontFamily=Helvetica;fontSize=11;fontColor=#FFFFFF;horizontal=1;labelPosition=center;align=center;fillColor=#000000;" parent="1" vertex="1">
          <mxGeometry x="687.75" y="890" width="25" height="30" as="geometry" />
        </mxCell>
        <mxCell id="Y49pG0PhkSJmo9Slld95-121" style="edgeStyle=none;shape=connector;rounded=0;orthogonalLoop=1;jettySize=auto;html=1;exitX=0.5;exitY=1;exitDx=0;exitDy=0;entryX=0;entryY=0;entryDx=12.5;entryDy=0;entryPerimeter=0;labelBackgroundColor=default;strokeColor=default;align=center;verticalAlign=middle;fontFamily=Helvetica;fontSize=11;fontColor=default;endArrow=classic;" parent="1" source="Y49pG0PhkSJmo9Slld95-112" target="Y49pG0PhkSJmo9Slld95-119" edge="1">
          <mxGeometry relative="1" as="geometry" />
        </mxCell>
        <mxCell id="Y49pG0PhkSJmo9Slld95-122" style="edgeStyle=none;shape=connector;rounded=0;orthogonalLoop=1;jettySize=auto;html=1;exitX=0.5;exitY=1;exitDx=0;exitDy=0;entryX=0;entryY=0;entryDx=12.5;entryDy=0;entryPerimeter=0;labelBackgroundColor=default;strokeColor=default;align=center;verticalAlign=middle;fontFamily=Helvetica;fontSize=11;fontColor=default;endArrow=classic;" parent="1" source="Y49pG0PhkSJmo9Slld95-112" target="Y49pG0PhkSJmo9Slld95-120" edge="1">
          <mxGeometry relative="1" as="geometry" />
        </mxCell>
        <mxCell id="Y49pG0PhkSJmo9Slld95-125" value="" style="shape=singleArrow;whiteSpace=wrap;html=1;arrowWidth=0.4;arrowSize=0.4;fillColor=#99FFFF;strokeColor=none;" parent="1" vertex="1">
          <mxGeometry x="279.99" y="760" width="40.01" height="40" as="geometry" />
        </mxCell>
        <mxCell id="Y49pG0PhkSJmo9Slld95-126" value="" style="shape=singleArrow;whiteSpace=wrap;html=1;arrowWidth=0.4;arrowSize=0.4;fillColor=#99FFFF;strokeColor=none;" parent="1" vertex="1">
          <mxGeometry x="559.99" y="760" width="40.01" height="40" as="geometry" />
        </mxCell>
        <mxCell id="Y49pG0PhkSJmo9Slld95-127" value="" style="shape=singleArrow;whiteSpace=wrap;html=1;arrowWidth=0.4;arrowSize=0.4;fillColor=#99FFFF;strokeColor=none;" parent="1" vertex="1">
          <mxGeometry x="279.99" y="1160" width="40.01" height="40" as="geometry" />
        </mxCell>
        <mxCell id="Y49pG0PhkSJmo9Slld95-128" value="&lt;div style=&quot;&quot;&gt;4&lt;/div&gt;" style="verticalLabelPosition=middle;verticalAlign=middle;html=1;shape=mxgraph.basic.acute_triangle;dx=0.5;fontFamily=Helvetica;fontSize=11;fontColor=#FFFFFF;horizontal=1;labelPosition=center;align=center;fillColor=#000000;" parent="1" vertex="1">
          <mxGeometry x="187" y="1210" width="25" height="30" as="geometry" />
        </mxCell>
        <mxCell id="Y49pG0PhkSJmo9Slld95-129" value="&lt;div style=&quot;&quot;&gt;5&lt;/div&gt;" style="verticalLabelPosition=middle;verticalAlign=middle;html=1;shape=mxgraph.basic.acute_triangle;dx=0.5;fontFamily=Helvetica;fontSize=11;fontColor=#FFFFFF;horizontal=1;labelPosition=center;align=center;fillColor=#000000;" parent="1" vertex="1">
          <mxGeometry x="227.5" y="1210" width="25" height="30" as="geometry" />
        </mxCell>
        <mxCell id="Y49pG0PhkSJmo9Slld95-138" style="edgeStyle=none;shape=connector;rounded=0;orthogonalLoop=1;jettySize=auto;html=1;exitX=0.5;exitY=1;exitDx=0;exitDy=0;entryX=0;entryY=0;entryDx=12.5;entryDy=0;entryPerimeter=0;labelBackgroundColor=default;strokeColor=default;align=center;verticalAlign=middle;fontFamily=Helvetica;fontSize=11;fontColor=default;endArrow=classic;" parent="1" source="rvQk6iIPXBQ3tCGbkrqs-43" target="Y49pG0PhkSJmo9Slld95-128" edge="1">
          <mxGeometry relative="1" as="geometry" />
        </mxCell>
        <mxCell id="Y49pG0PhkSJmo9Slld95-139" style="edgeStyle=none;shape=connector;rounded=0;orthogonalLoop=1;jettySize=auto;html=1;exitX=0.5;exitY=1;exitDx=0;exitDy=0;entryX=0;entryY=0;entryDx=12.5;entryDy=0;entryPerimeter=0;labelBackgroundColor=default;strokeColor=default;align=center;verticalAlign=middle;fontFamily=Helvetica;fontSize=11;fontColor=default;endArrow=classic;" parent="1" source="rvQk6iIPXBQ3tCGbkrqs-43" target="Y49pG0PhkSJmo9Slld95-129" edge="1">
          <mxGeometry relative="1" as="geometry" />
        </mxCell>
        <mxCell id="Y49pG0PhkSJmo9Slld95-141" value="" style="ellipse;whiteSpace=wrap;html=1;aspect=fixed;fillColor=#000000;" parent="1" vertex="1">
          <mxGeometry x="53" y="1286" width="15" height="15" as="geometry" />
        </mxCell>
        <mxCell id="Y49pG0PhkSJmo9Slld95-150" value="" style="ellipse;whiteSpace=wrap;html=1;aspect=fixed;fillColor=#000000;" parent="1" vertex="1">
          <mxGeometry x="133" y="1286" width="15" height="15" as="geometry" />
        </mxCell>
        <mxCell id="Y49pG0PhkSJmo9Slld95-157" value="" style="ellipse;whiteSpace=wrap;html=1;aspect=fixed;fillColor=#000000;" parent="1" vertex="1">
          <mxGeometry x="151" y="1206" width="15" height="15" as="geometry" />
        </mxCell>
        <mxCell id="Y49pG0PhkSJmo9Slld95-161" style="edgeStyle=none;shape=connector;rounded=0;orthogonalLoop=1;jettySize=auto;html=1;exitX=0.5;exitY=1;exitDx=0;exitDy=0;entryX=0.5;entryY=0;entryDx=0;entryDy=0;labelBackgroundColor=default;strokeColor=default;align=center;verticalAlign=middle;fontFamily=Helvetica;fontSize=11;fontColor=default;endArrow=classic;" parent="1" source="Y49pG0PhkSJmo9Slld95-163" target="Y49pG0PhkSJmo9Slld95-166" edge="1">
          <mxGeometry relative="1" as="geometry" />
        </mxCell>
        <mxCell id="Y49pG0PhkSJmo9Slld95-162" style="edgeStyle=none;shape=connector;rounded=0;orthogonalLoop=1;jettySize=auto;html=1;exitX=0.5;exitY=1;exitDx=0;exitDy=0;entryX=0.5;entryY=0;entryDx=0;entryDy=0;labelBackgroundColor=default;strokeColor=default;align=center;verticalAlign=middle;fontFamily=Helvetica;fontSize=11;fontColor=default;endArrow=classic;" parent="1" source="Y49pG0PhkSJmo9Slld95-163" target="Y49pG0PhkSJmo9Slld95-167" edge="1">
          <mxGeometry relative="1" as="geometry" />
        </mxCell>
        <mxCell id="Y49pG0PhkSJmo9Slld95-163" value="&lt;font color=&quot;#ffffff&quot;&gt;G&lt;/font&gt;" style="ellipse;whiteSpace=wrap;html=1;aspect=fixed;strokeColor=none;fillColor=#FF0000;" parent="1" vertex="1">
          <mxGeometry x="440.25" y="1040" width="40" height="40" as="geometry" />
        </mxCell>
        <mxCell id="Y49pG0PhkSJmo9Slld95-164" style="edgeStyle=none;shape=connector;rounded=0;orthogonalLoop=1;jettySize=auto;html=1;exitX=0.5;exitY=1;exitDx=0;exitDy=0;entryX=0.5;entryY=0;entryDx=0;entryDy=0;labelBackgroundColor=default;strokeColor=default;align=center;verticalAlign=middle;fontFamily=Helvetica;fontSize=11;fontColor=default;endArrow=classic;" parent="1" source="Y49pG0PhkSJmo9Slld95-166" target="Y49pG0PhkSJmo9Slld95-170" edge="1">
          <mxGeometry relative="1" as="geometry" />
        </mxCell>
        <mxCell id="Y49pG0PhkSJmo9Slld95-165" style="edgeStyle=none;shape=connector;rounded=0;orthogonalLoop=1;jettySize=auto;html=1;exitX=0.5;exitY=1;exitDx=0;exitDy=0;entryX=0.5;entryY=0;entryDx=0;entryDy=0;labelBackgroundColor=default;strokeColor=default;align=center;verticalAlign=middle;fontFamily=Helvetica;fontSize=11;fontColor=default;endArrow=classic;" parent="1" source="Y49pG0PhkSJmo9Slld95-166" target="Y49pG0PhkSJmo9Slld95-178" edge="1">
          <mxGeometry relative="1" as="geometry" />
        </mxCell>
        <mxCell id="Y49pG0PhkSJmo9Slld95-166" value="&lt;font color=&quot;#ffffff&quot;&gt;P&lt;/font&gt;" style="ellipse;whiteSpace=wrap;html=1;aspect=fixed;strokeColor=none;fillColor=#000000;" parent="1" vertex="1">
          <mxGeometry x="400.25" y="1120" width="40" height="40" as="geometry" />
        </mxCell>
        <mxCell id="Y49pG0PhkSJmo9Slld95-167" value="&lt;font color=&quot;#ffffff&quot;&gt;U&lt;/font&gt;" style="ellipse;whiteSpace=wrap;html=1;aspect=fixed;strokeColor=none;fillColor=#000000;" parent="1" vertex="1">
          <mxGeometry x="480.25" y="1120" width="40" height="40" as="geometry" />
        </mxCell>
        <mxCell id="Y49pG0PhkSJmo9Slld95-168" style="edgeStyle=none;shape=connector;rounded=0;orthogonalLoop=1;jettySize=auto;html=1;exitX=0.5;exitY=1;exitDx=0;exitDy=0;entryX=0.5;entryY=0;entryDx=0;entryDy=0;labelBackgroundColor=default;strokeColor=default;align=center;verticalAlign=middle;fontFamily=Helvetica;fontSize=11;fontColor=default;endArrow=classic;" parent="1" source="Y49pG0PhkSJmo9Slld95-170" target="Y49pG0PhkSJmo9Slld95-175" edge="1">
          <mxGeometry relative="1" as="geometry" />
        </mxCell>
        <mxCell id="Y49pG0PhkSJmo9Slld95-169" style="edgeStyle=none;shape=connector;rounded=0;orthogonalLoop=1;jettySize=auto;html=1;exitX=0.5;exitY=1;exitDx=0;exitDy=0;entryX=0.5;entryY=0;entryDx=0;entryDy=0;labelBackgroundColor=default;strokeColor=default;align=center;verticalAlign=middle;fontFamily=Helvetica;fontSize=11;fontColor=default;endArrow=classic;" parent="1" source="Y49pG0PhkSJmo9Slld95-170" target="Y49pG0PhkSJmo9Slld95-176" edge="1">
          <mxGeometry relative="1" as="geometry" />
        </mxCell>
        <mxCell id="Y49pG0PhkSJmo9Slld95-170" value="&lt;font color=&quot;#ffffff&quot;&gt;N&lt;/font&gt;" style="ellipse;whiteSpace=wrap;html=1;aspect=fixed;strokeColor=none;fillColor=#FF0000;" parent="1" vertex="1">
          <mxGeometry x="360.25" y="1200" width="40" height="40" as="geometry" />
        </mxCell>
        <mxCell id="Y49pG0PhkSJmo9Slld95-171" value="&lt;div style=&quot;&quot;&gt;4&lt;/div&gt;" style="verticalLabelPosition=middle;verticalAlign=middle;html=1;shape=mxgraph.basic.acute_triangle;dx=0.5;fontFamily=Helvetica;fontSize=11;fontColor=#FFFFFF;horizontal=1;labelPosition=center;align=center;fillColor=#000000;" parent="1" vertex="1">
          <mxGeometry x="467" y="1210" width="25" height="30" as="geometry" />
        </mxCell>
        <mxCell id="Y49pG0PhkSJmo9Slld95-172" value="&lt;div style=&quot;&quot;&gt;5&lt;/div&gt;" style="verticalLabelPosition=middle;verticalAlign=middle;html=1;shape=mxgraph.basic.acute_triangle;dx=0.5;fontFamily=Helvetica;fontSize=11;fontColor=#FFFFFF;horizontal=1;labelPosition=center;align=center;fillColor=#000000;" parent="1" vertex="1">
          <mxGeometry x="507.5" y="1210" width="25" height="30" as="geometry" />
        </mxCell>
        <mxCell id="Y49pG0PhkSJmo9Slld95-173" style="edgeStyle=none;shape=connector;rounded=0;orthogonalLoop=1;jettySize=auto;html=1;exitX=0.5;exitY=1;exitDx=0;exitDy=0;entryX=0;entryY=0;entryDx=12.5;entryDy=0;entryPerimeter=0;labelBackgroundColor=default;strokeColor=default;align=center;verticalAlign=middle;fontFamily=Helvetica;fontSize=11;fontColor=default;endArrow=classic;" parent="1" source="Y49pG0PhkSJmo9Slld95-167" target="Y49pG0PhkSJmo9Slld95-171" edge="1">
          <mxGeometry relative="1" as="geometry" />
        </mxCell>
        <mxCell id="Y49pG0PhkSJmo9Slld95-174" style="edgeStyle=none;shape=connector;rounded=0;orthogonalLoop=1;jettySize=auto;html=1;exitX=0.5;exitY=1;exitDx=0;exitDy=0;entryX=0;entryY=0;entryDx=12.5;entryDy=0;entryPerimeter=0;labelBackgroundColor=default;strokeColor=default;align=center;verticalAlign=middle;fontFamily=Helvetica;fontSize=11;fontColor=default;endArrow=classic;" parent="1" source="Y49pG0PhkSJmo9Slld95-167" target="Y49pG0PhkSJmo9Slld95-172" edge="1">
          <mxGeometry relative="1" as="geometry" />
        </mxCell>
        <mxCell id="Y49pG0PhkSJmo9Slld95-175" value="" style="ellipse;whiteSpace=wrap;html=1;aspect=fixed;fillColor=#000000;" parent="1" vertex="1">
          <mxGeometry x="333" y="1286" width="15" height="15" as="geometry" />
        </mxCell>
        <mxCell id="Y49pG0PhkSJmo9Slld95-176" value="" style="ellipse;whiteSpace=wrap;html=1;aspect=fixed;fillColor=#000000;" parent="1" vertex="1">
          <mxGeometry x="413" y="1286" width="15" height="15" as="geometry" />
        </mxCell>
        <mxCell id="Y49pG0PhkSJmo9Slld95-178" value="" style="ellipse;whiteSpace=wrap;html=1;aspect=fixed;fillColor=#000000;" parent="1" vertex="1">
          <mxGeometry x="431" y="1206" width="15" height="15" as="geometry" />
        </mxCell>
        <mxCell id="Y49pG0PhkSJmo9Slld95-149" value="2" style="verticalLabelPosition=middle;verticalAlign=middle;html=1;shape=mxgraph.basic.acute_triangle;dx=0.5;fontFamily=Helvetica;fontSize=11;fontColor=#FFFFFF;horizontal=1;labelPosition=center;align=center;fillColor=#000000;" parent="1" vertex="1">
          <mxGeometry x="128" y="1290" width="25" height="30" as="geometry" />
        </mxCell>
        <mxCell id="Y49pG0PhkSJmo9Slld95-156" value="3" style="verticalLabelPosition=middle;verticalAlign=middle;html=1;shape=mxgraph.basic.acute_triangle;dx=0.5;fontFamily=Helvetica;fontSize=11;fontColor=#FFFFFF;horizontal=1;labelPosition=center;align=center;fillColor=#000000;" parent="1" vertex="1">
          <mxGeometry x="146" y="1210" width="25" height="30" as="geometry" />
        </mxCell>
        <mxCell id="Y49pG0PhkSJmo9Slld95-160" value="1" style="verticalLabelPosition=middle;verticalAlign=middle;html=1;shape=mxgraph.basic.acute_triangle;dx=0.5;fontFamily=Helvetica;fontSize=11;fontColor=#FFFFFF;horizontal=1;labelPosition=center;align=center;fillColor=#000000;" parent="1" vertex="1">
          <mxGeometry x="328" y="1290" width="25" height="30" as="geometry" />
        </mxCell>
        <mxCell id="Y49pG0PhkSJmo9Slld95-159" value="&lt;font color=&quot;#ffffff&quot;&gt;2&lt;/font&gt;" style="verticalLabelPosition=middle;verticalAlign=middle;html=1;shape=mxgraph.basic.acute_triangle;dx=0.5;fontFamily=Helvetica;fontSize=11;fontColor=default;horizontal=1;labelPosition=center;align=center;fillColor=#000000;" parent="1" vertex="1">
          <mxGeometry x="408" y="1290" width="25" height="30" as="geometry" />
        </mxCell>
        <mxCell id="Y49pG0PhkSJmo9Slld95-177" value="&lt;font color=&quot;#ffffff&quot;&gt;3&lt;/font&gt;" style="verticalLabelPosition=middle;verticalAlign=middle;html=1;shape=mxgraph.basic.acute_triangle;dx=0.5;fontFamily=Helvetica;fontSize=11;fontColor=default;horizontal=1;labelPosition=center;align=center;fillColor=#000000;" parent="1" vertex="1">
          <mxGeometry x="426" y="1210" width="25" height="30" as="geometry" />
        </mxCell>
        <mxCell id="Y49pG0PhkSJmo9Slld95-181" style="edgeStyle=none;shape=connector;rounded=0;orthogonalLoop=1;jettySize=auto;html=1;exitX=0.5;exitY=1;exitDx=0;exitDy=0;entryX=0.5;entryY=0;entryDx=0;entryDy=0;labelBackgroundColor=default;strokeColor=default;align=center;verticalAlign=middle;fontFamily=Helvetica;fontSize=11;fontColor=default;endArrow=classic;" parent="1" source="Y49pG0PhkSJmo9Slld95-182" target="Y49pG0PhkSJmo9Slld95-186" edge="1">
          <mxGeometry relative="1" as="geometry" />
        </mxCell>
        <mxCell id="Y49pG0PhkSJmo9Slld95-203" style="edgeStyle=none;shape=connector;rounded=0;orthogonalLoop=1;jettySize=auto;html=1;exitX=0.5;exitY=1;exitDx=0;exitDy=0;entryX=0.5;entryY=0;entryDx=0;entryDy=0;labelBackgroundColor=default;strokeColor=default;align=center;verticalAlign=middle;fontFamily=Helvetica;fontSize=11;fontColor=default;endArrow=classic;" parent="1" source="Y49pG0PhkSJmo9Slld95-182" target="Y49pG0PhkSJmo9Slld95-196" edge="1">
          <mxGeometry relative="1" as="geometry" />
        </mxCell>
        <mxCell id="Y49pG0PhkSJmo9Slld95-182" value="&lt;font color=&quot;#ffffff&quot;&gt;G&lt;/font&gt;" style="ellipse;whiteSpace=wrap;html=1;aspect=fixed;strokeColor=none;fillColor=#FF0000;" parent="1" vertex="1">
          <mxGeometry x="681" y="1120" width="40" height="40" as="geometry" />
        </mxCell>
        <mxCell id="Y49pG0PhkSJmo9Slld95-183" style="edgeStyle=none;shape=connector;rounded=0;orthogonalLoop=1;jettySize=auto;html=1;exitX=0.5;exitY=1;exitDx=0;exitDy=0;entryX=0.5;entryY=0;entryDx=0;entryDy=0;labelBackgroundColor=default;strokeColor=default;align=center;verticalAlign=middle;fontFamily=Helvetica;fontSize=11;fontColor=default;endArrow=classic;" parent="1" source="Y49pG0PhkSJmo9Slld95-185" target="Y49pG0PhkSJmo9Slld95-189" edge="1">
          <mxGeometry relative="1" as="geometry" />
        </mxCell>
        <mxCell id="Y49pG0PhkSJmo9Slld95-201" style="edgeStyle=none;shape=connector;rounded=0;orthogonalLoop=1;jettySize=auto;html=1;exitX=0.5;exitY=1;exitDx=0;exitDy=0;entryX=0.5;entryY=0;entryDx=0;entryDy=0;labelBackgroundColor=default;strokeColor=default;align=center;verticalAlign=middle;fontFamily=Helvetica;fontSize=11;fontColor=default;endArrow=classic;" parent="1" source="Y49pG0PhkSJmo9Slld95-185" target="Y49pG0PhkSJmo9Slld95-182" edge="1">
          <mxGeometry relative="1" as="geometry" />
        </mxCell>
        <mxCell id="Y49pG0PhkSJmo9Slld95-185" value="&lt;font color=&quot;#ffffff&quot;&gt;P&lt;/font&gt;" style="ellipse;whiteSpace=wrap;html=1;aspect=fixed;strokeColor=none;fillColor=#000000;" parent="1" vertex="1">
          <mxGeometry x="640.25" y="1040" width="40" height="40" as="geometry" />
        </mxCell>
        <mxCell id="Y49pG0PhkSJmo9Slld95-186" value="&lt;font color=&quot;#ffffff&quot;&gt;U&lt;/font&gt;" style="ellipse;whiteSpace=wrap;html=1;aspect=fixed;strokeColor=none;fillColor=#000000;" parent="1" vertex="1">
          <mxGeometry x="721" y="1200" width="40" height="40" as="geometry" />
        </mxCell>
        <mxCell id="Y49pG0PhkSJmo9Slld95-187" style="edgeStyle=none;shape=connector;rounded=0;orthogonalLoop=1;jettySize=auto;html=1;exitX=0.5;exitY=1;exitDx=0;exitDy=0;entryX=0.5;entryY=0;entryDx=0;entryDy=0;labelBackgroundColor=default;strokeColor=default;align=center;verticalAlign=middle;fontFamily=Helvetica;fontSize=11;fontColor=default;endArrow=classic;" parent="1" source="Y49pG0PhkSJmo9Slld95-189" target="Y49pG0PhkSJmo9Slld95-194" edge="1">
          <mxGeometry relative="1" as="geometry" />
        </mxCell>
        <mxCell id="Y49pG0PhkSJmo9Slld95-188" style="edgeStyle=none;shape=connector;rounded=0;orthogonalLoop=1;jettySize=auto;html=1;exitX=0.5;exitY=1;exitDx=0;exitDy=0;entryX=0.5;entryY=0;entryDx=0;entryDy=0;labelBackgroundColor=default;strokeColor=default;align=center;verticalAlign=middle;fontFamily=Helvetica;fontSize=11;fontColor=default;endArrow=classic;" parent="1" source="Y49pG0PhkSJmo9Slld95-189" target="Y49pG0PhkSJmo9Slld95-195" edge="1">
          <mxGeometry relative="1" as="geometry" />
        </mxCell>
        <mxCell id="Y49pG0PhkSJmo9Slld95-189" value="&lt;font color=&quot;#ffffff&quot;&gt;N&lt;/font&gt;" style="ellipse;whiteSpace=wrap;html=1;aspect=fixed;strokeColor=none;fillColor=#FF0000;" parent="1" vertex="1">
          <mxGeometry x="600.25" y="1120" width="40" height="40" as="geometry" />
        </mxCell>
        <mxCell id="Y49pG0PhkSJmo9Slld95-190" value="&lt;div style=&quot;&quot;&gt;4&lt;/div&gt;" style="verticalLabelPosition=middle;verticalAlign=middle;html=1;shape=mxgraph.basic.acute_triangle;dx=0.5;fontFamily=Helvetica;fontSize=11;fontColor=#FFFFFF;horizontal=1;labelPosition=center;align=center;fillColor=#000000;" parent="1" vertex="1">
          <mxGeometry x="707.75" y="1290" width="25" height="30" as="geometry" />
        </mxCell>
        <mxCell id="Y49pG0PhkSJmo9Slld95-191" value="&lt;div style=&quot;&quot;&gt;5&lt;/div&gt;" style="verticalLabelPosition=middle;verticalAlign=middle;html=1;shape=mxgraph.basic.acute_triangle;dx=0.5;fontFamily=Helvetica;fontSize=11;fontColor=#FFFFFF;horizontal=1;labelPosition=center;align=center;fillColor=#000000;" parent="1" vertex="1">
          <mxGeometry x="748.25" y="1290" width="25" height="30" as="geometry" />
        </mxCell>
        <mxCell id="Y49pG0PhkSJmo9Slld95-192" style="edgeStyle=none;shape=connector;rounded=0;orthogonalLoop=1;jettySize=auto;html=1;exitX=0.5;exitY=1;exitDx=0;exitDy=0;entryX=0;entryY=0;entryDx=12.5;entryDy=0;entryPerimeter=0;labelBackgroundColor=default;strokeColor=default;align=center;verticalAlign=middle;fontFamily=Helvetica;fontSize=11;fontColor=default;endArrow=classic;" parent="1" source="Y49pG0PhkSJmo9Slld95-186" target="Y49pG0PhkSJmo9Slld95-190" edge="1">
          <mxGeometry relative="1" as="geometry" />
        </mxCell>
        <mxCell id="Y49pG0PhkSJmo9Slld95-193" style="edgeStyle=none;shape=connector;rounded=0;orthogonalLoop=1;jettySize=auto;html=1;exitX=0.5;exitY=1;exitDx=0;exitDy=0;entryX=0;entryY=0;entryDx=12.5;entryDy=0;entryPerimeter=0;labelBackgroundColor=default;strokeColor=default;align=center;verticalAlign=middle;fontFamily=Helvetica;fontSize=11;fontColor=default;endArrow=classic;" parent="1" source="Y49pG0PhkSJmo9Slld95-186" target="Y49pG0PhkSJmo9Slld95-191" edge="1">
          <mxGeometry relative="1" as="geometry" />
        </mxCell>
        <mxCell id="Y49pG0PhkSJmo9Slld95-194" value="" style="ellipse;whiteSpace=wrap;html=1;aspect=fixed;fillColor=#000000;" parent="1" vertex="1">
          <mxGeometry x="592" y="1206" width="15" height="15" as="geometry" />
        </mxCell>
        <mxCell id="Y49pG0PhkSJmo9Slld95-195" value="" style="ellipse;whiteSpace=wrap;html=1;aspect=fixed;fillColor=#000000;" parent="1" vertex="1">
          <mxGeometry x="633" y="1206" width="15" height="15" as="geometry" />
        </mxCell>
        <mxCell id="Y49pG0PhkSJmo9Slld95-196" value="" style="ellipse;whiteSpace=wrap;html=1;aspect=fixed;fillColor=#000000;" parent="1" vertex="1">
          <mxGeometry x="673.5" y="1206" width="15" height="15" as="geometry" />
        </mxCell>
        <mxCell id="Y49pG0PhkSJmo9Slld95-197" value="1" style="verticalLabelPosition=middle;verticalAlign=middle;html=1;shape=mxgraph.basic.acute_triangle;dx=0.5;fontFamily=Helvetica;fontSize=11;fontColor=#FFFFFF;horizontal=1;labelPosition=center;align=center;fillColor=#000000;" parent="1" vertex="1">
          <mxGeometry x="587" y="1210" width="25" height="30" as="geometry" />
        </mxCell>
        <mxCell id="Y49pG0PhkSJmo9Slld95-198" value="&lt;font color=&quot;#ffffff&quot;&gt;2&lt;/font&gt;" style="verticalLabelPosition=middle;verticalAlign=middle;html=1;shape=mxgraph.basic.acute_triangle;dx=0.5;fontFamily=Helvetica;fontSize=11;fontColor=default;horizontal=1;labelPosition=center;align=center;fillColor=#000000;" parent="1" vertex="1">
          <mxGeometry x="628" y="1210" width="25" height="30" as="geometry" />
        </mxCell>
        <mxCell id="Y49pG0PhkSJmo9Slld95-199" value="&lt;font color=&quot;#ffffff&quot;&gt;3&lt;/font&gt;" style="verticalLabelPosition=middle;verticalAlign=middle;html=1;shape=mxgraph.basic.acute_triangle;dx=0.5;fontFamily=Helvetica;fontSize=11;fontColor=default;horizontal=1;labelPosition=center;align=center;fillColor=#000000;" parent="1" vertex="1">
          <mxGeometry x="668.5" y="1210" width="25" height="30" as="geometry" />
        </mxCell>
        <mxCell id="Y49pG0PhkSJmo9Slld95-204" value="" style="shape=singleArrow;whiteSpace=wrap;html=1;arrowWidth=0.4;arrowSize=0.4;fillColor=#99FFFF;strokeColor=none;" parent="1" vertex="1">
          <mxGeometry x="540" y="1160" width="40.01" height="40" as="geometry" />
        </mxCell>
        <mxCell id="Y49pG0PhkSJmo9Slld95-206" value="2" style="verticalLabelPosition=middle;verticalAlign=middle;html=1;shape=mxgraph.basic.acute_triangle;dx=0.5;fontFamily=Helvetica;fontSize=11;fontColor=#FFFFFF;horizontal=1;labelPosition=center;align=center;fillColor=#000000;" parent="1" vertex="1">
          <mxGeometry x="66" y="1690" width="25" height="30" as="geometry" />
        </mxCell>
        <mxCell id="Y49pG0PhkSJmo9Slld95-207" style="edgeStyle=none;shape=connector;rounded=0;orthogonalLoop=1;jettySize=auto;html=1;exitX=0.5;exitY=1;exitDx=0;exitDy=0;entryX=0.5;entryY=0;entryDx=0;entryDy=0;labelBackgroundColor=default;strokeColor=default;align=center;verticalAlign=middle;fontFamily=Helvetica;fontSize=11;fontColor=default;endArrow=classic;" parent="1" source="Y49pG0PhkSJmo9Slld95-209" target="Y49pG0PhkSJmo9Slld95-212" edge="1">
          <mxGeometry relative="1" as="geometry" />
        </mxCell>
        <mxCell id="Y49pG0PhkSJmo9Slld95-208" style="edgeStyle=none;shape=connector;rounded=0;orthogonalLoop=1;jettySize=auto;html=1;exitX=0.5;exitY=1;exitDx=0;exitDy=0;entryX=0.5;entryY=0;entryDx=0;entryDy=0;labelBackgroundColor=default;strokeColor=default;align=center;verticalAlign=middle;fontFamily=Helvetica;fontSize=11;fontColor=default;endArrow=classic;" parent="1" source="Y49pG0PhkSJmo9Slld95-209" target="Y49pG0PhkSJmo9Slld95-213" edge="1">
          <mxGeometry relative="1" as="geometry" />
        </mxCell>
        <mxCell id="Y49pG0PhkSJmo9Slld95-209" value="&lt;font color=&quot;#ffffff&quot;&gt;G&lt;/font&gt;" style="ellipse;whiteSpace=wrap;html=1;aspect=fixed;strokeColor=none;fillColor=#000000;" parent="1" vertex="1">
          <mxGeometry x="120.25" y="1440" width="40" height="40" as="geometry" />
        </mxCell>
        <mxCell id="Y49pG0PhkSJmo9Slld95-226" style="edgeStyle=none;shape=connector;rounded=0;orthogonalLoop=1;jettySize=auto;html=1;exitX=0.5;exitY=1;exitDx=0;exitDy=0;entryX=0.5;entryY=0;entryDx=0;entryDy=0;labelBackgroundColor=default;strokeColor=default;align=center;verticalAlign=middle;fontFamily=Helvetica;fontSize=11;fontColor=default;endArrow=classic;" parent="1" source="Y49pG0PhkSJmo9Slld95-212" target="Y49pG0PhkSJmo9Slld95-216" edge="1">
          <mxGeometry relative="1" as="geometry" />
        </mxCell>
        <mxCell id="Y49pG0PhkSJmo9Slld95-227" style="edgeStyle=none;shape=connector;rounded=0;orthogonalLoop=1;jettySize=auto;html=1;exitX=0.5;exitY=1;exitDx=0;exitDy=0;entryX=0.5;entryY=0;entryDx=0;entryDy=0;labelBackgroundColor=default;strokeColor=default;align=center;verticalAlign=middle;fontFamily=Helvetica;fontSize=11;fontColor=default;endArrow=classic;" parent="1" source="Y49pG0PhkSJmo9Slld95-212" target="Y49pG0PhkSJmo9Slld95-223" edge="1">
          <mxGeometry relative="1" as="geometry" />
        </mxCell>
        <mxCell id="Y49pG0PhkSJmo9Slld95-212" value="&lt;font color=&quot;#ffffff&quot;&gt;P&lt;/font&gt;" style="ellipse;whiteSpace=wrap;html=1;aspect=fixed;strokeColor=none;fillColor=#FF0000;" parent="1" vertex="1">
          <mxGeometry x="40.25" y="1520" width="40" height="40" as="geometry" />
        </mxCell>
        <mxCell id="Y49pG0PhkSJmo9Slld95-213" value="&lt;font color=&quot;#ffffff&quot;&gt;U&lt;/font&gt;" style="ellipse;whiteSpace=wrap;html=1;aspect=fixed;strokeColor=none;fillColor=#000000;" parent="1" vertex="1">
          <mxGeometry x="160.75" y="1520" width="40" height="40" as="geometry" />
        </mxCell>
        <mxCell id="Y49pG0PhkSJmo9Slld95-214" style="edgeStyle=none;shape=connector;rounded=0;orthogonalLoop=1;jettySize=auto;html=1;exitX=0.5;exitY=1;exitDx=0;exitDy=0;entryX=0.5;entryY=0;entryDx=0;entryDy=0;labelBackgroundColor=default;strokeColor=default;align=center;verticalAlign=middle;fontFamily=Helvetica;fontSize=11;fontColor=default;endArrow=classic;" parent="1" source="Y49pG0PhkSJmo9Slld95-216" target="Y49pG0PhkSJmo9Slld95-221" edge="1">
          <mxGeometry relative="1" as="geometry" />
        </mxCell>
        <mxCell id="Y49pG0PhkSJmo9Slld95-215" style="edgeStyle=none;shape=connector;rounded=0;orthogonalLoop=1;jettySize=auto;html=1;exitX=0.5;exitY=1;exitDx=0;exitDy=0;entryX=0.5;entryY=0;entryDx=0;entryDy=0;labelBackgroundColor=default;strokeColor=default;align=center;verticalAlign=middle;fontFamily=Helvetica;fontSize=11;fontColor=default;endArrow=classic;" parent="1" source="Y49pG0PhkSJmo9Slld95-216" target="Y49pG0PhkSJmo9Slld95-222" edge="1">
          <mxGeometry relative="1" as="geometry" />
        </mxCell>
        <mxCell id="Y49pG0PhkSJmo9Slld95-216" value="&lt;font color=&quot;#ffffff&quot;&gt;N&lt;/font&gt;" style="ellipse;whiteSpace=wrap;html=1;aspect=fixed;strokeColor=none;fillColor=#FF0000;" parent="1" vertex="1">
          <mxGeometry x="80.25" y="1600" width="40" height="40" as="geometry" />
        </mxCell>
        <mxCell id="Y49pG0PhkSJmo9Slld95-217" value="&lt;div style=&quot;&quot;&gt;4&lt;/div&gt;" style="verticalLabelPosition=middle;verticalAlign=middle;html=1;shape=mxgraph.basic.acute_triangle;dx=0.5;fontFamily=Helvetica;fontSize=11;fontColor=#FFFFFF;horizontal=1;labelPosition=center;align=center;fillColor=#000000;" parent="1" vertex="1">
          <mxGeometry x="147.5" y="1610" width="25" height="30" as="geometry" />
        </mxCell>
        <mxCell id="Y49pG0PhkSJmo9Slld95-218" value="&lt;div style=&quot;&quot;&gt;5&lt;/div&gt;" style="verticalLabelPosition=middle;verticalAlign=middle;html=1;shape=mxgraph.basic.acute_triangle;dx=0.5;fontFamily=Helvetica;fontSize=11;fontColor=#FFFFFF;horizontal=1;labelPosition=center;align=center;fillColor=#000000;" parent="1" vertex="1">
          <mxGeometry x="188" y="1610" width="25" height="30" as="geometry" />
        </mxCell>
        <mxCell id="Y49pG0PhkSJmo9Slld95-219" style="edgeStyle=none;shape=connector;rounded=0;orthogonalLoop=1;jettySize=auto;html=1;exitX=0.5;exitY=1;exitDx=0;exitDy=0;entryX=0;entryY=0;entryDx=12.5;entryDy=0;entryPerimeter=0;labelBackgroundColor=default;strokeColor=default;align=center;verticalAlign=middle;fontFamily=Helvetica;fontSize=11;fontColor=default;endArrow=classic;" parent="1" source="Y49pG0PhkSJmo9Slld95-213" target="Y49pG0PhkSJmo9Slld95-217" edge="1">
          <mxGeometry relative="1" as="geometry" />
        </mxCell>
        <mxCell id="Y49pG0PhkSJmo9Slld95-220" style="edgeStyle=none;shape=connector;rounded=0;orthogonalLoop=1;jettySize=auto;html=1;exitX=0.5;exitY=1;exitDx=0;exitDy=0;entryX=0;entryY=0;entryDx=12.5;entryDy=0;entryPerimeter=0;labelBackgroundColor=default;strokeColor=default;align=center;verticalAlign=middle;fontFamily=Helvetica;fontSize=11;fontColor=default;endArrow=classic;" parent="1" source="Y49pG0PhkSJmo9Slld95-213" target="Y49pG0PhkSJmo9Slld95-218" edge="1">
          <mxGeometry relative="1" as="geometry" />
        </mxCell>
        <mxCell id="Y49pG0PhkSJmo9Slld95-221" value="" style="ellipse;whiteSpace=wrap;html=1;aspect=fixed;fillColor=#000000;" parent="1" vertex="1">
          <mxGeometry x="71" y="1686" width="15" height="15" as="geometry" />
        </mxCell>
        <mxCell id="Y49pG0PhkSJmo9Slld95-222" value="" style="ellipse;whiteSpace=wrap;html=1;aspect=fixed;fillColor=#000000;" parent="1" vertex="1">
          <mxGeometry x="114" y="1686" width="15" height="15" as="geometry" />
        </mxCell>
        <mxCell id="Y49pG0PhkSJmo9Slld95-223" value="" style="ellipse;whiteSpace=wrap;html=1;aspect=fixed;fillColor=#000000;" parent="1" vertex="1">
          <mxGeometry x="33" y="1606" width="15" height="15" as="geometry" />
        </mxCell>
        <mxCell id="Y49pG0PhkSJmo9Slld95-224" value="3" style="verticalLabelPosition=middle;verticalAlign=middle;html=1;shape=mxgraph.basic.acute_triangle;dx=0.5;fontFamily=Helvetica;fontSize=11;fontColor=#FFFFFF;horizontal=1;labelPosition=center;align=center;fillColor=#000000;" parent="1" vertex="1">
          <mxGeometry x="109" y="1690" width="25" height="30" as="geometry" />
        </mxCell>
        <mxCell id="Y49pG0PhkSJmo9Slld95-228" value="1" style="verticalLabelPosition=middle;verticalAlign=middle;html=1;shape=mxgraph.basic.acute_triangle;dx=0.5;fontFamily=Helvetica;fontSize=11;fontColor=#FFFFFF;horizontal=1;labelPosition=center;align=center;fillColor=#000000;" parent="1" vertex="1">
          <mxGeometry x="227" y="1690" width="25" height="30" as="geometry" />
        </mxCell>
        <mxCell id="Y49pG0PhkSJmo9Slld95-229" value="2" style="verticalLabelPosition=middle;verticalAlign=middle;html=1;shape=mxgraph.basic.acute_triangle;dx=0.5;fontFamily=Helvetica;fontSize=11;fontColor=#FFFFFF;horizontal=1;labelPosition=center;align=center;fillColor=#000000;" parent="1" vertex="1">
          <mxGeometry x="267.5" y="1690" width="25" height="30" as="geometry" />
        </mxCell>
        <mxCell id="Y49pG0PhkSJmo9Slld95-231" style="edgeStyle=none;shape=connector;rounded=0;orthogonalLoop=1;jettySize=auto;html=1;exitX=0.5;exitY=1;exitDx=0;exitDy=0;entryX=0.5;entryY=0;entryDx=0;entryDy=0;labelBackgroundColor=default;strokeColor=default;align=center;verticalAlign=middle;fontFamily=Helvetica;fontSize=11;fontColor=default;endArrow=classic;" parent="1" source="Y49pG0PhkSJmo9Slld95-232" target="Y49pG0PhkSJmo9Slld95-236" edge="1">
          <mxGeometry relative="1" as="geometry" />
        </mxCell>
        <mxCell id="Y49pG0PhkSJmo9Slld95-250" style="edgeStyle=none;shape=connector;rounded=0;orthogonalLoop=1;jettySize=auto;html=1;exitX=0.5;exitY=1;exitDx=0;exitDy=0;entryX=0.5;entryY=0;entryDx=0;entryDy=0;labelBackgroundColor=default;strokeColor=default;align=center;verticalAlign=middle;fontFamily=Helvetica;fontSize=11;fontColor=default;endArrow=classic;" parent="1" source="Y49pG0PhkSJmo9Slld95-232" target="Y49pG0PhkSJmo9Slld95-239" edge="1">
          <mxGeometry relative="1" as="geometry" />
        </mxCell>
        <mxCell id="Y49pG0PhkSJmo9Slld95-232" value="&lt;font color=&quot;#ffffff&quot;&gt;G&lt;/font&gt;" style="ellipse;whiteSpace=wrap;html=1;aspect=fixed;strokeColor=none;fillColor=#000000;" parent="1" vertex="1">
          <mxGeometry x="320.25" y="1440" width="40" height="40" as="geometry" />
        </mxCell>
        <mxCell id="Y49pG0PhkSJmo9Slld95-234" style="edgeStyle=none;shape=connector;rounded=0;orthogonalLoop=1;jettySize=auto;html=1;exitX=0.5;exitY=1;exitDx=0;exitDy=0;entryX=0.5;entryY=0;entryDx=0;entryDy=0;labelBackgroundColor=default;strokeColor=default;align=center;verticalAlign=middle;fontFamily=Helvetica;fontSize=11;fontColor=default;endArrow=classic;" parent="1" source="Y49pG0PhkSJmo9Slld95-235" target="Y49pG0PhkSJmo9Slld95-246" edge="1">
          <mxGeometry relative="1" as="geometry" />
        </mxCell>
        <mxCell id="Y49pG0PhkSJmo9Slld95-248" style="edgeStyle=none;shape=connector;rounded=0;orthogonalLoop=1;jettySize=auto;html=1;exitX=0.5;exitY=1;exitDx=0;exitDy=0;entryX=0.5;entryY=0;entryDx=0;entryDy=0;labelBackgroundColor=default;strokeColor=default;align=center;verticalAlign=middle;fontFamily=Helvetica;fontSize=11;fontColor=default;endArrow=classic;" parent="1" source="Y49pG0PhkSJmo9Slld95-235" target="Y49pG0PhkSJmo9Slld95-244" edge="1">
          <mxGeometry relative="1" as="geometry" />
        </mxCell>
        <mxCell id="Y49pG0PhkSJmo9Slld95-235" value="&lt;font color=&quot;#ffffff&quot;&gt;P&lt;/font&gt;" style="ellipse;whiteSpace=wrap;html=1;aspect=fixed;strokeColor=none;fillColor=#FF0000;" parent="1" vertex="1">
          <mxGeometry x="240.5" y="1600" width="40" height="40" as="geometry" />
        </mxCell>
        <mxCell id="Y49pG0PhkSJmo9Slld95-236" value="&lt;font color=&quot;#ffffff&quot;&gt;U&lt;/font&gt;" style="ellipse;whiteSpace=wrap;html=1;aspect=fixed;strokeColor=none;fillColor=#000000;" parent="1" vertex="1">
          <mxGeometry x="360.75" y="1520" width="40" height="40" as="geometry" />
        </mxCell>
        <mxCell id="Y49pG0PhkSJmo9Slld95-238" style="edgeStyle=none;shape=connector;rounded=0;orthogonalLoop=1;jettySize=auto;html=1;exitX=0.5;exitY=1;exitDx=0;exitDy=0;entryX=0.5;entryY=0;entryDx=0;entryDy=0;labelBackgroundColor=default;strokeColor=default;align=center;verticalAlign=middle;fontFamily=Helvetica;fontSize=11;fontColor=default;endArrow=classic;" parent="1" source="Y49pG0PhkSJmo9Slld95-239" target="Y49pG0PhkSJmo9Slld95-245" edge="1">
          <mxGeometry relative="1" as="geometry" />
        </mxCell>
        <mxCell id="Y49pG0PhkSJmo9Slld95-249" style="edgeStyle=none;shape=connector;rounded=0;orthogonalLoop=1;jettySize=auto;html=1;exitX=0.5;exitY=1;exitDx=0;exitDy=0;entryX=0.5;entryY=0;entryDx=0;entryDy=0;labelBackgroundColor=default;strokeColor=default;align=center;verticalAlign=middle;fontFamily=Helvetica;fontSize=11;fontColor=default;endArrow=classic;" parent="1" source="Y49pG0PhkSJmo9Slld95-239" target="Y49pG0PhkSJmo9Slld95-235" edge="1">
          <mxGeometry relative="1" as="geometry" />
        </mxCell>
        <mxCell id="Y49pG0PhkSJmo9Slld95-239" value="&lt;font color=&quot;#ffffff&quot;&gt;N&lt;/font&gt;" style="ellipse;whiteSpace=wrap;html=1;aspect=fixed;strokeColor=none;fillColor=#FF0000;" parent="1" vertex="1">
          <mxGeometry x="280.25" y="1520" width="40" height="40" as="geometry" />
        </mxCell>
        <mxCell id="Y49pG0PhkSJmo9Slld95-240" value="&lt;div style=&quot;&quot;&gt;4&lt;/div&gt;" style="verticalLabelPosition=middle;verticalAlign=middle;html=1;shape=mxgraph.basic.acute_triangle;dx=0.5;fontFamily=Helvetica;fontSize=11;fontColor=#FFFFFF;horizontal=1;labelPosition=center;align=center;fillColor=#000000;" parent="1" vertex="1">
          <mxGeometry x="347.5" y="1610" width="25" height="30" as="geometry" />
        </mxCell>
        <mxCell id="Y49pG0PhkSJmo9Slld95-241" value="&lt;div style=&quot;&quot;&gt;5&lt;/div&gt;" style="verticalLabelPosition=middle;verticalAlign=middle;html=1;shape=mxgraph.basic.acute_triangle;dx=0.5;fontFamily=Helvetica;fontSize=11;fontColor=#FFFFFF;horizontal=1;labelPosition=center;align=center;fillColor=#000000;" parent="1" vertex="1">
          <mxGeometry x="388" y="1610" width="25" height="30" as="geometry" />
        </mxCell>
        <mxCell id="Y49pG0PhkSJmo9Slld95-242" style="edgeStyle=none;shape=connector;rounded=0;orthogonalLoop=1;jettySize=auto;html=1;exitX=0.5;exitY=1;exitDx=0;exitDy=0;entryX=0;entryY=0;entryDx=12.5;entryDy=0;entryPerimeter=0;labelBackgroundColor=default;strokeColor=default;align=center;verticalAlign=middle;fontFamily=Helvetica;fontSize=11;fontColor=default;endArrow=classic;" parent="1" source="Y49pG0PhkSJmo9Slld95-236" target="Y49pG0PhkSJmo9Slld95-240" edge="1">
          <mxGeometry relative="1" as="geometry" />
        </mxCell>
        <mxCell id="Y49pG0PhkSJmo9Slld95-243" style="edgeStyle=none;shape=connector;rounded=0;orthogonalLoop=1;jettySize=auto;html=1;exitX=0.5;exitY=1;exitDx=0;exitDy=0;entryX=0;entryY=0;entryDx=12.5;entryDy=0;entryPerimeter=0;labelBackgroundColor=default;strokeColor=default;align=center;verticalAlign=middle;fontFamily=Helvetica;fontSize=11;fontColor=default;endArrow=classic;" parent="1" source="Y49pG0PhkSJmo9Slld95-236" target="Y49pG0PhkSJmo9Slld95-241" edge="1">
          <mxGeometry relative="1" as="geometry" />
        </mxCell>
        <mxCell id="Y49pG0PhkSJmo9Slld95-244" value="" style="ellipse;whiteSpace=wrap;html=1;aspect=fixed;fillColor=#000000;" parent="1" vertex="1">
          <mxGeometry x="272.5" y="1686" width="15" height="15" as="geometry" />
        </mxCell>
        <mxCell id="Y49pG0PhkSJmo9Slld95-245" value="" style="ellipse;whiteSpace=wrap;html=1;aspect=fixed;fillColor=#000000;" parent="1" vertex="1">
          <mxGeometry x="314" y="1606" width="15" height="15" as="geometry" />
        </mxCell>
        <mxCell id="Y49pG0PhkSJmo9Slld95-246" value="" style="ellipse;whiteSpace=wrap;html=1;aspect=fixed;fillColor=#000000;" parent="1" vertex="1">
          <mxGeometry x="232" y="1686" width="15" height="15" as="geometry" />
        </mxCell>
        <mxCell id="Y49pG0PhkSJmo9Slld95-247" value="3" style="verticalLabelPosition=middle;verticalAlign=middle;html=1;shape=mxgraph.basic.acute_triangle;dx=0.5;fontFamily=Helvetica;fontSize=11;fontColor=#FFFFFF;horizontal=1;labelPosition=center;align=center;fillColor=#000000;" parent="1" vertex="1">
          <mxGeometry x="309" y="1610" width="25" height="30" as="geometry" />
        </mxCell>
        <mxCell id="Y49pG0PhkSJmo9Slld95-251" value="1" style="verticalLabelPosition=middle;verticalAlign=middle;html=1;shape=mxgraph.basic.acute_triangle;dx=0.5;fontFamily=Helvetica;fontSize=11;fontColor=#FFFFFF;horizontal=1;labelPosition=center;align=center;fillColor=#000000;" parent="1" vertex="1">
          <mxGeometry x="427" y="1690" width="25" height="30" as="geometry" />
        </mxCell>
        <mxCell id="Y49pG0PhkSJmo9Slld95-252" value="2" style="verticalLabelPosition=middle;verticalAlign=middle;html=1;shape=mxgraph.basic.acute_triangle;dx=0.5;fontFamily=Helvetica;fontSize=11;fontColor=#FFFFFF;horizontal=1;labelPosition=center;align=center;fillColor=#000000;" parent="1" vertex="1">
          <mxGeometry x="467.5" y="1690" width="25" height="30" as="geometry" />
        </mxCell>
        <mxCell id="Y49pG0PhkSJmo9Slld95-253" style="edgeStyle=none;shape=connector;rounded=0;orthogonalLoop=1;jettySize=auto;html=1;exitX=0.5;exitY=1;exitDx=0;exitDy=0;entryX=0.5;entryY=0;entryDx=0;entryDy=0;labelBackgroundColor=default;strokeColor=default;align=center;verticalAlign=middle;fontFamily=Helvetica;fontSize=11;fontColor=default;endArrow=classic;" parent="1" source="Y49pG0PhkSJmo9Slld95-255" target="Y49pG0PhkSJmo9Slld95-259" edge="1">
          <mxGeometry relative="1" as="geometry" />
        </mxCell>
        <mxCell id="Y49pG0PhkSJmo9Slld95-254" style="edgeStyle=none;shape=connector;rounded=0;orthogonalLoop=1;jettySize=auto;html=1;exitX=0.5;exitY=1;exitDx=0;exitDy=0;entryX=0.5;entryY=0;entryDx=0;entryDy=0;labelBackgroundColor=default;strokeColor=default;align=center;verticalAlign=middle;fontFamily=Helvetica;fontSize=11;fontColor=default;endArrow=classic;" parent="1" source="Y49pG0PhkSJmo9Slld95-255" target="Y49pG0PhkSJmo9Slld95-262" edge="1">
          <mxGeometry relative="1" as="geometry" />
        </mxCell>
        <mxCell id="Y49pG0PhkSJmo9Slld95-255" value="&lt;font color=&quot;#ffffff&quot;&gt;G&lt;/font&gt;" style="ellipse;whiteSpace=wrap;html=1;aspect=fixed;strokeColor=none;fillColor=#FF0000;" parent="1" vertex="1">
          <mxGeometry x="520.25" y="1440" width="40" height="40" as="geometry" />
        </mxCell>
        <mxCell id="Y49pG0PhkSJmo9Slld95-256" style="edgeStyle=none;shape=connector;rounded=0;orthogonalLoop=1;jettySize=auto;html=1;exitX=0.5;exitY=1;exitDx=0;exitDy=0;entryX=0.5;entryY=0;entryDx=0;entryDy=0;labelBackgroundColor=default;strokeColor=default;align=center;verticalAlign=middle;fontFamily=Helvetica;fontSize=11;fontColor=default;endArrow=classic;" parent="1" source="Y49pG0PhkSJmo9Slld95-258" target="Y49pG0PhkSJmo9Slld95-269" edge="1">
          <mxGeometry relative="1" as="geometry" />
        </mxCell>
        <mxCell id="Y49pG0PhkSJmo9Slld95-257" style="edgeStyle=none;shape=connector;rounded=0;orthogonalLoop=1;jettySize=auto;html=1;exitX=0.5;exitY=1;exitDx=0;exitDy=0;entryX=0.5;entryY=0;entryDx=0;entryDy=0;labelBackgroundColor=default;strokeColor=default;align=center;verticalAlign=middle;fontFamily=Helvetica;fontSize=11;fontColor=default;endArrow=classic;" parent="1" source="Y49pG0PhkSJmo9Slld95-258" target="Y49pG0PhkSJmo9Slld95-267" edge="1">
          <mxGeometry relative="1" as="geometry" />
        </mxCell>
        <mxCell id="Y49pG0PhkSJmo9Slld95-258" value="&lt;font color=&quot;#ffffff&quot;&gt;P&lt;/font&gt;" style="ellipse;whiteSpace=wrap;html=1;aspect=fixed;strokeColor=none;fillColor=#FF0000;" parent="1" vertex="1">
          <mxGeometry x="440.5" y="1600" width="40" height="40" as="geometry" />
        </mxCell>
        <mxCell id="Y49pG0PhkSJmo9Slld95-259" value="&lt;font color=&quot;#ffffff&quot;&gt;U&lt;/font&gt;" style="ellipse;whiteSpace=wrap;html=1;aspect=fixed;strokeColor=none;fillColor=#000000;" parent="1" vertex="1">
          <mxGeometry x="560.75" y="1520" width="40" height="40" as="geometry" />
        </mxCell>
        <mxCell id="Y49pG0PhkSJmo9Slld95-260" style="edgeStyle=none;shape=connector;rounded=0;orthogonalLoop=1;jettySize=auto;html=1;exitX=0.5;exitY=1;exitDx=0;exitDy=0;entryX=0.5;entryY=0;entryDx=0;entryDy=0;labelBackgroundColor=default;strokeColor=default;align=center;verticalAlign=middle;fontFamily=Helvetica;fontSize=11;fontColor=default;endArrow=classic;" parent="1" source="Y49pG0PhkSJmo9Slld95-262" target="Y49pG0PhkSJmo9Slld95-268" edge="1">
          <mxGeometry relative="1" as="geometry" />
        </mxCell>
        <mxCell id="Y49pG0PhkSJmo9Slld95-261" style="edgeStyle=none;shape=connector;rounded=0;orthogonalLoop=1;jettySize=auto;html=1;exitX=0.5;exitY=1;exitDx=0;exitDy=0;entryX=0.5;entryY=0;entryDx=0;entryDy=0;labelBackgroundColor=default;strokeColor=default;align=center;verticalAlign=middle;fontFamily=Helvetica;fontSize=11;fontColor=default;endArrow=classic;" parent="1" source="Y49pG0PhkSJmo9Slld95-262" target="Y49pG0PhkSJmo9Slld95-258" edge="1">
          <mxGeometry relative="1" as="geometry" />
        </mxCell>
        <mxCell id="Y49pG0PhkSJmo9Slld95-262" value="&lt;font color=&quot;#ffffff&quot;&gt;N&lt;/font&gt;" style="ellipse;whiteSpace=wrap;html=1;aspect=fixed;strokeColor=none;fillColor=#000000;" parent="1" vertex="1">
          <mxGeometry x="480.25" y="1520" width="40" height="40" as="geometry" />
        </mxCell>
        <mxCell id="Y49pG0PhkSJmo9Slld95-263" value="&lt;div style=&quot;&quot;&gt;4&lt;/div&gt;" style="verticalLabelPosition=middle;verticalAlign=middle;html=1;shape=mxgraph.basic.acute_triangle;dx=0.5;fontFamily=Helvetica;fontSize=11;fontColor=#FFFFFF;horizontal=1;labelPosition=center;align=center;fillColor=#000000;" parent="1" vertex="1">
          <mxGeometry x="547.5" y="1610" width="25" height="30" as="geometry" />
        </mxCell>
        <mxCell id="Y49pG0PhkSJmo9Slld95-264" value="&lt;div style=&quot;&quot;&gt;5&lt;/div&gt;" style="verticalLabelPosition=middle;verticalAlign=middle;html=1;shape=mxgraph.basic.acute_triangle;dx=0.5;fontFamily=Helvetica;fontSize=11;fontColor=#FFFFFF;horizontal=1;labelPosition=center;align=center;fillColor=#000000;" parent="1" vertex="1">
          <mxGeometry x="588" y="1610" width="25" height="30" as="geometry" />
        </mxCell>
        <mxCell id="Y49pG0PhkSJmo9Slld95-265" style="edgeStyle=none;shape=connector;rounded=0;orthogonalLoop=1;jettySize=auto;html=1;exitX=0.5;exitY=1;exitDx=0;exitDy=0;entryX=0;entryY=0;entryDx=12.5;entryDy=0;entryPerimeter=0;labelBackgroundColor=default;strokeColor=default;align=center;verticalAlign=middle;fontFamily=Helvetica;fontSize=11;fontColor=default;endArrow=classic;" parent="1" source="Y49pG0PhkSJmo9Slld95-259" target="Y49pG0PhkSJmo9Slld95-263" edge="1">
          <mxGeometry relative="1" as="geometry" />
        </mxCell>
        <mxCell id="Y49pG0PhkSJmo9Slld95-266" style="edgeStyle=none;shape=connector;rounded=0;orthogonalLoop=1;jettySize=auto;html=1;exitX=0.5;exitY=1;exitDx=0;exitDy=0;entryX=0;entryY=0;entryDx=12.5;entryDy=0;entryPerimeter=0;labelBackgroundColor=default;strokeColor=default;align=center;verticalAlign=middle;fontFamily=Helvetica;fontSize=11;fontColor=default;endArrow=classic;" parent="1" source="Y49pG0PhkSJmo9Slld95-259" target="Y49pG0PhkSJmo9Slld95-264" edge="1">
          <mxGeometry relative="1" as="geometry" />
        </mxCell>
        <mxCell id="Y49pG0PhkSJmo9Slld95-267" value="" style="ellipse;whiteSpace=wrap;html=1;aspect=fixed;fillColor=#000000;" parent="1" vertex="1">
          <mxGeometry x="472.5" y="1686" width="15" height="15" as="geometry" />
        </mxCell>
        <mxCell id="Y49pG0PhkSJmo9Slld95-268" value="" style="ellipse;whiteSpace=wrap;html=1;aspect=fixed;fillColor=#000000;" parent="1" vertex="1">
          <mxGeometry x="514" y="1606" width="15" height="15" as="geometry" />
        </mxCell>
        <mxCell id="Y49pG0PhkSJmo9Slld95-269" value="" style="ellipse;whiteSpace=wrap;html=1;aspect=fixed;fillColor=#000000;" parent="1" vertex="1">
          <mxGeometry x="432" y="1686" width="15" height="15" as="geometry" />
        </mxCell>
        <mxCell id="Y49pG0PhkSJmo9Slld95-270" value="3" style="verticalLabelPosition=middle;verticalAlign=middle;html=1;shape=mxgraph.basic.acute_triangle;dx=0.5;fontFamily=Helvetica;fontSize=11;fontColor=#FFFFFF;horizontal=1;labelPosition=center;align=center;fillColor=#000000;" parent="1" vertex="1">
          <mxGeometry x="509" y="1610" width="25" height="30" as="geometry" />
        </mxCell>
        <mxCell id="Y49pG0PhkSJmo9Slld95-271" value="1" style="verticalLabelPosition=middle;verticalAlign=middle;html=1;shape=mxgraph.basic.acute_triangle;dx=0.5;fontFamily=Helvetica;fontSize=11;fontColor=#FFFFFF;horizontal=1;labelPosition=center;align=center;fillColor=#000000;" parent="1" vertex="1">
          <mxGeometry x="626.88" y="1610" width="25" height="30" as="geometry" />
        </mxCell>
        <mxCell id="Y49pG0PhkSJmo9Slld95-272" value="2" style="verticalLabelPosition=middle;verticalAlign=middle;html=1;shape=mxgraph.basic.acute_triangle;dx=0.5;fontFamily=Helvetica;fontSize=11;fontColor=#FFFFFF;horizontal=1;labelPosition=center;align=center;fillColor=#000000;" parent="1" vertex="1">
          <mxGeometry x="667.38" y="1610" width="25" height="30" as="geometry" />
        </mxCell>
        <mxCell id="Y49pG0PhkSJmo9Slld95-273" style="edgeStyle=none;shape=connector;rounded=0;orthogonalLoop=1;jettySize=auto;html=1;exitX=0.5;exitY=1;exitDx=0;exitDy=0;entryX=0.5;entryY=0;entryDx=0;entryDy=0;labelBackgroundColor=default;strokeColor=default;align=center;verticalAlign=middle;fontFamily=Helvetica;fontSize=11;fontColor=default;endArrow=classic;" parent="1" source="Y49pG0PhkSJmo9Slld95-275" target="Y49pG0PhkSJmo9Slld95-279" edge="1">
          <mxGeometry relative="1" as="geometry" />
        </mxCell>
        <mxCell id="Y49pG0PhkSJmo9Slld95-293" style="edgeStyle=none;shape=connector;rounded=0;orthogonalLoop=1;jettySize=auto;html=1;exitX=0.5;exitY=1;exitDx=0;exitDy=0;entryX=0.5;entryY=0;entryDx=0;entryDy=0;labelBackgroundColor=default;strokeColor=default;align=center;verticalAlign=middle;fontFamily=Helvetica;fontSize=11;fontColor=default;endArrow=classic;" parent="1" source="Y49pG0PhkSJmo9Slld95-275" target="Y49pG0PhkSJmo9Slld95-288" edge="1">
          <mxGeometry relative="1" as="geometry" />
        </mxCell>
        <mxCell id="Y49pG0PhkSJmo9Slld95-275" value="&lt;font color=&quot;#ffffff&quot;&gt;G&lt;/font&gt;" style="ellipse;whiteSpace=wrap;html=1;aspect=fixed;strokeColor=none;fillColor=#FF0000;" parent="1" vertex="1">
          <mxGeometry x="719.13" y="1520" width="40" height="40" as="geometry" />
        </mxCell>
        <mxCell id="Y49pG0PhkSJmo9Slld95-276" style="edgeStyle=none;shape=connector;rounded=0;orthogonalLoop=1;jettySize=auto;html=1;exitX=0.5;exitY=1;exitDx=0;exitDy=0;entryX=0.5;entryY=0;entryDx=0;entryDy=0;labelBackgroundColor=default;strokeColor=default;align=center;verticalAlign=middle;fontFamily=Helvetica;fontSize=11;fontColor=default;endArrow=classic;" parent="1" source="Y49pG0PhkSJmo9Slld95-278" target="Y49pG0PhkSJmo9Slld95-289" edge="1">
          <mxGeometry relative="1" as="geometry" />
        </mxCell>
        <mxCell id="Y49pG0PhkSJmo9Slld95-277" style="edgeStyle=none;shape=connector;rounded=0;orthogonalLoop=1;jettySize=auto;html=1;exitX=0.5;exitY=1;exitDx=0;exitDy=0;entryX=0.5;entryY=0;entryDx=0;entryDy=0;labelBackgroundColor=default;strokeColor=default;align=center;verticalAlign=middle;fontFamily=Helvetica;fontSize=11;fontColor=default;endArrow=classic;" parent="1" source="Y49pG0PhkSJmo9Slld95-278" target="Y49pG0PhkSJmo9Slld95-287" edge="1">
          <mxGeometry relative="1" as="geometry" />
        </mxCell>
        <mxCell id="Y49pG0PhkSJmo9Slld95-278" value="&lt;font color=&quot;#ffffff&quot;&gt;P&lt;/font&gt;" style="ellipse;whiteSpace=wrap;html=1;aspect=fixed;strokeColor=none;fillColor=#FF0000;" parent="1" vertex="1">
          <mxGeometry x="638.88" y="1520" width="40" height="40" as="geometry" />
        </mxCell>
        <mxCell id="Y49pG0PhkSJmo9Slld95-279" value="&lt;font color=&quot;#ffffff&quot;&gt;U&lt;/font&gt;" style="ellipse;whiteSpace=wrap;html=1;aspect=fixed;strokeColor=none;fillColor=#000000;" parent="1" vertex="1">
          <mxGeometry x="759.38" y="1600" width="40" height="40" as="geometry" />
        </mxCell>
        <mxCell id="Y49pG0PhkSJmo9Slld95-281" style="edgeStyle=none;shape=connector;rounded=0;orthogonalLoop=1;jettySize=auto;html=1;exitX=0.5;exitY=1;exitDx=0;exitDy=0;entryX=0.5;entryY=0;entryDx=0;entryDy=0;labelBackgroundColor=default;strokeColor=default;align=center;verticalAlign=middle;fontFamily=Helvetica;fontSize=11;fontColor=default;endArrow=classic;" parent="1" source="Y49pG0PhkSJmo9Slld95-282" target="Y49pG0PhkSJmo9Slld95-278" edge="1">
          <mxGeometry relative="1" as="geometry" />
        </mxCell>
        <mxCell id="Y49pG0PhkSJmo9Slld95-291" style="edgeStyle=none;shape=connector;rounded=0;orthogonalLoop=1;jettySize=auto;html=1;exitX=0.5;exitY=1;exitDx=0;exitDy=0;entryX=0.5;entryY=0;entryDx=0;entryDy=0;labelBackgroundColor=default;strokeColor=default;align=center;verticalAlign=middle;fontFamily=Helvetica;fontSize=11;fontColor=default;endArrow=classic;" parent="1" source="Y49pG0PhkSJmo9Slld95-282" target="Y49pG0PhkSJmo9Slld95-275" edge="1">
          <mxGeometry relative="1" as="geometry" />
        </mxCell>
        <mxCell id="Y49pG0PhkSJmo9Slld95-282" value="&lt;font color=&quot;#ffffff&quot;&gt;N&lt;/font&gt;" style="ellipse;whiteSpace=wrap;html=1;aspect=fixed;strokeColor=none;fillColor=#000000;" parent="1" vertex="1">
          <mxGeometry x="680.13" y="1440" width="40" height="40" as="geometry" />
        </mxCell>
        <mxCell id="Y49pG0PhkSJmo9Slld95-283" value="&lt;div style=&quot;&quot;&gt;4&lt;/div&gt;" style="verticalLabelPosition=middle;verticalAlign=middle;html=1;shape=mxgraph.basic.acute_triangle;dx=0.5;fontFamily=Helvetica;fontSize=11;fontColor=#FFFFFF;horizontal=1;labelPosition=center;align=center;fillColor=#000000;" parent="1" vertex="1">
          <mxGeometry x="746.13" y="1690" width="25" height="30" as="geometry" />
        </mxCell>
        <mxCell id="Y49pG0PhkSJmo9Slld95-284" value="&lt;div style=&quot;&quot;&gt;5&lt;/div&gt;" style="verticalLabelPosition=middle;verticalAlign=middle;html=1;shape=mxgraph.basic.acute_triangle;dx=0.5;fontFamily=Helvetica;fontSize=11;fontColor=#FFFFFF;horizontal=1;labelPosition=center;align=center;fillColor=#000000;" parent="1" vertex="1">
          <mxGeometry x="786.63" y="1690" width="25" height="30" as="geometry" />
        </mxCell>
        <mxCell id="Y49pG0PhkSJmo9Slld95-285" style="edgeStyle=none;shape=connector;rounded=0;orthogonalLoop=1;jettySize=auto;html=1;exitX=0.5;exitY=1;exitDx=0;exitDy=0;entryX=0;entryY=0;entryDx=12.5;entryDy=0;entryPerimeter=0;labelBackgroundColor=default;strokeColor=default;align=center;verticalAlign=middle;fontFamily=Helvetica;fontSize=11;fontColor=default;endArrow=classic;" parent="1" source="Y49pG0PhkSJmo9Slld95-279" target="Y49pG0PhkSJmo9Slld95-283" edge="1">
          <mxGeometry relative="1" as="geometry" />
        </mxCell>
        <mxCell id="Y49pG0PhkSJmo9Slld95-286" style="edgeStyle=none;shape=connector;rounded=0;orthogonalLoop=1;jettySize=auto;html=1;exitX=0.5;exitY=1;exitDx=0;exitDy=0;entryX=0;entryY=0;entryDx=12.5;entryDy=0;entryPerimeter=0;labelBackgroundColor=default;strokeColor=default;align=center;verticalAlign=middle;fontFamily=Helvetica;fontSize=11;fontColor=default;endArrow=classic;" parent="1" source="Y49pG0PhkSJmo9Slld95-279" target="Y49pG0PhkSJmo9Slld95-284" edge="1">
          <mxGeometry relative="1" as="geometry" />
        </mxCell>
        <mxCell id="Y49pG0PhkSJmo9Slld95-287" value="" style="ellipse;whiteSpace=wrap;html=1;aspect=fixed;fillColor=#000000;" parent="1" vertex="1">
          <mxGeometry x="672.38" y="1606" width="15" height="15" as="geometry" />
        </mxCell>
        <mxCell id="Y49pG0PhkSJmo9Slld95-288" value="" style="ellipse;whiteSpace=wrap;html=1;aspect=fixed;fillColor=#000000;" parent="1" vertex="1">
          <mxGeometry x="712.13" y="1606" width="15" height="15" as="geometry" />
        </mxCell>
        <mxCell id="Y49pG0PhkSJmo9Slld95-289" value="" style="ellipse;whiteSpace=wrap;html=1;aspect=fixed;fillColor=#000000;" parent="1" vertex="1">
          <mxGeometry x="631.88" y="1606" width="15" height="15" as="geometry" />
        </mxCell>
        <mxCell id="Y49pG0PhkSJmo9Slld95-290" value="3" style="verticalLabelPosition=middle;verticalAlign=middle;html=1;shape=mxgraph.basic.acute_triangle;dx=0.5;fontFamily=Helvetica;fontSize=11;fontColor=#FFFFFF;horizontal=1;labelPosition=center;align=center;fillColor=#000000;" parent="1" vertex="1">
          <mxGeometry x="707.13" y="1610" width="25" height="30" as="geometry" />
        </mxCell>
        <mxCell id="Y49pG0PhkSJmo9Slld95-294" value="" style="shape=singleArrow;whiteSpace=wrap;html=1;arrowWidth=0.4;arrowSize=0.4;fillColor=#99FFFF;strokeColor=none;" parent="1" vertex="1">
          <mxGeometry x="220" y="1480" width="40.01" height="40" as="geometry" />
        </mxCell>
        <mxCell id="Y49pG0PhkSJmo9Slld95-295" value="" style="shape=singleArrow;whiteSpace=wrap;html=1;arrowWidth=0.4;arrowSize=0.4;fillColor=#99FFFF;strokeColor=none;" parent="1" vertex="1">
          <mxGeometry x="420" y="1480" width="40.01" height="40" as="geometry" />
        </mxCell>
        <mxCell id="Y49pG0PhkSJmo9Slld95-296" value="" style="shape=singleArrow;whiteSpace=wrap;html=1;arrowWidth=0.4;arrowSize=0.4;fillColor=#99FFFF;strokeColor=none;" parent="1" vertex="1">
          <mxGeometry x="600.24" y="1480" width="40.01" height="40" as="geometry" />
        </mxCell>
        <mxCell id="Y49pG0PhkSJmo9Slld95-323" value="3" style="verticalLabelPosition=middle;verticalAlign=middle;html=1;shape=mxgraph.basic.acute_triangle;dx=0.5;fontFamily=Helvetica;fontSize=11;fontColor=#FFFFFF;horizontal=1;labelPosition=center;align=center;fillColor=#000000;" parent="1" vertex="1">
          <mxGeometry x="147.5" y="2010" width="25" height="30" as="geometry" />
        </mxCell>
        <mxCell id="Y49pG0PhkSJmo9Slld95-324" value="" style="ellipse;whiteSpace=wrap;html=1;aspect=fixed;fillColor=#000000;" parent="1" vertex="1">
          <mxGeometry x="152.5" y="2006" width="15" height="15" as="geometry" />
        </mxCell>
        <mxCell id="Y49pG0PhkSJmo9Slld95-326" value="4" style="verticalLabelPosition=middle;verticalAlign=middle;html=1;shape=mxgraph.basic.acute_triangle;dx=0.5;fontFamily=Helvetica;fontSize=11;fontColor=#FFFFFF;horizontal=1;labelPosition=center;align=center;fillColor=#000000;" parent="1" vertex="1">
          <mxGeometry x="186.5" y="2090" width="25" height="30" as="geometry" />
        </mxCell>
        <mxCell id="Y49pG0PhkSJmo9Slld95-327" value="" style="ellipse;whiteSpace=wrap;html=1;aspect=fixed;fillColor=#000000;" parent="1" vertex="1">
          <mxGeometry x="191.5" y="2086" width="15" height="15" as="geometry" />
        </mxCell>
        <mxCell id="Y49pG0PhkSJmo9Slld95-328" value="5" style="verticalLabelPosition=middle;verticalAlign=middle;html=1;shape=mxgraph.basic.acute_triangle;dx=0.5;fontFamily=Helvetica;fontSize=11;fontColor=#FFFFFF;horizontal=1;labelPosition=center;align=center;fillColor=#000000;" parent="1" vertex="1">
          <mxGeometry x="226.5" y="2090" width="25" height="30" as="geometry" />
        </mxCell>
        <mxCell id="Y49pG0PhkSJmo9Slld95-329" value="" style="ellipse;whiteSpace=wrap;html=1;aspect=fixed;fillColor=#000000;" parent="1" vertex="1">
          <mxGeometry x="231.5" y="2086" width="15" height="15" as="geometry" />
        </mxCell>
        <mxCell id="Y49pG0PhkSJmo9Slld95-332" value="&lt;div style=&quot;&quot;&gt;1&lt;/div&gt;" style="verticalLabelPosition=middle;verticalAlign=middle;html=1;shape=mxgraph.basic.acute_triangle;dx=0.5;fontFamily=Helvetica;fontSize=11;fontColor=#FFFFFF;horizontal=1;labelPosition=center;align=center;fillColor=#000000;" parent="1" vertex="1">
          <mxGeometry x="67.5" y="2010" width="25" height="30" as="geometry" />
        </mxCell>
        <mxCell id="Y49pG0PhkSJmo9Slld95-333" value="&lt;div style=&quot;&quot;&gt;2&lt;/div&gt;" style="verticalLabelPosition=middle;verticalAlign=middle;html=1;shape=mxgraph.basic.acute_triangle;dx=0.5;fontFamily=Helvetica;fontSize=11;fontColor=#FFFFFF;horizontal=1;labelPosition=center;align=center;fillColor=#000000;" parent="1" vertex="1">
          <mxGeometry x="108" y="2010" width="25" height="30" as="geometry" />
        </mxCell>
        <mxCell id="Y49pG0PhkSJmo9Slld95-334" style="edgeStyle=none;shape=connector;rounded=0;orthogonalLoop=1;jettySize=auto;html=1;exitX=0.5;exitY=1;exitDx=0;exitDy=0;entryX=0;entryY=0;entryDx=12.5;entryDy=0;entryPerimeter=0;labelBackgroundColor=default;strokeColor=default;align=center;verticalAlign=middle;fontFamily=Helvetica;fontSize=11;fontColor=default;endArrow=classic;" parent="1" source="rvQk6iIPXBQ3tCGbkrqs-113" target="Y49pG0PhkSJmo9Slld95-332" edge="1">
          <mxGeometry relative="1" as="geometry" />
        </mxCell>
        <mxCell id="Y49pG0PhkSJmo9Slld95-335" style="edgeStyle=none;shape=connector;rounded=0;orthogonalLoop=1;jettySize=auto;html=1;exitX=0.5;exitY=1;exitDx=0;exitDy=0;entryX=0;entryY=0;entryDx=12.5;entryDy=0;entryPerimeter=0;labelBackgroundColor=default;strokeColor=default;align=center;verticalAlign=middle;fontFamily=Helvetica;fontSize=11;fontColor=default;endArrow=classic;" parent="1" source="rvQk6iIPXBQ3tCGbkrqs-113" target="Y49pG0PhkSJmo9Slld95-333" edge="1">
          <mxGeometry relative="1" as="geometry" />
        </mxCell>
        <mxCell id="Y49pG0PhkSJmo9Slld95-336" style="edgeStyle=none;shape=connector;rounded=0;orthogonalLoop=1;jettySize=auto;html=1;exitX=0.5;exitY=1;exitDx=0;exitDy=0;entryX=0.5;entryY=0;entryDx=0;entryDy=0;labelBackgroundColor=default;strokeColor=default;align=center;verticalAlign=middle;fontFamily=Helvetica;fontSize=11;fontColor=default;endArrow=classic;" parent="1" source="Y49pG0PhkSJmo9Slld95-338" target="Y49pG0PhkSJmo9Slld95-339" edge="1">
          <mxGeometry relative="1" as="geometry" />
        </mxCell>
        <mxCell id="Y49pG0PhkSJmo9Slld95-337" style="edgeStyle=none;shape=connector;rounded=0;orthogonalLoop=1;jettySize=auto;html=1;exitX=0.5;exitY=1;exitDx=0;exitDy=0;entryX=0.5;entryY=0;entryDx=0;entryDy=0;labelBackgroundColor=default;strokeColor=default;align=center;verticalAlign=middle;fontFamily=Helvetica;fontSize=11;fontColor=default;endArrow=classic;" parent="1" source="Y49pG0PhkSJmo9Slld95-338" target="Y49pG0PhkSJmo9Slld95-342" edge="1">
          <mxGeometry relative="1" as="geometry" />
        </mxCell>
        <mxCell id="Y49pG0PhkSJmo9Slld95-338" value="&lt;font color=&quot;#ffffff&quot;&gt;G&lt;/font&gt;" style="ellipse;whiteSpace=wrap;html=1;aspect=fixed;strokeColor=none;fillColor=#FF0000;" parent="1" vertex="1">
          <mxGeometry x="360.5" y="1840" width="40" height="40" as="geometry" />
        </mxCell>
        <mxCell id="Y49pG0PhkSJmo9Slld95-339" value="&lt;font color=&quot;#ffffff&quot;&gt;U&lt;/font&gt;" style="ellipse;whiteSpace=wrap;html=1;aspect=fixed;strokeColor=none;fillColor=#000000;" parent="1" vertex="1">
          <mxGeometry x="320.5" y="1920" width="40" height="40" as="geometry" />
        </mxCell>
        <mxCell id="Y49pG0PhkSJmo9Slld95-340" style="edgeStyle=none;shape=connector;rounded=0;orthogonalLoop=1;jettySize=auto;html=1;exitX=0.5;exitY=1;exitDx=0;exitDy=0;entryX=0.5;entryY=0;entryDx=0;entryDy=0;labelBackgroundColor=default;strokeColor=default;align=center;verticalAlign=middle;fontFamily=Helvetica;fontSize=11;fontColor=default;endArrow=classic;" parent="1" source="Y49pG0PhkSJmo9Slld95-342" target="Y49pG0PhkSJmo9Slld95-345" edge="1">
          <mxGeometry relative="1" as="geometry" />
        </mxCell>
        <mxCell id="Y49pG0PhkSJmo9Slld95-341" style="edgeStyle=none;shape=connector;rounded=0;orthogonalLoop=1;jettySize=auto;html=1;exitX=0.5;exitY=1;exitDx=0;exitDy=0;entryX=0.5;entryY=0;entryDx=0;entryDy=0;labelBackgroundColor=default;strokeColor=default;align=center;verticalAlign=middle;fontFamily=Helvetica;fontSize=11;fontColor=default;endArrow=classic;" parent="1" source="Y49pG0PhkSJmo9Slld95-342" target="Y49pG0PhkSJmo9Slld95-347" edge="1">
          <mxGeometry relative="1" as="geometry" />
        </mxCell>
        <mxCell id="Y49pG0PhkSJmo9Slld95-342" value="&lt;font color=&quot;#ffffff&quot;&gt;P&lt;/font&gt;" style="ellipse;whiteSpace=wrap;html=1;aspect=fixed;strokeColor=none;fillColor=#000000;" parent="1" vertex="1">
          <mxGeometry x="400.5" y="1920" width="40" height="40" as="geometry" />
        </mxCell>
        <mxCell id="Y49pG0PhkSJmo9Slld95-343" style="edgeStyle=none;shape=connector;rounded=0;orthogonalLoop=1;jettySize=auto;html=1;exitX=0.5;exitY=1;exitDx=0;exitDy=0;entryX=0.5;entryY=0;entryDx=0;entryDy=0;labelBackgroundColor=default;strokeColor=default;align=center;verticalAlign=middle;fontFamily=Helvetica;fontSize=11;fontColor=default;endArrow=classic;" parent="1" source="Y49pG0PhkSJmo9Slld95-345" target="Y49pG0PhkSJmo9Slld95-349" edge="1">
          <mxGeometry relative="1" as="geometry" />
        </mxCell>
        <mxCell id="Y49pG0PhkSJmo9Slld95-344" style="edgeStyle=none;shape=connector;rounded=0;orthogonalLoop=1;jettySize=auto;html=1;exitX=0.5;exitY=1;exitDx=0;exitDy=0;entryX=0.5;entryY=0;entryDx=0;entryDy=0;labelBackgroundColor=default;strokeColor=default;align=center;verticalAlign=middle;fontFamily=Helvetica;fontSize=11;fontColor=default;endArrow=classic;" parent="1" source="Y49pG0PhkSJmo9Slld95-345" target="Y49pG0PhkSJmo9Slld95-351" edge="1">
          <mxGeometry relative="1" as="geometry" />
        </mxCell>
        <mxCell id="Y49pG0PhkSJmo9Slld95-345" value="&lt;font color=&quot;#ffffff&quot;&gt;N&lt;/font&gt;" style="ellipse;whiteSpace=wrap;html=1;aspect=fixed;strokeColor=none;fillColor=#FF0000;" parent="1" vertex="1">
          <mxGeometry x="441.5" y="2000" width="40" height="40" as="geometry" />
        </mxCell>
        <mxCell id="Y49pG0PhkSJmo9Slld95-346" value="3" style="verticalLabelPosition=middle;verticalAlign=middle;html=1;shape=mxgraph.basic.acute_triangle;dx=0.5;fontFamily=Helvetica;fontSize=11;fontColor=#FFFFFF;horizontal=1;labelPosition=center;align=center;fillColor=#000000;" parent="1" vertex="1">
          <mxGeometry x="388" y="2010" width="25" height="30" as="geometry" />
        </mxCell>
        <mxCell id="Y49pG0PhkSJmo9Slld95-347" value="" style="ellipse;whiteSpace=wrap;html=1;aspect=fixed;fillColor=#000000;" parent="1" vertex="1">
          <mxGeometry x="393" y="2006" width="15" height="15" as="geometry" />
        </mxCell>
        <mxCell id="Y49pG0PhkSJmo9Slld95-348" value="4" style="verticalLabelPosition=middle;verticalAlign=middle;html=1;shape=mxgraph.basic.acute_triangle;dx=0.5;fontFamily=Helvetica;fontSize=11;fontColor=#FFFFFF;horizontal=1;labelPosition=center;align=center;fillColor=#000000;" parent="1" vertex="1">
          <mxGeometry x="428" y="2090" width="25" height="30" as="geometry" />
        </mxCell>
        <mxCell id="Y49pG0PhkSJmo9Slld95-349" value="" style="ellipse;whiteSpace=wrap;html=1;aspect=fixed;fillColor=#000000;" parent="1" vertex="1">
          <mxGeometry x="433" y="2086" width="15" height="15" as="geometry" />
        </mxCell>
        <mxCell id="Y49pG0PhkSJmo9Slld95-350" value="5" style="verticalLabelPosition=middle;verticalAlign=middle;html=1;shape=mxgraph.basic.acute_triangle;dx=0.5;fontFamily=Helvetica;fontSize=11;fontColor=#FFFFFF;horizontal=1;labelPosition=center;align=center;fillColor=#000000;" parent="1" vertex="1">
          <mxGeometry x="468" y="2090" width="25" height="30" as="geometry" />
        </mxCell>
        <mxCell id="Y49pG0PhkSJmo9Slld95-351" value="" style="ellipse;whiteSpace=wrap;html=1;aspect=fixed;fillColor=#000000;" parent="1" vertex="1">
          <mxGeometry x="473" y="2086" width="15" height="15" as="geometry" />
        </mxCell>
        <mxCell id="Y49pG0PhkSJmo9Slld95-352" value="&lt;div style=&quot;&quot;&gt;1&lt;/div&gt;" style="verticalLabelPosition=middle;verticalAlign=middle;html=1;shape=mxgraph.basic.acute_triangle;dx=0.5;fontFamily=Helvetica;fontSize=11;fontColor=#FFFFFF;horizontal=1;labelPosition=center;align=center;fillColor=#000000;" parent="1" vertex="1">
          <mxGeometry x="308" y="2010" width="25" height="30" as="geometry" />
        </mxCell>
        <mxCell id="Y49pG0PhkSJmo9Slld95-353" value="&lt;div style=&quot;&quot;&gt;2&lt;/div&gt;" style="verticalLabelPosition=middle;verticalAlign=middle;html=1;shape=mxgraph.basic.acute_triangle;dx=0.5;fontFamily=Helvetica;fontSize=11;fontColor=#FFFFFF;horizontal=1;labelPosition=center;align=center;fillColor=#000000;" parent="1" vertex="1">
          <mxGeometry x="348.5" y="2010" width="25" height="30" as="geometry" />
        </mxCell>
        <mxCell id="Y49pG0PhkSJmo9Slld95-354" style="edgeStyle=none;shape=connector;rounded=0;orthogonalLoop=1;jettySize=auto;html=1;exitX=0.5;exitY=1;exitDx=0;exitDy=0;entryX=0;entryY=0;entryDx=12.5;entryDy=0;entryPerimeter=0;labelBackgroundColor=default;strokeColor=default;align=center;verticalAlign=middle;fontFamily=Helvetica;fontSize=11;fontColor=default;endArrow=classic;" parent="1" source="Y49pG0PhkSJmo9Slld95-339" target="Y49pG0PhkSJmo9Slld95-352" edge="1">
          <mxGeometry relative="1" as="geometry" />
        </mxCell>
        <mxCell id="Y49pG0PhkSJmo9Slld95-355" style="edgeStyle=none;shape=connector;rounded=0;orthogonalLoop=1;jettySize=auto;html=1;exitX=0.5;exitY=1;exitDx=0;exitDy=0;entryX=0;entryY=0;entryDx=12.5;entryDy=0;entryPerimeter=0;labelBackgroundColor=default;strokeColor=default;align=center;verticalAlign=middle;fontFamily=Helvetica;fontSize=11;fontColor=default;endArrow=classic;" parent="1" source="Y49pG0PhkSJmo9Slld95-339" target="Y49pG0PhkSJmo9Slld95-353" edge="1">
          <mxGeometry relative="1" as="geometry" />
        </mxCell>
        <mxCell id="Y49pG0PhkSJmo9Slld95-356" style="edgeStyle=none;shape=connector;rounded=0;orthogonalLoop=1;jettySize=auto;html=1;exitX=0.5;exitY=1;exitDx=0;exitDy=0;entryX=0.5;entryY=0;entryDx=0;entryDy=0;labelBackgroundColor=default;strokeColor=default;align=center;verticalAlign=middle;fontFamily=Helvetica;fontSize=11;fontColor=default;endArrow=classic;" parent="1" source="Y49pG0PhkSJmo9Slld95-358" target="Y49pG0PhkSJmo9Slld95-359" edge="1">
          <mxGeometry relative="1" as="geometry" />
        </mxCell>
        <mxCell id="Y49pG0PhkSJmo9Slld95-358" value="&lt;font color=&quot;#ffffff&quot;&gt;G&lt;/font&gt;" style="ellipse;whiteSpace=wrap;html=1;aspect=fixed;strokeColor=none;fillColor=#FF0000;" parent="1" vertex="1">
          <mxGeometry x="638.88" y="1920" width="40" height="40" as="geometry" />
        </mxCell>
        <mxCell id="Y49pG0PhkSJmo9Slld95-359" value="&lt;font color=&quot;#ffffff&quot;&gt;U&lt;/font&gt;" style="ellipse;whiteSpace=wrap;html=1;aspect=fixed;strokeColor=none;fillColor=#000000;" parent="1" vertex="1">
          <mxGeometry x="600.75" y="2000" width="40" height="40" as="geometry" />
        </mxCell>
        <mxCell id="Y49pG0PhkSJmo9Slld95-360" style="edgeStyle=none;shape=connector;rounded=0;orthogonalLoop=1;jettySize=auto;html=1;exitX=0.5;exitY=1;exitDx=0;exitDy=0;entryX=0.5;entryY=0;entryDx=0;entryDy=0;labelBackgroundColor=default;strokeColor=default;align=center;verticalAlign=middle;fontFamily=Helvetica;fontSize=11;fontColor=default;endArrow=classic;" parent="1" source="Y49pG0PhkSJmo9Slld95-362" target="Y49pG0PhkSJmo9Slld95-365" edge="1">
          <mxGeometry relative="1" as="geometry" />
        </mxCell>
        <mxCell id="Y49pG0PhkSJmo9Slld95-361" style="edgeStyle=none;shape=connector;rounded=0;orthogonalLoop=1;jettySize=auto;html=1;exitX=0.5;exitY=1;exitDx=0;exitDy=0;entryX=0.5;entryY=0;entryDx=0;entryDy=0;labelBackgroundColor=default;strokeColor=default;align=center;verticalAlign=middle;fontFamily=Helvetica;fontSize=11;fontColor=default;endArrow=classic;" parent="1" source="Y49pG0PhkSJmo9Slld95-358" target="Y49pG0PhkSJmo9Slld95-367" edge="1">
          <mxGeometry relative="1" as="geometry" />
        </mxCell>
        <mxCell id="Y49pG0PhkSJmo9Slld95-376" style="edgeStyle=none;shape=connector;rounded=0;orthogonalLoop=1;jettySize=auto;html=1;exitX=0.5;exitY=1;exitDx=0;exitDy=0;entryX=0.5;entryY=0;entryDx=0;entryDy=0;labelBackgroundColor=default;strokeColor=default;align=center;verticalAlign=middle;fontFamily=Helvetica;fontSize=11;fontColor=default;endArrow=classic;" parent="1" source="Y49pG0PhkSJmo9Slld95-362" target="Y49pG0PhkSJmo9Slld95-358" edge="1">
          <mxGeometry relative="1" as="geometry" />
        </mxCell>
        <mxCell id="Y49pG0PhkSJmo9Slld95-362" value="&lt;font color=&quot;#ffffff&quot;&gt;P&lt;/font&gt;" style="ellipse;whiteSpace=wrap;html=1;aspect=fixed;strokeColor=none;fillColor=#000000;" parent="1" vertex="1">
          <mxGeometry x="679.75" y="1840" width="40" height="40" as="geometry" />
        </mxCell>
        <mxCell id="Y49pG0PhkSJmo9Slld95-363" style="edgeStyle=none;shape=connector;rounded=0;orthogonalLoop=1;jettySize=auto;html=1;exitX=0.5;exitY=1;exitDx=0;exitDy=0;entryX=0.5;entryY=0;entryDx=0;entryDy=0;labelBackgroundColor=default;strokeColor=default;align=center;verticalAlign=middle;fontFamily=Helvetica;fontSize=11;fontColor=default;endArrow=classic;" parent="1" source="Y49pG0PhkSJmo9Slld95-365" target="Y49pG0PhkSJmo9Slld95-369" edge="1">
          <mxGeometry relative="1" as="geometry" />
        </mxCell>
        <mxCell id="Y49pG0PhkSJmo9Slld95-364" style="edgeStyle=none;shape=connector;rounded=0;orthogonalLoop=1;jettySize=auto;html=1;exitX=0.5;exitY=1;exitDx=0;exitDy=0;entryX=0.5;entryY=0;entryDx=0;entryDy=0;labelBackgroundColor=default;strokeColor=default;align=center;verticalAlign=middle;fontFamily=Helvetica;fontSize=11;fontColor=default;endArrow=classic;" parent="1" source="Y49pG0PhkSJmo9Slld95-365" target="Y49pG0PhkSJmo9Slld95-371" edge="1">
          <mxGeometry relative="1" as="geometry" />
        </mxCell>
        <mxCell id="Y49pG0PhkSJmo9Slld95-365" value="&lt;font color=&quot;#ffffff&quot;&gt;N&lt;/font&gt;" style="ellipse;whiteSpace=wrap;html=1;aspect=fixed;strokeColor=none;fillColor=#FF0000;" parent="1" vertex="1">
          <mxGeometry x="719.75" y="1920" width="40" height="40" as="geometry" />
        </mxCell>
        <mxCell id="Y49pG0PhkSJmo9Slld95-366" value="3" style="verticalLabelPosition=middle;verticalAlign=middle;html=1;shape=mxgraph.basic.acute_triangle;dx=0.5;fontFamily=Helvetica;fontSize=11;fontColor=#FFFFFF;horizontal=1;labelPosition=center;align=center;fillColor=#000000;" parent="1" vertex="1">
          <mxGeometry x="666.25" y="2010" width="25" height="30" as="geometry" />
        </mxCell>
        <mxCell id="Y49pG0PhkSJmo9Slld95-367" value="" style="ellipse;whiteSpace=wrap;html=1;aspect=fixed;fillColor=#000000;" parent="1" vertex="1">
          <mxGeometry x="671.25" y="2006" width="15" height="15" as="geometry" />
        </mxCell>
        <mxCell id="Y49pG0PhkSJmo9Slld95-368" value="4" style="verticalLabelPosition=middle;verticalAlign=middle;html=1;shape=mxgraph.basic.acute_triangle;dx=0.5;fontFamily=Helvetica;fontSize=11;fontColor=#FFFFFF;horizontal=1;labelPosition=center;align=center;fillColor=#000000;" parent="1" vertex="1">
          <mxGeometry x="706.25" y="2010" width="25" height="30" as="geometry" />
        </mxCell>
        <mxCell id="Y49pG0PhkSJmo9Slld95-369" value="" style="ellipse;whiteSpace=wrap;html=1;aspect=fixed;fillColor=#000000;" parent="1" vertex="1">
          <mxGeometry x="711.25" y="2006" width="15" height="15" as="geometry" />
        </mxCell>
        <mxCell id="Y49pG0PhkSJmo9Slld95-370" value="5" style="verticalLabelPosition=middle;verticalAlign=middle;html=1;shape=mxgraph.basic.acute_triangle;dx=0.5;fontFamily=Helvetica;fontSize=11;fontColor=#FFFFFF;horizontal=1;labelPosition=center;align=center;fillColor=#000000;" parent="1" vertex="1">
          <mxGeometry x="746.25" y="2010" width="25" height="30" as="geometry" />
        </mxCell>
        <mxCell id="Y49pG0PhkSJmo9Slld95-371" value="" style="ellipse;whiteSpace=wrap;html=1;aspect=fixed;fillColor=#000000;" parent="1" vertex="1">
          <mxGeometry x="751.25" y="2006" width="15" height="15" as="geometry" />
        </mxCell>
        <mxCell id="Y49pG0PhkSJmo9Slld95-372" value="&lt;div style=&quot;&quot;&gt;1&lt;/div&gt;" style="verticalLabelPosition=middle;verticalAlign=middle;html=1;shape=mxgraph.basic.acute_triangle;dx=0.5;fontFamily=Helvetica;fontSize=11;fontColor=#FFFFFF;horizontal=1;labelPosition=center;align=center;fillColor=#000000;" parent="1" vertex="1">
          <mxGeometry x="588.38" y="2090" width="25" height="30" as="geometry" />
        </mxCell>
        <mxCell id="Y49pG0PhkSJmo9Slld95-373" value="&lt;div style=&quot;&quot;&gt;2&lt;/div&gt;" style="verticalLabelPosition=middle;verticalAlign=middle;html=1;shape=mxgraph.basic.acute_triangle;dx=0.5;fontFamily=Helvetica;fontSize=11;fontColor=#FFFFFF;horizontal=1;labelPosition=center;align=center;fillColor=#000000;" parent="1" vertex="1">
          <mxGeometry x="628.88" y="2090" width="25" height="30" as="geometry" />
        </mxCell>
        <mxCell id="Y49pG0PhkSJmo9Slld95-374" style="edgeStyle=none;shape=connector;rounded=0;orthogonalLoop=1;jettySize=auto;html=1;exitX=0.5;exitY=1;exitDx=0;exitDy=0;entryX=0;entryY=0;entryDx=12.5;entryDy=0;entryPerimeter=0;labelBackgroundColor=default;strokeColor=default;align=center;verticalAlign=middle;fontFamily=Helvetica;fontSize=11;fontColor=default;endArrow=classic;" parent="1" source="Y49pG0PhkSJmo9Slld95-359" target="Y49pG0PhkSJmo9Slld95-372" edge="1">
          <mxGeometry relative="1" as="geometry" />
        </mxCell>
        <mxCell id="Y49pG0PhkSJmo9Slld95-375" style="edgeStyle=none;shape=connector;rounded=0;orthogonalLoop=1;jettySize=auto;html=1;exitX=0.5;exitY=1;exitDx=0;exitDy=0;entryX=0;entryY=0;entryDx=12.5;entryDy=0;entryPerimeter=0;labelBackgroundColor=default;strokeColor=default;align=center;verticalAlign=middle;fontFamily=Helvetica;fontSize=11;fontColor=default;endArrow=classic;" parent="1" source="Y49pG0PhkSJmo9Slld95-359" target="Y49pG0PhkSJmo9Slld95-373" edge="1">
          <mxGeometry relative="1" as="geometry" />
        </mxCell>
        <mxCell id="Y49pG0PhkSJmo9Slld95-377" value="" style="shape=singleArrow;whiteSpace=wrap;html=1;arrowWidth=0.4;arrowSize=0.4;fillColor=#99FFFF;strokeColor=none;" parent="1" vertex="1">
          <mxGeometry x="240.24" y="1920" width="40.01" height="40" as="geometry" />
        </mxCell>
        <mxCell id="Y49pG0PhkSJmo9Slld95-378" value="" style="shape=singleArrow;whiteSpace=wrap;html=1;arrowWidth=0.4;arrowSize=0.4;fillColor=#99FFFF;strokeColor=none;" parent="1" vertex="1">
          <mxGeometry x="519.98" y="1920" width="40.01" height="40" as="geometry" />
        </mxCell>
        <mxCell id="Y49pG0PhkSJmo9Slld95-388" style="edgeStyle=none;shape=connector;rounded=0;orthogonalLoop=1;jettySize=auto;html=1;exitX=0.5;exitY=1;exitDx=0;exitDy=0;entryX=0.5;entryY=0;entryDx=0;entryDy=0;labelBackgroundColor=default;strokeColor=default;align=center;verticalAlign=middle;fontFamily=Helvetica;fontSize=11;fontColor=default;endArrow=classic;" parent="1" source="Y49pG0PhkSJmo9Slld95-380" target="Y49pG0PhkSJmo9Slld95-381" edge="1">
          <mxGeometry relative="1" as="geometry" />
        </mxCell>
        <mxCell id="Y49pG0PhkSJmo9Slld95-389" style="edgeStyle=none;shape=connector;rounded=0;orthogonalLoop=1;jettySize=auto;html=1;exitX=0.5;exitY=1;exitDx=0;exitDy=0;entryX=0.5;entryY=0;entryDx=0;entryDy=0;labelBackgroundColor=default;strokeColor=default;align=center;verticalAlign=middle;fontFamily=Helvetica;fontSize=11;fontColor=default;endArrow=classic;" parent="1" source="Y49pG0PhkSJmo9Slld95-380" target="Y49pG0PhkSJmo9Slld95-384" edge="1">
          <mxGeometry relative="1" as="geometry" />
        </mxCell>
        <mxCell id="Y49pG0PhkSJmo9Slld95-380" value="&lt;font color=&quot;#ffffff&quot;&gt;G&lt;/font&gt;" style="ellipse;whiteSpace=wrap;html=1;aspect=fixed;strokeColor=none;fillColor=#000000;" parent="1" vertex="1">
          <mxGeometry x="80" y="2240" width="40" height="40" as="geometry" />
        </mxCell>
        <mxCell id="Y49pG0PhkSJmo9Slld95-381" value="&lt;font color=&quot;#ffffff&quot;&gt;U&lt;/font&gt;" style="ellipse;whiteSpace=wrap;html=1;aspect=fixed;strokeColor=none;fillColor=#000000;" parent="1" vertex="1">
          <mxGeometry x="40" y="2320" width="40" height="40" as="geometry" />
        </mxCell>
        <mxCell id="Y49pG0PhkSJmo9Slld95-390" style="edgeStyle=none;shape=connector;rounded=0;orthogonalLoop=1;jettySize=auto;html=1;exitX=0.5;exitY=1;exitDx=0;exitDy=0;entryX=0.5;entryY=0;entryDx=0;entryDy=0;labelBackgroundColor=default;strokeColor=default;align=center;verticalAlign=middle;fontFamily=Helvetica;fontSize=11;fontColor=default;endArrow=classic;" parent="1" source="Y49pG0PhkSJmo9Slld95-384" target="Y49pG0PhkSJmo9Slld95-385" edge="1">
          <mxGeometry relative="1" as="geometry" />
        </mxCell>
        <mxCell id="Y49pG0PhkSJmo9Slld95-391" style="edgeStyle=none;shape=connector;rounded=0;orthogonalLoop=1;jettySize=auto;html=1;exitX=0.5;exitY=1;exitDx=0;exitDy=0;entryX=0.5;entryY=0;entryDx=0;entryDy=0;labelBackgroundColor=default;strokeColor=default;align=center;verticalAlign=middle;fontFamily=Helvetica;fontSize=11;fontColor=default;endArrow=classic;" parent="1" source="Y49pG0PhkSJmo9Slld95-384" target="Y49pG0PhkSJmo9Slld95-387" edge="1">
          <mxGeometry relative="1" as="geometry" />
        </mxCell>
        <mxCell id="Y49pG0PhkSJmo9Slld95-384" value="&lt;font color=&quot;#ffffff&quot;&gt;P&lt;/font&gt;" style="ellipse;whiteSpace=wrap;html=1;aspect=fixed;strokeColor=none;fillColor=#FF0000;" parent="1" vertex="1">
          <mxGeometry x="159.75" y="2320" width="40" height="40" as="geometry" />
        </mxCell>
        <mxCell id="Y49pG0PhkSJmo9Slld95-396" style="edgeStyle=none;shape=connector;rounded=0;orthogonalLoop=1;jettySize=auto;html=1;exitX=0.5;exitY=1;exitDx=0;exitDy=0;entryX=0.5;entryY=0;entryDx=0;entryDy=0;labelBackgroundColor=default;strokeColor=default;align=center;verticalAlign=middle;fontFamily=Helvetica;fontSize=11;fontColor=default;endArrow=classic;" parent="1" source="Y49pG0PhkSJmo9Slld95-385" target="Y49pG0PhkSJmo9Slld95-393" edge="1">
          <mxGeometry relative="1" as="geometry" />
        </mxCell>
        <mxCell id="Y49pG0PhkSJmo9Slld95-397" style="edgeStyle=none;shape=connector;rounded=0;orthogonalLoop=1;jettySize=auto;html=1;exitX=0.5;exitY=1;exitDx=0;exitDy=0;entryX=0.5;entryY=0;entryDx=0;entryDy=0;labelBackgroundColor=default;strokeColor=default;align=center;verticalAlign=middle;fontFamily=Helvetica;fontSize=11;fontColor=default;endArrow=classic;" parent="1" source="Y49pG0PhkSJmo9Slld95-385" target="Y49pG0PhkSJmo9Slld95-395" edge="1">
          <mxGeometry relative="1" as="geometry" />
        </mxCell>
        <mxCell id="Y49pG0PhkSJmo9Slld95-385" value="&lt;font color=&quot;#ffffff&quot;&gt;N&lt;/font&gt;" style="ellipse;whiteSpace=wrap;html=1;aspect=fixed;strokeColor=none;fillColor=#FF0000;" parent="1" vertex="1">
          <mxGeometry x="119.75" y="2400" width="40" height="40" as="geometry" />
        </mxCell>
        <mxCell id="Y49pG0PhkSJmo9Slld95-386" value="5" style="verticalLabelPosition=middle;verticalAlign=middle;html=1;shape=mxgraph.basic.acute_triangle;dx=0.5;fontFamily=Helvetica;fontSize=11;fontColor=#FFFFFF;horizontal=1;labelPosition=center;align=center;fillColor=#000000;" parent="1" vertex="1">
          <mxGeometry x="187" y="2409" width="25" height="30" as="geometry" />
        </mxCell>
        <mxCell id="Y49pG0PhkSJmo9Slld95-387" value="" style="ellipse;whiteSpace=wrap;html=1;aspect=fixed;fillColor=#000000;" parent="1" vertex="1">
          <mxGeometry x="192" y="2405" width="15" height="15" as="geometry" />
        </mxCell>
        <mxCell id="Y49pG0PhkSJmo9Slld95-392" value="3" style="verticalLabelPosition=middle;verticalAlign=middle;html=1;shape=mxgraph.basic.acute_triangle;dx=0.5;fontFamily=Helvetica;fontSize=11;fontColor=#FFFFFF;horizontal=1;labelPosition=center;align=center;fillColor=#000000;" parent="1" vertex="1">
          <mxGeometry x="106.75" y="2489" width="25" height="30" as="geometry" />
        </mxCell>
        <mxCell id="Y49pG0PhkSJmo9Slld95-393" value="" style="ellipse;whiteSpace=wrap;html=1;aspect=fixed;fillColor=#000000;" parent="1" vertex="1">
          <mxGeometry x="111.75" y="2485" width="15" height="15" as="geometry" />
        </mxCell>
        <mxCell id="Y49pG0PhkSJmo9Slld95-394" value="4" style="verticalLabelPosition=middle;verticalAlign=middle;html=1;shape=mxgraph.basic.acute_triangle;dx=0.5;fontFamily=Helvetica;fontSize=11;fontColor=#FFFFFF;horizontal=1;labelPosition=center;align=center;fillColor=#000000;" parent="1" vertex="1">
          <mxGeometry x="146.75" y="2489" width="25" height="30" as="geometry" />
        </mxCell>
        <mxCell id="Y49pG0PhkSJmo9Slld95-395" value="" style="ellipse;whiteSpace=wrap;html=1;aspect=fixed;fillColor=#000000;" parent="1" vertex="1">
          <mxGeometry x="151.75" y="2485" width="15" height="15" as="geometry" />
        </mxCell>
        <mxCell id="Y49pG0PhkSJmo9Slld95-398" value="&lt;div style=&quot;&quot;&gt;1&lt;/div&gt;" style="verticalLabelPosition=middle;verticalAlign=middle;html=1;shape=mxgraph.basic.acute_triangle;dx=0.5;fontFamily=Helvetica;fontSize=11;fontColor=#FFFFFF;horizontal=1;labelPosition=center;align=center;fillColor=#000000;" parent="1" vertex="1">
          <mxGeometry x="28" y="2410" width="25" height="30" as="geometry" />
        </mxCell>
        <mxCell id="Y49pG0PhkSJmo9Slld95-399" value="&lt;div style=&quot;&quot;&gt;2&lt;/div&gt;" style="verticalLabelPosition=middle;verticalAlign=middle;html=1;shape=mxgraph.basic.acute_triangle;dx=0.5;fontFamily=Helvetica;fontSize=11;fontColor=#FFFFFF;horizontal=1;labelPosition=center;align=center;fillColor=#000000;" parent="1" vertex="1">
          <mxGeometry x="68.5" y="2410" width="25" height="30" as="geometry" />
        </mxCell>
        <mxCell id="Y49pG0PhkSJmo9Slld95-400" style="edgeStyle=none;shape=connector;rounded=0;orthogonalLoop=1;jettySize=auto;html=1;exitX=0.5;exitY=1;exitDx=0;exitDy=0;entryX=0;entryY=0;entryDx=12.5;entryDy=0;entryPerimeter=0;labelBackgroundColor=default;strokeColor=default;align=center;verticalAlign=middle;fontFamily=Helvetica;fontSize=11;fontColor=default;endArrow=classic;" parent="1" source="Y49pG0PhkSJmo9Slld95-381" target="Y49pG0PhkSJmo9Slld95-398" edge="1">
          <mxGeometry relative="1" as="geometry" />
        </mxCell>
        <mxCell id="Y49pG0PhkSJmo9Slld95-401" style="edgeStyle=none;shape=connector;rounded=0;orthogonalLoop=1;jettySize=auto;html=1;exitX=0.5;exitY=1;exitDx=0;exitDy=0;entryX=0;entryY=0;entryDx=12.5;entryDy=0;entryPerimeter=0;labelBackgroundColor=default;strokeColor=default;align=center;verticalAlign=middle;fontFamily=Helvetica;fontSize=11;fontColor=default;endArrow=classic;" parent="1" source="Y49pG0PhkSJmo9Slld95-381" target="Y49pG0PhkSJmo9Slld95-399" edge="1">
          <mxGeometry relative="1" as="geometry" />
        </mxCell>
        <mxCell id="Y49pG0PhkSJmo9Slld95-402" style="edgeStyle=none;shape=connector;rounded=0;orthogonalLoop=1;jettySize=auto;html=1;exitX=0.5;exitY=1;exitDx=0;exitDy=0;entryX=0.5;entryY=0;entryDx=0;entryDy=0;labelBackgroundColor=default;strokeColor=default;align=center;verticalAlign=middle;fontFamily=Helvetica;fontSize=11;fontColor=default;endArrow=classic;" parent="1" source="Y49pG0PhkSJmo9Slld95-404" target="Y49pG0PhkSJmo9Slld95-405" edge="1">
          <mxGeometry relative="1" as="geometry" />
        </mxCell>
        <mxCell id="Y49pG0PhkSJmo9Slld95-423" style="edgeStyle=none;shape=connector;rounded=0;orthogonalLoop=1;jettySize=auto;html=1;exitX=0.5;exitY=1;exitDx=0;exitDy=0;entryX=0.5;entryY=0;entryDx=0;entryDy=0;labelBackgroundColor=default;strokeColor=default;align=center;verticalAlign=middle;fontFamily=Helvetica;fontSize=11;fontColor=default;endArrow=classic;" parent="1" source="Y49pG0PhkSJmo9Slld95-404" target="Y49pG0PhkSJmo9Slld95-411" edge="1">
          <mxGeometry relative="1" as="geometry" />
        </mxCell>
        <mxCell id="Y49pG0PhkSJmo9Slld95-404" value="&lt;font color=&quot;#ffffff&quot;&gt;G&lt;/font&gt;" style="ellipse;whiteSpace=wrap;html=1;aspect=fixed;strokeColor=none;fillColor=#000000;" parent="1" vertex="1">
          <mxGeometry x="280.5" y="2239.5" width="40" height="40" as="geometry" />
        </mxCell>
        <mxCell id="Y49pG0PhkSJmo9Slld95-405" value="&lt;font color=&quot;#ffffff&quot;&gt;U&lt;/font&gt;" style="ellipse;whiteSpace=wrap;html=1;aspect=fixed;strokeColor=none;fillColor=#000000;" parent="1" vertex="1">
          <mxGeometry x="240.5" y="2319.5" width="40" height="40" as="geometry" />
        </mxCell>
        <mxCell id="Y49pG0PhkSJmo9Slld95-407" style="edgeStyle=none;shape=connector;rounded=0;orthogonalLoop=1;jettySize=auto;html=1;exitX=0.5;exitY=1;exitDx=0;exitDy=0;entryX=0.5;entryY=0;entryDx=0;entryDy=0;labelBackgroundColor=default;strokeColor=default;align=center;verticalAlign=middle;fontFamily=Helvetica;fontSize=11;fontColor=default;endArrow=classic;" parent="1" source="Y49pG0PhkSJmo9Slld95-408" target="Y49pG0PhkSJmo9Slld95-413" edge="1">
          <mxGeometry relative="1" as="geometry" />
        </mxCell>
        <mxCell id="Y49pG0PhkSJmo9Slld95-408" value="&lt;font color=&quot;#ffffff&quot;&gt;P&lt;/font&gt;" style="ellipse;whiteSpace=wrap;html=1;aspect=fixed;strokeColor=none;fillColor=#FF0000;" parent="1" vertex="1">
          <mxGeometry x="362.25" y="2400" width="40" height="40" as="geometry" />
        </mxCell>
        <mxCell id="Y49pG0PhkSJmo9Slld95-409" style="edgeStyle=none;shape=connector;rounded=0;orthogonalLoop=1;jettySize=auto;html=1;exitX=0.5;exitY=1;exitDx=0;exitDy=0;entryX=0.5;entryY=0;entryDx=0;entryDy=0;labelBackgroundColor=default;strokeColor=default;align=center;verticalAlign=middle;fontFamily=Helvetica;fontSize=11;fontColor=default;endArrow=classic;" parent="1" source="Y49pG0PhkSJmo9Slld95-411" target="Y49pG0PhkSJmo9Slld95-415" edge="1">
          <mxGeometry relative="1" as="geometry" />
        </mxCell>
        <mxCell id="Y49pG0PhkSJmo9Slld95-410" style="edgeStyle=none;shape=connector;rounded=0;orthogonalLoop=1;jettySize=auto;html=1;exitX=0.5;exitY=1;exitDx=0;exitDy=0;entryX=0.5;entryY=0;entryDx=0;entryDy=0;labelBackgroundColor=default;strokeColor=default;align=center;verticalAlign=middle;fontFamily=Helvetica;fontSize=11;fontColor=default;endArrow=classic;" parent="1" source="Y49pG0PhkSJmo9Slld95-408" target="Y49pG0PhkSJmo9Slld95-417" edge="1">
          <mxGeometry relative="1" as="geometry" />
        </mxCell>
        <mxCell id="Y49pG0PhkSJmo9Slld95-422" style="edgeStyle=none;shape=connector;rounded=0;orthogonalLoop=1;jettySize=auto;html=1;exitX=0.5;exitY=1;exitDx=0;exitDy=0;entryX=0.5;entryY=0;entryDx=0;entryDy=0;labelBackgroundColor=default;strokeColor=default;align=center;verticalAlign=middle;fontFamily=Helvetica;fontSize=11;fontColor=default;endArrow=classic;" parent="1" source="Y49pG0PhkSJmo9Slld95-411" target="Y49pG0PhkSJmo9Slld95-408" edge="1">
          <mxGeometry relative="1" as="geometry" />
        </mxCell>
        <mxCell id="Y49pG0PhkSJmo9Slld95-411" value="&lt;font color=&quot;#ffffff&quot;&gt;N&lt;/font&gt;" style="ellipse;whiteSpace=wrap;html=1;aspect=fixed;strokeColor=none;fillColor=#FF0000;" parent="1" vertex="1">
          <mxGeometry x="321" y="2320" width="40" height="40" as="geometry" />
        </mxCell>
        <mxCell id="Y49pG0PhkSJmo9Slld95-412" value="5" style="verticalLabelPosition=middle;verticalAlign=middle;html=1;shape=mxgraph.basic.acute_triangle;dx=0.5;fontFamily=Helvetica;fontSize=11;fontColor=#FFFFFF;horizontal=1;labelPosition=center;align=center;fillColor=#000000;" parent="1" vertex="1">
          <mxGeometry x="389.5" y="2489" width="25" height="30" as="geometry" />
        </mxCell>
        <mxCell id="Y49pG0PhkSJmo9Slld95-413" value="" style="ellipse;whiteSpace=wrap;html=1;aspect=fixed;fillColor=#000000;" parent="1" vertex="1">
          <mxGeometry x="394.5" y="2485" width="15" height="15" as="geometry" />
        </mxCell>
        <mxCell id="Y49pG0PhkSJmo9Slld95-414" value="3" style="verticalLabelPosition=middle;verticalAlign=middle;html=1;shape=mxgraph.basic.acute_triangle;dx=0.5;fontFamily=Helvetica;fontSize=11;fontColor=#FFFFFF;horizontal=1;labelPosition=center;align=center;fillColor=#000000;" parent="1" vertex="1">
          <mxGeometry x="308" y="2410" width="25" height="30" as="geometry" />
        </mxCell>
        <mxCell id="Y49pG0PhkSJmo9Slld95-415" value="" style="ellipse;whiteSpace=wrap;html=1;aspect=fixed;fillColor=#000000;" parent="1" vertex="1">
          <mxGeometry x="313" y="2406" width="15" height="15" as="geometry" />
        </mxCell>
        <mxCell id="Y49pG0PhkSJmo9Slld95-416" value="4" style="verticalLabelPosition=middle;verticalAlign=middle;html=1;shape=mxgraph.basic.acute_triangle;dx=0.5;fontFamily=Helvetica;fontSize=11;fontColor=#FFFFFF;horizontal=1;labelPosition=center;align=center;fillColor=#000000;" parent="1" vertex="1">
          <mxGeometry x="348" y="2489" width="25" height="30" as="geometry" />
        </mxCell>
        <mxCell id="Y49pG0PhkSJmo9Slld95-417" value="" style="ellipse;whiteSpace=wrap;html=1;aspect=fixed;fillColor=#000000;" parent="1" vertex="1">
          <mxGeometry x="353" y="2485" width="15" height="15" as="geometry" />
        </mxCell>
        <mxCell id="Y49pG0PhkSJmo9Slld95-418" value="&lt;div style=&quot;&quot;&gt;1&lt;/div&gt;" style="verticalLabelPosition=middle;verticalAlign=middle;html=1;shape=mxgraph.basic.acute_triangle;dx=0.5;fontFamily=Helvetica;fontSize=11;fontColor=#FFFFFF;horizontal=1;labelPosition=center;align=center;fillColor=#000000;" parent="1" vertex="1">
          <mxGeometry x="228.5" y="2409.5" width="25" height="30" as="geometry" />
        </mxCell>
        <mxCell id="Y49pG0PhkSJmo9Slld95-419" value="&lt;div style=&quot;&quot;&gt;2&lt;/div&gt;" style="verticalLabelPosition=middle;verticalAlign=middle;html=1;shape=mxgraph.basic.acute_triangle;dx=0.5;fontFamily=Helvetica;fontSize=11;fontColor=#FFFFFF;horizontal=1;labelPosition=center;align=center;fillColor=#000000;" parent="1" vertex="1">
          <mxGeometry x="269" y="2409.5" width="25" height="30" as="geometry" />
        </mxCell>
        <mxCell id="Y49pG0PhkSJmo9Slld95-420" style="edgeStyle=none;shape=connector;rounded=0;orthogonalLoop=1;jettySize=auto;html=1;exitX=0.5;exitY=1;exitDx=0;exitDy=0;entryX=0;entryY=0;entryDx=12.5;entryDy=0;entryPerimeter=0;labelBackgroundColor=default;strokeColor=default;align=center;verticalAlign=middle;fontFamily=Helvetica;fontSize=11;fontColor=default;endArrow=classic;" parent="1" source="Y49pG0PhkSJmo9Slld95-405" target="Y49pG0PhkSJmo9Slld95-418" edge="1">
          <mxGeometry relative="1" as="geometry" />
        </mxCell>
        <mxCell id="Y49pG0PhkSJmo9Slld95-421" style="edgeStyle=none;shape=connector;rounded=0;orthogonalLoop=1;jettySize=auto;html=1;exitX=0.5;exitY=1;exitDx=0;exitDy=0;entryX=0;entryY=0;entryDx=12.5;entryDy=0;entryPerimeter=0;labelBackgroundColor=default;strokeColor=default;align=center;verticalAlign=middle;fontFamily=Helvetica;fontSize=11;fontColor=default;endArrow=classic;" parent="1" source="Y49pG0PhkSJmo9Slld95-405" target="Y49pG0PhkSJmo9Slld95-419" edge="1">
          <mxGeometry relative="1" as="geometry" />
        </mxCell>
        <mxCell id="Y49pG0PhkSJmo9Slld95-424" style="edgeStyle=none;shape=connector;rounded=0;orthogonalLoop=1;jettySize=auto;html=1;exitX=0.5;exitY=1;exitDx=0;exitDy=0;entryX=0.5;entryY=0;entryDx=0;entryDy=0;labelBackgroundColor=default;strokeColor=default;align=center;verticalAlign=middle;fontFamily=Helvetica;fontSize=11;fontColor=default;endArrow=classic;" parent="1" source="Y49pG0PhkSJmo9Slld95-426" target="Y49pG0PhkSJmo9Slld95-427" edge="1">
          <mxGeometry relative="1" as="geometry" />
        </mxCell>
        <mxCell id="Y49pG0PhkSJmo9Slld95-425" style="edgeStyle=none;shape=connector;rounded=0;orthogonalLoop=1;jettySize=auto;html=1;exitX=0.5;exitY=1;exitDx=0;exitDy=0;entryX=0.5;entryY=0;entryDx=0;entryDy=0;labelBackgroundColor=default;strokeColor=default;align=center;verticalAlign=middle;fontFamily=Helvetica;fontSize=11;fontColor=default;endArrow=classic;" parent="1" source="Y49pG0PhkSJmo9Slld95-426" target="Y49pG0PhkSJmo9Slld95-433" edge="1">
          <mxGeometry relative="1" as="geometry" />
        </mxCell>
        <mxCell id="Y49pG0PhkSJmo9Slld95-426" value="&lt;font color=&quot;#ffffff&quot;&gt;G&lt;/font&gt;" style="ellipse;whiteSpace=wrap;html=1;aspect=fixed;strokeColor=none;fillColor=#FF0000;" parent="1" vertex="1">
          <mxGeometry x="480.5" y="2239.5" width="40" height="40" as="geometry" />
        </mxCell>
        <mxCell id="Y49pG0PhkSJmo9Slld95-427" value="&lt;font color=&quot;#ffffff&quot;&gt;U&lt;/font&gt;" style="ellipse;whiteSpace=wrap;html=1;aspect=fixed;strokeColor=none;fillColor=#000000;" parent="1" vertex="1">
          <mxGeometry x="440.5" y="2319.5" width="40" height="40" as="geometry" />
        </mxCell>
        <mxCell id="Y49pG0PhkSJmo9Slld95-428" style="edgeStyle=none;shape=connector;rounded=0;orthogonalLoop=1;jettySize=auto;html=1;exitX=0.5;exitY=1;exitDx=0;exitDy=0;entryX=0.5;entryY=0;entryDx=0;entryDy=0;labelBackgroundColor=default;strokeColor=default;align=center;verticalAlign=middle;fontFamily=Helvetica;fontSize=11;fontColor=default;endArrow=classic;" parent="1" source="Y49pG0PhkSJmo9Slld95-429" target="Y49pG0PhkSJmo9Slld95-435" edge="1">
          <mxGeometry relative="1" as="geometry" />
        </mxCell>
        <mxCell id="Y49pG0PhkSJmo9Slld95-429" value="&lt;font color=&quot;#ffffff&quot;&gt;P&lt;/font&gt;" style="ellipse;whiteSpace=wrap;html=1;aspect=fixed;strokeColor=none;fillColor=#FF0000;" parent="1" vertex="1">
          <mxGeometry x="562.25" y="2400" width="40" height="40" as="geometry" />
        </mxCell>
        <mxCell id="Y49pG0PhkSJmo9Slld95-430" style="edgeStyle=none;shape=connector;rounded=0;orthogonalLoop=1;jettySize=auto;html=1;exitX=0.5;exitY=1;exitDx=0;exitDy=0;entryX=0.5;entryY=0;entryDx=0;entryDy=0;labelBackgroundColor=default;strokeColor=default;align=center;verticalAlign=middle;fontFamily=Helvetica;fontSize=11;fontColor=default;endArrow=classic;" parent="1" source="Y49pG0PhkSJmo9Slld95-433" target="Y49pG0PhkSJmo9Slld95-437" edge="1">
          <mxGeometry relative="1" as="geometry" />
        </mxCell>
        <mxCell id="Y49pG0PhkSJmo9Slld95-431" style="edgeStyle=none;shape=connector;rounded=0;orthogonalLoop=1;jettySize=auto;html=1;exitX=0.5;exitY=1;exitDx=0;exitDy=0;entryX=0.5;entryY=0;entryDx=0;entryDy=0;labelBackgroundColor=default;strokeColor=default;align=center;verticalAlign=middle;fontFamily=Helvetica;fontSize=11;fontColor=default;endArrow=classic;" parent="1" source="Y49pG0PhkSJmo9Slld95-429" target="Y49pG0PhkSJmo9Slld95-439" edge="1">
          <mxGeometry relative="1" as="geometry" />
        </mxCell>
        <mxCell id="Y49pG0PhkSJmo9Slld95-432" style="edgeStyle=none;shape=connector;rounded=0;orthogonalLoop=1;jettySize=auto;html=1;exitX=0.5;exitY=1;exitDx=0;exitDy=0;entryX=0.5;entryY=0;entryDx=0;entryDy=0;labelBackgroundColor=default;strokeColor=default;align=center;verticalAlign=middle;fontFamily=Helvetica;fontSize=11;fontColor=default;endArrow=classic;" parent="1" source="Y49pG0PhkSJmo9Slld95-433" target="Y49pG0PhkSJmo9Slld95-429" edge="1">
          <mxGeometry relative="1" as="geometry" />
        </mxCell>
        <mxCell id="Y49pG0PhkSJmo9Slld95-433" value="&lt;font color=&quot;#ffffff&quot;&gt;N&lt;/font&gt;" style="ellipse;whiteSpace=wrap;html=1;aspect=fixed;strokeColor=none;fillColor=#000000;" parent="1" vertex="1">
          <mxGeometry x="521" y="2320" width="40" height="40" as="geometry" />
        </mxCell>
        <mxCell id="Y49pG0PhkSJmo9Slld95-434" value="5" style="verticalLabelPosition=middle;verticalAlign=middle;html=1;shape=mxgraph.basic.acute_triangle;dx=0.5;fontFamily=Helvetica;fontSize=11;fontColor=#FFFFFF;horizontal=1;labelPosition=center;align=center;fillColor=#000000;" parent="1" vertex="1">
          <mxGeometry x="589.5" y="2489" width="25" height="30" as="geometry" />
        </mxCell>
        <mxCell id="Y49pG0PhkSJmo9Slld95-435" value="" style="ellipse;whiteSpace=wrap;html=1;aspect=fixed;fillColor=#000000;" parent="1" vertex="1">
          <mxGeometry x="594.5" y="2485" width="15" height="15" as="geometry" />
        </mxCell>
        <mxCell id="Y49pG0PhkSJmo9Slld95-436" value="3" style="verticalLabelPosition=middle;verticalAlign=middle;html=1;shape=mxgraph.basic.acute_triangle;dx=0.5;fontFamily=Helvetica;fontSize=11;fontColor=#FFFFFF;horizontal=1;labelPosition=center;align=center;fillColor=#000000;" parent="1" vertex="1">
          <mxGeometry x="508" y="2410" width="25" height="30" as="geometry" />
        </mxCell>
        <mxCell id="Y49pG0PhkSJmo9Slld95-437" value="" style="ellipse;whiteSpace=wrap;html=1;aspect=fixed;fillColor=#000000;" parent="1" vertex="1">
          <mxGeometry x="513" y="2406" width="15" height="15" as="geometry" />
        </mxCell>
        <mxCell id="Y49pG0PhkSJmo9Slld95-438" value="4" style="verticalLabelPosition=middle;verticalAlign=middle;html=1;shape=mxgraph.basic.acute_triangle;dx=0.5;fontFamily=Helvetica;fontSize=11;fontColor=#FFFFFF;horizontal=1;labelPosition=center;align=center;fillColor=#000000;" parent="1" vertex="1">
          <mxGeometry x="548" y="2489" width="25" height="30" as="geometry" />
        </mxCell>
        <mxCell id="Y49pG0PhkSJmo9Slld95-439" value="" style="ellipse;whiteSpace=wrap;html=1;aspect=fixed;fillColor=#000000;" parent="1" vertex="1">
          <mxGeometry x="553" y="2485" width="15" height="15" as="geometry" />
        </mxCell>
        <mxCell id="Y49pG0PhkSJmo9Slld95-440" value="&lt;div style=&quot;&quot;&gt;1&lt;/div&gt;" style="verticalLabelPosition=middle;verticalAlign=middle;html=1;shape=mxgraph.basic.acute_triangle;dx=0.5;fontFamily=Helvetica;fontSize=11;fontColor=#FFFFFF;horizontal=1;labelPosition=center;align=center;fillColor=#000000;" parent="1" vertex="1">
          <mxGeometry x="428.5" y="2409.5" width="25" height="30" as="geometry" />
        </mxCell>
        <mxCell id="Y49pG0PhkSJmo9Slld95-441" value="&lt;div style=&quot;&quot;&gt;2&lt;/div&gt;" style="verticalLabelPosition=middle;verticalAlign=middle;html=1;shape=mxgraph.basic.acute_triangle;dx=0.5;fontFamily=Helvetica;fontSize=11;fontColor=#FFFFFF;horizontal=1;labelPosition=center;align=center;fillColor=#000000;" parent="1" vertex="1">
          <mxGeometry x="469" y="2409.5" width="25" height="30" as="geometry" />
        </mxCell>
        <mxCell id="Y49pG0PhkSJmo9Slld95-442" style="edgeStyle=none;shape=connector;rounded=0;orthogonalLoop=1;jettySize=auto;html=1;exitX=0.5;exitY=1;exitDx=0;exitDy=0;entryX=0;entryY=0;entryDx=12.5;entryDy=0;entryPerimeter=0;labelBackgroundColor=default;strokeColor=default;align=center;verticalAlign=middle;fontFamily=Helvetica;fontSize=11;fontColor=default;endArrow=classic;" parent="1" source="Y49pG0PhkSJmo9Slld95-427" target="Y49pG0PhkSJmo9Slld95-440" edge="1">
          <mxGeometry relative="1" as="geometry" />
        </mxCell>
        <mxCell id="Y49pG0PhkSJmo9Slld95-443" style="edgeStyle=none;shape=connector;rounded=0;orthogonalLoop=1;jettySize=auto;html=1;exitX=0.5;exitY=1;exitDx=0;exitDy=0;entryX=0;entryY=0;entryDx=12.5;entryDy=0;entryPerimeter=0;labelBackgroundColor=default;strokeColor=default;align=center;verticalAlign=middle;fontFamily=Helvetica;fontSize=11;fontColor=default;endArrow=classic;" parent="1" source="Y49pG0PhkSJmo9Slld95-427" target="Y49pG0PhkSJmo9Slld95-441" edge="1">
          <mxGeometry relative="1" as="geometry" />
        </mxCell>
        <mxCell id="Y49pG0PhkSJmo9Slld95-444" style="edgeStyle=none;shape=connector;rounded=0;orthogonalLoop=1;jettySize=auto;html=1;exitX=0.5;exitY=1;exitDx=0;exitDy=0;entryX=0.5;entryY=0;entryDx=0;entryDy=0;labelBackgroundColor=default;strokeColor=default;align=center;verticalAlign=middle;fontFamily=Helvetica;fontSize=11;fontColor=default;endArrow=classic;" parent="1" source="Y49pG0PhkSJmo9Slld95-446" target="Y49pG0PhkSJmo9Slld95-447" edge="1">
          <mxGeometry relative="1" as="geometry" />
        </mxCell>
        <mxCell id="Y49pG0PhkSJmo9Slld95-446" value="&lt;font color=&quot;#ffffff&quot;&gt;G&lt;/font&gt;" style="ellipse;whiteSpace=wrap;html=1;aspect=fixed;strokeColor=none;fillColor=#FF0000;" parent="1" vertex="1">
          <mxGeometry x="679.13" y="2320" width="40" height="40" as="geometry" />
        </mxCell>
        <mxCell id="Y49pG0PhkSJmo9Slld95-447" value="&lt;font color=&quot;#ffffff&quot;&gt;U&lt;/font&gt;" style="ellipse;whiteSpace=wrap;html=1;aspect=fixed;strokeColor=none;fillColor=#000000;" parent="1" vertex="1">
          <mxGeometry x="639.13" y="2400" width="40" height="40" as="geometry" />
        </mxCell>
        <mxCell id="Y49pG0PhkSJmo9Slld95-448" style="edgeStyle=none;shape=connector;rounded=0;orthogonalLoop=1;jettySize=auto;html=1;exitX=0.5;exitY=1;exitDx=0;exitDy=0;entryX=0.5;entryY=0;entryDx=0;entryDy=0;labelBackgroundColor=default;strokeColor=default;align=center;verticalAlign=middle;fontFamily=Helvetica;fontSize=11;fontColor=default;endArrow=classic;" parent="1" source="Y49pG0PhkSJmo9Slld95-449" target="Y49pG0PhkSJmo9Slld95-455" edge="1">
          <mxGeometry relative="1" as="geometry" />
        </mxCell>
        <mxCell id="Y49pG0PhkSJmo9Slld95-449" value="&lt;font color=&quot;#ffffff&quot;&gt;P&lt;/font&gt;" style="ellipse;whiteSpace=wrap;html=1;aspect=fixed;strokeColor=none;fillColor=#FF0000;" parent="1" vertex="1">
          <mxGeometry x="761.88" y="2320" width="40" height="40" as="geometry" />
        </mxCell>
        <mxCell id="Y49pG0PhkSJmo9Slld95-450" style="edgeStyle=none;shape=connector;rounded=0;orthogonalLoop=1;jettySize=auto;html=1;exitX=0.5;exitY=1;exitDx=0;exitDy=0;entryX=0.5;entryY=0;entryDx=0;entryDy=0;labelBackgroundColor=default;strokeColor=default;align=center;verticalAlign=middle;fontFamily=Helvetica;fontSize=11;fontColor=default;endArrow=classic;" parent="1" source="Y49pG0PhkSJmo9Slld95-446" target="Y49pG0PhkSJmo9Slld95-457" edge="1">
          <mxGeometry relative="1" as="geometry" />
        </mxCell>
        <mxCell id="Y49pG0PhkSJmo9Slld95-451" style="edgeStyle=none;shape=connector;rounded=0;orthogonalLoop=1;jettySize=auto;html=1;exitX=0.5;exitY=1;exitDx=0;exitDy=0;entryX=0.5;entryY=0;entryDx=0;entryDy=0;labelBackgroundColor=default;strokeColor=default;align=center;verticalAlign=middle;fontFamily=Helvetica;fontSize=11;fontColor=default;endArrow=classic;" parent="1" source="Y49pG0PhkSJmo9Slld95-449" target="Y49pG0PhkSJmo9Slld95-459" edge="1">
          <mxGeometry relative="1" as="geometry" />
        </mxCell>
        <mxCell id="Y49pG0PhkSJmo9Slld95-452" style="edgeStyle=none;shape=connector;rounded=0;orthogonalLoop=1;jettySize=auto;html=1;exitX=0.5;exitY=1;exitDx=0;exitDy=0;entryX=0.5;entryY=0;entryDx=0;entryDy=0;labelBackgroundColor=default;strokeColor=default;align=center;verticalAlign=middle;fontFamily=Helvetica;fontSize=11;fontColor=default;endArrow=classic;" parent="1" source="Y49pG0PhkSJmo9Slld95-453" target="Y49pG0PhkSJmo9Slld95-449" edge="1">
          <mxGeometry relative="1" as="geometry" />
        </mxCell>
        <mxCell id="Y49pG0PhkSJmo9Slld95-464" style="edgeStyle=none;shape=connector;rounded=0;orthogonalLoop=1;jettySize=auto;html=1;exitX=0.5;exitY=1;exitDx=0;exitDy=0;entryX=0.5;entryY=0;entryDx=0;entryDy=0;labelBackgroundColor=default;strokeColor=default;align=center;verticalAlign=middle;fontFamily=Helvetica;fontSize=11;fontColor=default;endArrow=classic;" parent="1" source="Y49pG0PhkSJmo9Slld95-453" target="Y49pG0PhkSJmo9Slld95-446" edge="1">
          <mxGeometry relative="1" as="geometry" />
        </mxCell>
        <mxCell id="Y49pG0PhkSJmo9Slld95-453" value="&lt;font color=&quot;#ffffff&quot;&gt;N&lt;/font&gt;" style="ellipse;whiteSpace=wrap;html=1;aspect=fixed;strokeColor=none;fillColor=#000000;" parent="1" vertex="1">
          <mxGeometry x="720.63" y="2240" width="40" height="40" as="geometry" />
        </mxCell>
        <mxCell id="Y49pG0PhkSJmo9Slld95-454" value="5" style="verticalLabelPosition=middle;verticalAlign=middle;html=1;shape=mxgraph.basic.acute_triangle;dx=0.5;fontFamily=Helvetica;fontSize=11;fontColor=#FFFFFF;horizontal=1;labelPosition=center;align=center;fillColor=#000000;" parent="1" vertex="1">
          <mxGeometry x="789.13" y="2409" width="25" height="30" as="geometry" />
        </mxCell>
        <mxCell id="Y49pG0PhkSJmo9Slld95-455" value="" style="ellipse;whiteSpace=wrap;html=1;aspect=fixed;fillColor=#000000;" parent="1" vertex="1">
          <mxGeometry x="794.13" y="2405" width="15" height="15" as="geometry" />
        </mxCell>
        <mxCell id="Y49pG0PhkSJmo9Slld95-456" value="3" style="verticalLabelPosition=middle;verticalAlign=middle;html=1;shape=mxgraph.basic.acute_triangle;dx=0.5;fontFamily=Helvetica;fontSize=11;fontColor=#FFFFFF;horizontal=1;labelPosition=center;align=center;fillColor=#000000;" parent="1" vertex="1">
          <mxGeometry x="709.38" y="2409.25" width="25" height="30" as="geometry" />
        </mxCell>
        <mxCell id="Y49pG0PhkSJmo9Slld95-457" value="" style="ellipse;whiteSpace=wrap;html=1;aspect=fixed;fillColor=#000000;" parent="1" vertex="1">
          <mxGeometry x="714.38" y="2405.25" width="15" height="15" as="geometry" />
        </mxCell>
        <mxCell id="Y49pG0PhkSJmo9Slld95-458" value="4" style="verticalLabelPosition=middle;verticalAlign=middle;html=1;shape=mxgraph.basic.acute_triangle;dx=0.5;fontFamily=Helvetica;fontSize=11;fontColor=#FFFFFF;horizontal=1;labelPosition=center;align=center;fillColor=#000000;" parent="1" vertex="1">
          <mxGeometry x="747.63" y="2409" width="25" height="30" as="geometry" />
        </mxCell>
        <mxCell id="Y49pG0PhkSJmo9Slld95-459" value="" style="ellipse;whiteSpace=wrap;html=1;aspect=fixed;fillColor=#000000;" parent="1" vertex="1">
          <mxGeometry x="752.63" y="2405" width="15" height="15" as="geometry" />
        </mxCell>
        <mxCell id="Y49pG0PhkSJmo9Slld95-460" value="&lt;div style=&quot;&quot;&gt;1&lt;/div&gt;" style="verticalLabelPosition=middle;verticalAlign=middle;html=1;shape=mxgraph.basic.acute_triangle;dx=0.5;fontFamily=Helvetica;fontSize=11;fontColor=#FFFFFF;horizontal=1;labelPosition=center;align=center;fillColor=#000000;" parent="1" vertex="1">
          <mxGeometry x="627.13" y="2490" width="25" height="30" as="geometry" />
        </mxCell>
        <mxCell id="Y49pG0PhkSJmo9Slld95-461" value="&lt;div style=&quot;&quot;&gt;2&lt;/div&gt;" style="verticalLabelPosition=middle;verticalAlign=middle;html=1;shape=mxgraph.basic.acute_triangle;dx=0.5;fontFamily=Helvetica;fontSize=11;fontColor=#FFFFFF;horizontal=1;labelPosition=center;align=center;fillColor=#000000;" parent="1" vertex="1">
          <mxGeometry x="667.63" y="2490" width="25" height="30" as="geometry" />
        </mxCell>
        <mxCell id="Y49pG0PhkSJmo9Slld95-462" style="edgeStyle=none;shape=connector;rounded=0;orthogonalLoop=1;jettySize=auto;html=1;exitX=0.5;exitY=1;exitDx=0;exitDy=0;entryX=0;entryY=0;entryDx=12.5;entryDy=0;entryPerimeter=0;labelBackgroundColor=default;strokeColor=default;align=center;verticalAlign=middle;fontFamily=Helvetica;fontSize=11;fontColor=default;endArrow=classic;" parent="1" source="Y49pG0PhkSJmo9Slld95-447" target="Y49pG0PhkSJmo9Slld95-460" edge="1">
          <mxGeometry relative="1" as="geometry" />
        </mxCell>
        <mxCell id="Y49pG0PhkSJmo9Slld95-463" style="edgeStyle=none;shape=connector;rounded=0;orthogonalLoop=1;jettySize=auto;html=1;exitX=0.5;exitY=1;exitDx=0;exitDy=0;entryX=0;entryY=0;entryDx=12.5;entryDy=0;entryPerimeter=0;labelBackgroundColor=default;strokeColor=default;align=center;verticalAlign=middle;fontFamily=Helvetica;fontSize=11;fontColor=default;endArrow=classic;" parent="1" source="Y49pG0PhkSJmo9Slld95-447" target="Y49pG0PhkSJmo9Slld95-461" edge="1">
          <mxGeometry relative="1" as="geometry" />
        </mxCell>
        <mxCell id="Y49pG0PhkSJmo9Slld95-465" value="" style="shape=singleArrow;whiteSpace=wrap;html=1;arrowWidth=0.4;arrowSize=0.4;fillColor=#99FFFF;strokeColor=none;" parent="1" vertex="1">
          <mxGeometry x="180.49" y="2260" width="40.01" height="40" as="geometry" />
        </mxCell>
        <mxCell id="Y49pG0PhkSJmo9Slld95-466" value="" style="shape=singleArrow;whiteSpace=wrap;html=1;arrowWidth=0.4;arrowSize=0.4;fillColor=#99FFFF;strokeColor=none;" parent="1" vertex="1">
          <mxGeometry x="380.49" y="2260" width="40.01" height="40" as="geometry" />
        </mxCell>
        <mxCell id="Y49pG0PhkSJmo9Slld95-467" value="" style="shape=singleArrow;whiteSpace=wrap;html=1;arrowWidth=0.4;arrowSize=0.4;fillColor=#99FFFF;strokeColor=none;" parent="1" vertex="1">
          <mxGeometry x="600.74" y="2260" width="40.01" height="40" as="geometry" />
        </mxCell>
      </root>
    </mxGraphModel>
  </diagram>
</mxfile>
